G04 #@! TF.GenerationSoftware,KiCad,Pcbnew,5.1.5+dfsg1-2build2*
G04 #@! TF.CreationDate,2021-09-29T14:40:33+01:00*
G04 #@! TF.ProjectId,OSM_env01,4f534d5f-656e-4763-9031-2e6b69636164,B*
G04 #@! TF.SameCoordinates,Original*
G04 #@! TF.FileFunction,Other,User*
%FSLAX46Y46*%
G04 Gerber Fmt 4.6, Leading zero omitted, Abs format (unit mm)*
G04 Created by KiCad (PCBNEW 5.1.5+dfsg1-2build2) date 2021-09-29 14:40:33*
%MOMM*%
%LPD*%
G04 APERTURE LIST*
%ADD10C,0.150000*%
%ADD11C,0.254000*%
%ADD12C,0.100000*%
%ADD13C,0.050000*%
G04 APERTURE END LIST*
D10*
X155600000Y-113200000D02*
X155600000Y-105200000D01*
X153600000Y-105200000D02*
X155600000Y-105200000D01*
X153600000Y-113200000D02*
X153600000Y-112200000D01*
X153600000Y-113200000D02*
X155600000Y-113200000D01*
X145400000Y-113200000D02*
X145400000Y-105200000D01*
X153600000Y-106200000D02*
X153600000Y-105200000D01*
X149600000Y-106200000D02*
X149600000Y-105200000D01*
X149600000Y-113200000D02*
X145400000Y-113200000D01*
X149600000Y-112200000D02*
X149600000Y-113200000D01*
X147400000Y-112200000D02*
X149600000Y-112200000D01*
X147400000Y-106200000D02*
X149600000Y-106200000D01*
X146400000Y-106200000D02*
X147400000Y-106200000D01*
X146400000Y-112200000D02*
X146400000Y-106200000D01*
X147400000Y-112200000D02*
X146400000Y-112200000D01*
X149600000Y-105200000D02*
X145400000Y-105200000D01*
X153600000Y-112200000D02*
X154600000Y-112200000D01*
X153600000Y-106200000D02*
X154600000Y-106200000D01*
X154600000Y-112200000D02*
X154600000Y-106200000D01*
D11*
X82800000Y-122200000D02*
X242800000Y-122200000D01*
X82700000Y-34200000D02*
X162700000Y-34200000D01*
D12*
X132600000Y-70000000D02*
X157600000Y-70000000D01*
D11*
X82700000Y-33200000D02*
X162700000Y-33200000D01*
X82700000Y-123200000D02*
X162700000Y-123200000D01*
X162700000Y-128200000D02*
X162700000Y-28200000D01*
X82700000Y-128200000D02*
X82700000Y-28200000D01*
D10*
X83000000Y-36300000D02*
X83000000Y-46300000D01*
D11*
X82700000Y-121200000D02*
X242700000Y-121200000D01*
X82700000Y-28200000D02*
X162700000Y-28200000D01*
X82700000Y-128200000D02*
X162700000Y-128200000D01*
D12*
X139200000Y-52350000D02*
X139200000Y-36850000D01*
X155200000Y-36850000D02*
X155200000Y-52350000D01*
X139200000Y-36850000D02*
X155200000Y-36850000D01*
X155200000Y-52350000D02*
X139200000Y-52350000D01*
D13*
X128000000Y-62300000D02*
G75*
G03X128000000Y-62300000I-1000000J0D01*
G01*
X148280000Y-67350000D02*
G75*
G03X148280000Y-67350000I-1000000J0D01*
G01*
X152080000Y-62150000D02*
G75*
G03X152080000Y-62150000I-1000000J0D01*
G01*
X150150000Y-69350000D02*
G75*
G03X150150000Y-69350000I-1000000J0D01*
G01*
X139550000Y-69450000D02*
X126800000Y-69450000D01*
X139550000Y-73650000D02*
X139550000Y-69450000D01*
X126800000Y-73650000D02*
X139550000Y-73650000D01*
X126800000Y-69450000D02*
X126800000Y-73650000D01*
X101550000Y-97700000D02*
G75*
G03X101550000Y-97700000I-3450000J0D01*
G01*
X146450000Y-63300000D02*
G75*
G03X146450000Y-63300000I-3450000J0D01*
G01*
X100750000Y-49700000D02*
G75*
G03X100750000Y-49700000I-3450000J0D01*
G01*
X162950000Y-121450000D02*
X162950000Y-77950000D01*
X162950000Y-77950000D02*
X126450000Y-77950000D01*
X126450000Y-121450000D02*
X126450000Y-77950000D01*
X162950000Y-121450000D02*
X126450000Y-121450000D01*
X145920000Y-34270000D02*
X148880000Y-34270000D01*
X145920000Y-35730000D02*
X145920000Y-34270000D01*
X148880000Y-35730000D02*
X145920000Y-35730000D01*
X148880000Y-34270000D02*
X148880000Y-35730000D01*
X141870000Y-33870000D02*
X141870000Y-35730000D01*
X140930000Y-33870000D02*
X141870000Y-33870000D01*
X140930000Y-35730000D02*
X140930000Y-33870000D01*
X141870000Y-35730000D02*
X140930000Y-35730000D01*
X140670000Y-33870000D02*
X140670000Y-35730000D01*
X139730000Y-33870000D02*
X140670000Y-33870000D01*
X139730000Y-35730000D02*
X139730000Y-33870000D01*
X140670000Y-35730000D02*
X139730000Y-35730000D01*
X148410000Y-64300000D02*
X148410000Y-62440000D01*
X149350000Y-64300000D02*
X148410000Y-64300000D01*
X149350000Y-62440000D02*
X149350000Y-64300000D01*
X148410000Y-62440000D02*
X149350000Y-62440000D01*
X100050000Y-39750000D02*
X100050000Y-38800000D01*
X97950000Y-39750000D02*
X100050000Y-39750000D01*
X97950000Y-38800000D02*
X97950000Y-39750000D01*
X100050000Y-38800000D02*
X100250000Y-38800000D01*
X97750000Y-38800000D02*
X97950000Y-38800000D01*
X97750000Y-38800000D02*
X96600000Y-37650000D01*
X100250000Y-38800000D02*
X101400000Y-37650000D01*
X96600000Y-37650000D02*
X96600000Y-34000000D01*
X101400000Y-37650000D02*
X101400000Y-34000000D01*
X100050000Y-34000000D02*
X101400000Y-34000000D01*
X100050000Y-33050000D02*
X100050000Y-34000000D01*
X97950000Y-33050000D02*
X100050000Y-33050000D01*
X97950000Y-34000000D02*
X97950000Y-33050000D01*
X96600000Y-34000000D02*
X97950000Y-34000000D01*
X152010000Y-67090000D02*
X152010000Y-70050000D01*
X150550000Y-67090000D02*
X152010000Y-67090000D01*
X150550000Y-70050000D02*
X150550000Y-67090000D01*
X152010000Y-70050000D02*
X150550000Y-70050000D01*
X152150000Y-70050000D02*
X152150000Y-67090000D01*
X153610000Y-70050000D02*
X152150000Y-70050000D01*
X153610000Y-67090000D02*
X153610000Y-70050000D01*
X152150000Y-67090000D02*
X153610000Y-67090000D01*
X146400000Y-64440000D02*
X149360000Y-64440000D01*
X146400000Y-65900000D02*
X146400000Y-64440000D01*
X149360000Y-65900000D02*
X146400000Y-65900000D01*
X149360000Y-64440000D02*
X149360000Y-65900000D01*
X115580000Y-79320000D02*
X111020000Y-79320000D01*
X115580000Y-77080000D02*
X115580000Y-79320000D01*
X111020000Y-77080000D02*
X115580000Y-77080000D01*
X111020000Y-79320000D02*
X111020000Y-77080000D01*
X162200000Y-60000000D02*
X157200000Y-60000000D01*
X162200000Y-60000000D02*
X162200000Y-55000000D01*
X157200000Y-55000000D02*
X157200000Y-60000000D01*
X157200000Y-55000000D02*
X162200000Y-55000000D01*
X126770000Y-67270000D02*
X126770000Y-69130000D01*
X125830000Y-67270000D02*
X126770000Y-67270000D01*
X125830000Y-69130000D02*
X125830000Y-67270000D01*
X126770000Y-69130000D02*
X125830000Y-69130000D01*
X147730000Y-34070000D02*
X145870000Y-34070000D01*
X147730000Y-33130000D02*
X147730000Y-34070000D01*
X145870000Y-33130000D02*
X147730000Y-33130000D01*
X145870000Y-34070000D02*
X145870000Y-33130000D01*
X88950000Y-115400000D02*
X88950000Y-109750000D01*
X80200000Y-115400000D02*
X88950000Y-115400000D01*
X80200000Y-109750000D02*
X80200000Y-115400000D01*
X88950000Y-109750000D02*
X80200000Y-109750000D01*
X88950000Y-121500000D02*
X88950000Y-115850000D01*
X80200000Y-121500000D02*
X88950000Y-121500000D01*
X80200000Y-115850000D02*
X80200000Y-121500000D01*
X88950000Y-115850000D02*
X80200000Y-115850000D01*
X88950000Y-109300000D02*
X88950000Y-103650000D01*
X80200000Y-109300000D02*
X88950000Y-109300000D01*
X80200000Y-103650000D02*
X80200000Y-109300000D01*
X88950000Y-103650000D02*
X80200000Y-103650000D01*
X159750000Y-44500000D02*
G75*
G03X159750000Y-44500000I-1250000J0D01*
G01*
X101750000Y-122500000D02*
G75*
G03X101750000Y-122500000I-1250000J0D01*
G01*
D12*
X84500000Y-92800000D02*
G75*
G02X84500000Y-93400000I0J-300000D01*
G01*
X83800000Y-92800000D02*
X84500000Y-92800000D01*
X84500000Y-93400000D02*
X83800000Y-93400000D01*
X83800000Y-93400000D02*
G75*
G02X83800000Y-92800000I0J300000D01*
G01*
X84500000Y-99800000D02*
G75*
G02X84500000Y-100400000I0J-300000D01*
G01*
X83800000Y-99800000D02*
X84500000Y-99800000D01*
X84500000Y-100400000D02*
X83800000Y-100400000D01*
X83800000Y-100400000D02*
G75*
G02X83800000Y-99800000I0J300000D01*
G01*
D13*
X149700000Y-63625000D02*
X153703000Y-63625000D01*
X153703000Y-63625000D02*
X153703000Y-66775000D01*
X153703000Y-66775000D02*
X149700000Y-66775000D01*
X149700000Y-66775000D02*
X149700000Y-63625000D01*
X95506810Y-38051106D02*
X95506810Y-36248530D01*
X95506810Y-36248530D02*
X95121343Y-36248530D01*
X95121343Y-36248530D02*
X95121343Y-36189732D01*
X95121343Y-36189732D02*
X80674059Y-36189730D01*
X80674059Y-36189730D02*
X80674059Y-43610022D01*
X80674059Y-43610022D02*
X95121342Y-43610023D01*
X95121342Y-43610023D02*
X95121342Y-43324722D01*
X95121342Y-43324722D02*
X95228907Y-43324722D01*
X95228907Y-43324722D02*
X95228907Y-41974912D01*
X95228907Y-41974912D02*
X95121342Y-41974912D01*
X95121342Y-41974912D02*
X95121343Y-38051106D01*
X95121343Y-38051106D02*
X95506810Y-38051106D01*
X83200000Y-54200000D02*
X83200000Y-44650000D01*
X83200000Y-44650000D02*
X90450000Y-44650000D01*
X90450000Y-44650000D02*
X90450000Y-54200000D01*
X90450000Y-54200000D02*
X83200000Y-54200000D01*
X94000000Y-100000000D02*
G75*
G03X94000000Y-100000000I-1000000J0D01*
G01*
X94000000Y-95800000D02*
G75*
G03X94000000Y-95800000I-1000000J0D01*
G01*
X139070000Y-56680000D02*
X139070000Y-53720000D01*
X140530000Y-56680000D02*
X139070000Y-56680000D01*
X140530000Y-53720000D02*
X140530000Y-56680000D01*
X139070000Y-53720000D02*
X140530000Y-53720000D01*
X140670000Y-56680000D02*
X140670000Y-53720000D01*
X142130000Y-56680000D02*
X140670000Y-56680000D01*
X142130000Y-53720000D02*
X142130000Y-56680000D01*
X140670000Y-53720000D02*
X142130000Y-53720000D01*
X143070000Y-56680000D02*
X143070000Y-53720000D01*
X144530000Y-56680000D02*
X143070000Y-56680000D01*
X144530000Y-53720000D02*
X144530000Y-56680000D01*
X143070000Y-53720000D02*
X144530000Y-53720000D01*
X144670000Y-56680000D02*
X144670000Y-53720000D01*
X146130000Y-56680000D02*
X144670000Y-56680000D01*
X146130000Y-53720000D02*
X146130000Y-56680000D01*
X144670000Y-53720000D02*
X146130000Y-53720000D01*
X128070000Y-64530000D02*
X129930000Y-64530000D01*
X128070000Y-65470000D02*
X128070000Y-64530000D01*
X129930000Y-65470000D02*
X128070000Y-65470000D01*
X129930000Y-64530000D02*
X129930000Y-65470000D01*
X139450000Y-69130000D02*
X139450000Y-59350000D01*
X132950000Y-69130000D02*
X139450000Y-69130000D01*
X132950000Y-59350000D02*
X132950000Y-69130000D01*
X139450000Y-59350000D02*
X132950000Y-59350000D01*
X93320000Y-107330000D02*
X95180000Y-107330000D01*
X93320000Y-108270000D02*
X93320000Y-107330000D01*
X95180000Y-108270000D02*
X93320000Y-108270000D01*
X95180000Y-107330000D02*
X95180000Y-108270000D01*
X91580000Y-105320000D02*
X91580000Y-108280000D01*
X90120000Y-105320000D02*
X91580000Y-105320000D01*
X90120000Y-108280000D02*
X90120000Y-105320000D01*
X91580000Y-108280000D02*
X90120000Y-108280000D01*
X94180000Y-114670000D02*
X92320000Y-114670000D01*
X94180000Y-113730000D02*
X94180000Y-114670000D01*
X92320000Y-113730000D02*
X94180000Y-113730000D01*
X92320000Y-114670000D02*
X92320000Y-113730000D01*
X137730000Y-33320000D02*
X137730000Y-36280000D01*
X136270000Y-33320000D02*
X137730000Y-33320000D01*
X136270000Y-36280000D02*
X136270000Y-33320000D01*
X137730000Y-36280000D02*
X136270000Y-36280000D01*
X139530000Y-33320000D02*
X139530000Y-36280000D01*
X138070000Y-33320000D02*
X139530000Y-33320000D01*
X138070000Y-36280000D02*
X138070000Y-33320000D01*
X139530000Y-36280000D02*
X138070000Y-36280000D01*
X130050000Y-65770000D02*
X130050000Y-69130000D01*
X128150000Y-65770000D02*
X130050000Y-65770000D01*
X128150000Y-69130000D02*
X128150000Y-65770000D01*
X130050000Y-69130000D02*
X128150000Y-69130000D01*
X127970000Y-67270000D02*
X127970000Y-69130000D01*
X127030000Y-67270000D02*
X127970000Y-67270000D01*
X127030000Y-69130000D02*
X127030000Y-67270000D01*
X127970000Y-69130000D02*
X127030000Y-69130000D01*
X95800000Y-112450000D02*
X95800000Y-113400000D01*
X97900000Y-112450000D02*
X95800000Y-112450000D01*
X97900000Y-113400000D02*
X97900000Y-112450000D01*
X95800000Y-113400000D02*
X95600000Y-113400000D01*
X98100000Y-113400000D02*
X97900000Y-113400000D01*
X98100000Y-113400000D02*
X99250000Y-114550000D01*
X95600000Y-113400000D02*
X94450000Y-114550000D01*
X99250000Y-114550000D02*
X99250000Y-118200000D01*
X94450000Y-114550000D02*
X94450000Y-118200000D01*
X95800000Y-118200000D02*
X94450000Y-118200000D01*
X95800000Y-119150000D02*
X95800000Y-118200000D01*
X97900000Y-119150000D02*
X95800000Y-119150000D01*
X97900000Y-118200000D02*
X97900000Y-119150000D01*
X99250000Y-118200000D02*
X97900000Y-118200000D01*
X93235000Y-112530000D02*
X95095000Y-112530000D01*
X93235000Y-113470000D02*
X93235000Y-112530000D01*
X95095000Y-113470000D02*
X93235000Y-113470000D01*
X95095000Y-112530000D02*
X95095000Y-113470000D01*
X98000000Y-107450000D02*
X95700000Y-107450000D01*
X95700000Y-112150000D02*
X95700000Y-107450000D01*
X98000000Y-112150000D02*
X95700000Y-112150000D01*
X98000000Y-107450000D02*
X98000000Y-112150000D01*
X127860000Y-54800000D02*
X127860000Y-36000000D01*
X133960000Y-54800000D02*
X127860000Y-54800000D01*
X133960000Y-36000000D02*
X133960000Y-54800000D01*
X127860000Y-36000000D02*
X133960000Y-36000000D01*
X147280000Y-64280000D02*
X147280000Y-62420000D01*
X148220000Y-64280000D02*
X147280000Y-64280000D01*
X148220000Y-62420000D02*
X148220000Y-64280000D01*
X147280000Y-62420000D02*
X148220000Y-62420000D01*
X136185000Y-36530000D02*
X138045000Y-36530000D01*
X136185000Y-37470000D02*
X136185000Y-36530000D01*
X138045000Y-37470000D02*
X136185000Y-37470000D01*
X138045000Y-36530000D02*
X138045000Y-37470000D01*
X91720000Y-108280000D02*
X91720000Y-105320000D01*
X93180000Y-108280000D02*
X91720000Y-108280000D01*
X93180000Y-105320000D02*
X93180000Y-108280000D01*
X91720000Y-105320000D02*
X93180000Y-105320000D01*
X132630000Y-61220000D02*
X132630000Y-64180000D01*
X131170000Y-61220000D02*
X132630000Y-61220000D01*
X131170000Y-64180000D02*
X131170000Y-61220000D01*
X132630000Y-64180000D02*
X131170000Y-64180000D01*
X130080000Y-61030000D02*
X127120000Y-61030000D01*
X130080000Y-59570000D02*
X130080000Y-61030000D01*
X127120000Y-59570000D02*
X130080000Y-59570000D01*
X127120000Y-61030000D02*
X127120000Y-59570000D01*
X128200000Y-61200000D02*
X128200000Y-64400000D01*
X131000000Y-61200000D02*
X131000000Y-64400000D01*
X131000000Y-61200000D02*
X128200000Y-61200000D01*
X128200000Y-64400000D02*
X131000000Y-64400000D01*
X95450000Y-108500000D02*
X95450000Y-112300000D01*
X95450000Y-112300000D02*
X91850000Y-112300000D01*
X91850000Y-112300000D02*
X91850000Y-108500000D01*
X91850000Y-108500000D02*
X95450000Y-108500000D01*
X96000000Y-56300000D02*
X76000000Y-56300000D01*
X76000000Y-56300000D02*
X76000000Y-88200000D01*
X76000000Y-88200000D02*
X96000000Y-88200000D01*
X96000000Y-88200000D02*
X96000000Y-56300000D01*
X146400000Y-57900000D02*
G75*
G03X146400000Y-57900000I-1000000J0D01*
G01*
X142400000Y-57900000D02*
G75*
G03X142400000Y-57900000I-1000000J0D01*
G01*
X89300000Y-91600000D02*
G75*
G03X89300000Y-91600000I-1000000J0D01*
G01*
X98250000Y-112080000D02*
X98250000Y-108720000D01*
X100150000Y-112080000D02*
X98250000Y-112080000D01*
X100150000Y-108720000D02*
X100150000Y-112080000D01*
X98250000Y-108720000D02*
X100150000Y-108720000D01*
X94000000Y-97900000D02*
G75*
G03X94000000Y-97900000I-1000000J0D01*
G01*
X116980000Y-34700000D02*
X109620000Y-34700000D01*
X124130000Y-39170000D02*
X116980000Y-39170000D01*
X124130000Y-117230000D02*
X124130000Y-39170000D01*
X102470000Y-117230000D02*
X102470000Y-39170000D01*
X102470000Y-39170000D02*
X109620000Y-39170000D01*
X124130000Y-117230000D02*
X116980000Y-117230000D01*
X102470000Y-117230000D02*
X109620000Y-117230000D01*
X116980000Y-39170000D02*
X116980000Y-34700000D01*
X109620000Y-34700000D02*
X109620000Y-39170000D01*
X109620000Y-121700000D02*
X109620000Y-117230000D01*
X116980000Y-121700000D02*
X109620000Y-121700000D01*
X116980000Y-117230000D02*
X116980000Y-121700000D01*
X138600000Y-49000000D02*
G75*
G03X138600000Y-49000000I-1000000J0D01*
G01*
X148800000Y-55400000D02*
G75*
G03X148800000Y-55400000I-1000000J0D01*
G01*
X145200000Y-34600000D02*
G75*
G03X145200000Y-34600000I-1000000J0D01*
G01*
X132600000Y-68300000D02*
G75*
G03X132600000Y-68300000I-1000000J0D01*
G01*
X83149820Y-104005299D02*
X82149820Y-104005299D01*
X82149820Y-103624346D01*
X82197440Y-103529108D01*
X82245059Y-103481489D01*
X82340297Y-103433870D01*
X82483154Y-103433870D01*
X82578392Y-103481489D01*
X82626011Y-103529108D01*
X82673630Y-103624346D01*
X82673630Y-104005299D01*
X83054582Y-102433870D02*
X83102201Y-102481489D01*
X83149820Y-102624346D01*
X83149820Y-102719584D01*
X83102201Y-102862441D01*
X83006963Y-102957680D01*
X82911725Y-103005299D01*
X82721249Y-103052918D01*
X82578392Y-103052918D01*
X82387916Y-103005299D01*
X82292678Y-102957680D01*
X82197440Y-102862441D01*
X82149820Y-102719584D01*
X82149820Y-102624346D01*
X82197440Y-102481489D01*
X82245059Y-102433870D01*
X82626011Y-101671965D02*
X82673630Y-101529108D01*
X82721249Y-101481489D01*
X82816487Y-101433870D01*
X82959344Y-101433870D01*
X83054582Y-101481489D01*
X83102201Y-101529108D01*
X83149820Y-101624346D01*
X83149820Y-102005299D01*
X82149820Y-102005299D01*
X82149820Y-101671965D01*
X82197440Y-101576727D01*
X82245059Y-101529108D01*
X82340297Y-101481489D01*
X82435535Y-101481489D01*
X82530773Y-101529108D01*
X82578392Y-101576727D01*
X82626011Y-101671965D01*
X82626011Y-102005299D01*
X81912440Y-101243394D02*
X81912440Y-100338632D01*
X82626011Y-101005299D02*
X82626011Y-100671965D01*
X83149820Y-100529108D02*
X83149820Y-101005299D01*
X82149820Y-101005299D01*
X82149820Y-100529108D01*
X81912440Y-100338632D02*
X81912440Y-99433870D01*
X83149820Y-99671965D02*
X82149820Y-99671965D01*
X83102201Y-99671965D02*
X83149820Y-99767203D01*
X83149820Y-99957680D01*
X83102201Y-100052918D01*
X83054582Y-100100537D01*
X82959344Y-100148156D01*
X82673630Y-100148156D01*
X82578392Y-100100537D01*
X82530773Y-100052918D01*
X82483154Y-99957680D01*
X82483154Y-99767203D01*
X82530773Y-99671965D01*
X81912440Y-99433870D02*
X81912440Y-98529108D01*
X82483154Y-98767203D02*
X83292678Y-98767203D01*
X83387916Y-98814822D01*
X83435535Y-98862441D01*
X83483154Y-98957680D01*
X83483154Y-99100537D01*
X83435535Y-99195775D01*
X83102201Y-98767203D02*
X83149820Y-98862441D01*
X83149820Y-99052918D01*
X83102201Y-99148156D01*
X83054582Y-99195775D01*
X82959344Y-99243394D01*
X82673630Y-99243394D01*
X82578392Y-99195775D01*
X82530773Y-99148156D01*
X82483154Y-99052918D01*
X82483154Y-98862441D01*
X82530773Y-98767203D01*
X81912440Y-98529108D02*
X81912440Y-97671965D01*
X83102201Y-97910060D02*
X83149820Y-98005299D01*
X83149820Y-98195775D01*
X83102201Y-98291013D01*
X83006963Y-98338632D01*
X82626011Y-98338632D01*
X82530773Y-98291013D01*
X82483154Y-98195775D01*
X82483154Y-98005299D01*
X82530773Y-97910060D01*
X82626011Y-97862441D01*
X82721249Y-97862441D01*
X82816487Y-98338632D01*
M02*
