M48
; DRILL file {KiCad 5.1.5+dfsg1-2build2} date Wed 29 Sep 2021 14:40:40 BST
; FORMAT={-:-/ absolute / inch / decimal}
; #@! TF.CreationDate,2021-09-29T14:40:40+01:00
; #@! TF.GenerationSoftware,Kicad,Pcbnew,5.1.5+dfsg1-2build2
; #@! TF.FileFunction,Plated,1,4,PTH
FMAT,2
INCH
T1C0.0118
T2C0.0157
T3C0.0197
T4C0.0236
T5C0.0335
T6C0.0354
T7C0.0394
T8C0.0472
T9C0.0512
T10C0.0787
T11C0.1260
%
G90
G05
T1
X3.4606Y-3.0906
X3.4646Y-2.9724
X3.4843Y-2.752
X3.563Y-3.8031
X3.5669Y-4.1181
X3.5748Y-3.9646
X3.6004Y-3.8051
X3.6732Y-4.5472
X3.687Y-4.5738
X3.689Y-4.6063
X3.6929Y-4.2047
X3.7028Y-4.5463
X3.7244Y-3.685
X3.7598Y-2.1457
X3.7795Y-2.7037
X3.7795Y-2.811
X3.7795Y-2.9213
X3.7913Y-3.685
X3.815Y-4.8228
X3.8307Y-2.2441
X3.9331Y-2.9094
X3.9449Y-2.7008
X3.9803Y-4.0591
X3.9803Y-4.1614
X4.0079Y-2.1575
X4.0394Y-2.2283
X4.0472Y-1.3858
X4.0748Y-4.3661
X4.0906Y-4.3268
X4.0984Y-3.126
X4.1181Y-2.6457
X4.1407Y-4.2874
X4.1417Y-2.7087
X4.1417Y-4.185
X4.1427Y-4.1535
X4.1654Y-3.8425
X4.1654Y-1.4961
X4.1769Y-3.0357
X4.1772Y-3.5157
X4.1811Y-3.1732
X4.185Y-3.563
X4.1998Y-2.9724
X4.2008Y-2.874
X4.2126Y-4.4016
X4.2323Y-1.4764
X4.248Y-3.5591
X4.2874Y-1.5709
X4.2874Y-1.6457
X4.2874Y-3.0315
X4.3031Y-1.6929
X4.3031Y-1.7362
X4.3031Y-3.4843
X4.3081Y-3.2283
X4.3081Y-3.2795
X4.315Y-2.9488
X4.3228Y-3.9224
X4.3425Y-3.063
X4.3543Y-3.4173
X4.4016Y-1.937
X4.4016Y-2.6378
X4.4016Y-3.748
X4.4291Y-1.8976
X4.4331Y-2.6772
X4.437Y-3.4724
X4.4882Y-2.1614
X4.4882Y-2.6772
X4.4882Y-2.7244
X4.4921Y-3.689
X4.5118Y-3.4055
X4.5197Y-2.685
X4.5236Y-3.6102
X4.5273Y-2.7247
X4.5354Y-3.7126
X4.5433Y-3.1693
X4.5453Y-2.9695
X4.5551Y-2.685
X4.5554Y-2.1381
X4.5827Y-3.2323
X4.5925Y-3.4368
X4.6024Y-2.3031
X4.6102Y-3.4094
X4.6339Y-2.4882
X4.6496Y-3.2165
X4.6497Y-4.311
X4.6535Y-1.4803
X4.6811Y-4.3268
X4.6811Y-4.7008
X4.6821Y-4.4331
X4.6841Y-4.3848
X4.685Y-4.6417
X4.685Y-3.1457
X4.689Y-1.6378
X4.7008Y-2.4882
X4.7047Y-2.1457
X4.7087Y-2.9764
X4.7638Y-2.9173
X4.8071Y-1.4331
X4.811Y-2.7362
X4.815Y-4.4764
X4.8228Y-2.3701
X4.8307Y-4.6417
X4.8307Y-4.7126
X4.8307Y-4.7638
X4.8425Y-2.7362
X4.8425Y-4.3858
X4.8465Y-1.9646
X4.8622Y-3.9291
X4.9094Y-1.685
X4.9134Y-3.4961
X4.9134Y-3.5827
X4.9252Y-4.6417
X4.9409Y-1.7795
X4.9449Y-3.2953
X4.9488Y-4.7126
X4.9488Y-4.7638
X4.9567Y-3.4685
X4.9724Y-2.622
X4.9882Y-3.2677
X4.9882Y-3.9488
X5.0079Y-3.2008
X5.0118Y-3.1614
X5.012Y-3.102
X5.0394Y-3.1299
X5.1063Y-3.4016
X5.1417Y-2.374
X5.1693Y-4.4724
X5.1811Y-2.9882
X5.187Y-4.561
X5.187Y-4.5955
X5.1929Y-3.6575
X5.2047Y-3.1693
X5.2362Y-3.4213
X5.2638Y-3.6575
X5.2795Y-2.2756
X5.2992Y-3.9764
X5.3189Y-2.2598
X5.3307Y-2.1181
X5.3465Y-1.3583
X5.3465Y-1.4567
X5.3583Y-2.0512
X5.3661Y-2.3425
X5.378Y-1.8543
X5.3819Y-1.6654
X5.3937Y-2.3031
X5.4094Y-3.6575
X5.4331Y-3.2205
X5.437Y-2.2441
X5.4488Y-2.9961
X5.4882Y-4.0827
X5.4961Y-3.8268
X5.5906Y-3.4449
X5.6142Y-1.5551
X5.6811Y-2.8661
X5.6929Y-2.7047
X5.748Y-1.9449
X5.748Y-2.6063
X5.8071Y-3.2559
X5.8169Y-3.1594
X5.8189Y-2.4409
X5.8386Y-3.5866
X5.8425Y-2.8268
X5.8476Y-4.5736
X5.8504Y-2.9528
X5.8622Y-2.4409
X5.8819Y-1.378
X5.8858Y-3.7559
X5.935Y-4.0295
X5.9409Y-1.3071
X5.9488Y-3.7283
X5.9567Y-2.7756
X5.9724Y-2.122
X5.9764Y-1.8661
X6.0079Y-4.0276
X6.0197Y-1.3898
X6.0197Y-2.7756
X6.0197Y-2.8228
X6.0276Y-1.5827
X6.0354Y-3.2835
X6.0709Y-1.7362
X6.0748Y-2.5669
X6.0866Y-2.8228
X6.1102Y-4.6752
X6.1299Y-2.8228
X6.1378Y-3.0315
X6.1811Y-4.6752
X6.189Y-3.252
X6.2205Y-3.5866
X4.5098Y-1.8248
X4.5098Y-1.8661
X4.5098Y-1.9075
X4.5512Y-1.8248
X4.5512Y-1.8661
X4.5512Y-1.9075
X4.5925Y-1.8248
X4.5925Y-1.8661
X4.5925Y-1.9075
T2
X3.6732Y-4.748
X3.815Y-4.1772
X4.0354Y-3.9094
X4.0709Y-3.622
X4.0866Y-3.7008
X4.1614Y-4.3346
X4.1617Y-3.8037
X4.2087Y-1.3189
X4.2323Y-4.5827
X4.2402Y-3.6102
X4.248Y-4.2835
X4.2677Y-4.5276
X4.2874Y-1.3228
X4.3386Y-3.7441
X4.3819Y-3.4685
X4.3819Y-4.1772
X4.3898Y-3.6457
X4.3937Y-4.0197
X4.4213Y-4.8661
X4.4409Y-4.122
X4.5709Y-4.3937
X4.6063Y-4.4291
X5.5984Y-3.626
X5.7165Y-3.9646
X5.7205Y-3.8661
X6.0354Y-3.6575
T3
X3.3268Y-2.4213
X3.3268Y-2.9724
X3.3268Y-3.5236
X3.3268Y-4.0748
X3.3268Y-4.5472
X3.3661Y-1.2008
X3.5984Y-4.2992
X3.6417Y-4.9016
X3.7244Y-1.8268
X3.7559Y-4.189
X3.7874Y-1.5433
X3.8661Y-4.7441
X3.874Y-2.5394
X3.878Y-1.2008
X3.878Y-3.248
X3.8976Y-4.1181
X3.9715Y-4.5955
X3.9961Y-3.5197
X4.0236Y-2.3465
X4.0276Y-4.5118
X4.0472Y-4.6211
X4.1024Y-2.1142
X4.1102Y-3.9567
X4.189Y-3.6929
X4.1929Y-1.6614
X4.2323Y-4.9016
X4.248Y-3.9961
X4.2874Y-2.6417
X4.3898Y-1.2008
X4.4055Y-2.4331
X4.5591Y-2.2756
X4.6772Y-2.4055
X4.7165Y-3.9409
X4.8425Y-2.8228
X4.9252Y-2.8622
X4.9409Y-4.1693
X4.9488Y-3.6811
X4.9764Y-1.4094
X4.9803Y-4.437
X4.9843Y-3.5118
X5.0197Y-2.5591
X5.0197Y-4.937
X5.0315Y-4.3228
X5.0591Y-3.6535
X5.0669Y-1.2362
X5.1378Y-3.5118
X5.1732Y-2.9173
X5.2165Y-4.2087
X5.2835Y-2.1417
X5.3268Y-2.3858
X5.3386Y-3.6654
X5.4409Y-4.3819
X5.4606Y-3.4331
X5.5472Y-3.2598
X5.5669Y-2.7362
X5.5748Y-4.7126
X5.622Y-1.1969
X5.6417Y-2.2795
X5.811Y-3.6811
X6.0433Y-1.2008
X6.1457Y-3.7047
X6.2795Y-1.4764
X6.2795Y-2.7756
X6.2795Y-3.9567
X6.2795Y-4.5472
X6.2795Y-4.9016
X6.2835Y-3.5079
X3.6614Y-3.937
X3.6614Y-3.8543
X5.5669Y-2.2795
X3.4764Y-3.6063
X5.6772Y-1.3622
X3.6614Y-3.7717
X5.7984Y-2.6516
X5.7244Y-2.2795
X5.872Y-2.7303
X5.0709Y-2.8346
X5.1201Y-2.8346
X5.1693Y-2.8346
X5.2185Y-2.8346
X5.2677Y-2.8346
X5.3169Y-2.8346
X5.3661Y-2.8346
X5.4154Y-2.8346
X5.4173Y-1.9291
X5.0Y-2.4528
X5.8189Y-2.1811
X5.948Y-2.4469
X5.1811Y-2.689
T5
X3.4193Y-3.7047
X3.4193Y-3.9016
T6
X3.4528Y-4.622
X3.4528Y-4.722
X3.4528Y-4.3819
X3.4528Y-4.4819
X3.4528Y-4.1417
X3.4528Y-4.2417
T7
X3.3858Y-1.8583
X3.3858Y-2.0354
X5.1047Y-1.4882
X5.1047Y-1.5882
X5.1047Y-1.6882
X5.1047Y-1.7882
X5.1047Y-1.8882
X5.1047Y-1.9882
X5.1047Y-2.0882
X5.2047Y-1.4882
X5.2047Y-1.5882
X5.2047Y-1.6882
X5.2047Y-1.7882
X5.2047Y-1.8882
X5.2047Y-1.9882
X5.2047Y-2.0882
X3.5752Y-2.6813
X3.5752Y-2.7904
X3.5752Y-2.8994
X3.5752Y-3.0085
X3.687Y-2.6268
X3.687Y-2.7358
X3.687Y-2.8449
X3.687Y-2.9539
X3.687Y-3.063
T8
X5.3622Y-2.4646
X5.3622Y-2.6646
T9
X3.4839Y-1.8087
X3.4839Y-2.0846
T10
X6.2874Y-2.2638
T11
X3.6311Y-2.3528
X3.6311Y-3.337
T4
G00X3.2992Y-3.6654
M15
G01X3.3268Y-3.6654
M16
G05
G00X3.2992Y-3.9409
M15
G01X3.3268Y-3.9409
M16
G05
T7
G00X3.5138Y-1.6299
M15
G01X3.4941Y-1.6299
M16
G05
G00X3.7224Y-1.4626
M15
G01X3.7028Y-1.4626
M16
G05
G00X3.7224Y-1.6791
M15
G01X3.7028Y-1.6791
M16
G05
T0
M30
