G04 #@! TF.GenerationSoftware,KiCad,Pcbnew,5.1.5+dfsg1-2build2*
G04 #@! TF.CreationDate,2021-09-29T14:40:33+01:00*
G04 #@! TF.ProjectId,OSM_env01,4f534d5f-656e-4763-9031-2e6b69636164,B*
G04 #@! TF.SameCoordinates,Original*
G04 #@! TF.FileFunction,Other,User*
%FSLAX46Y46*%
G04 Gerber Fmt 4.6, Leading zero omitted, Abs format (unit mm)*
G04 Created by KiCad (PCBNEW 5.1.5+dfsg1-2build2) date 2021-09-29 14:40:33*
%MOMM*%
%LPD*%
G04 APERTURE LIST*
%ADD10C,0.150000*%
%ADD11C,0.254000*%
%ADD12C,0.050000*%
%ADD13C,0.100000*%
G04 APERTURE END LIST*
D10*
X155600000Y-113200000D02*
X155600000Y-105200000D01*
X153600000Y-105200000D02*
X155600000Y-105200000D01*
X153600000Y-113200000D02*
X153600000Y-112200000D01*
X153600000Y-113200000D02*
X155600000Y-113200000D01*
X145400000Y-113200000D02*
X145400000Y-105200000D01*
X153600000Y-106200000D02*
X153600000Y-105200000D01*
X149600000Y-106200000D02*
X149600000Y-105200000D01*
X149600000Y-113200000D02*
X145400000Y-113200000D01*
X149600000Y-112200000D02*
X149600000Y-113200000D01*
X147400000Y-112200000D02*
X149600000Y-112200000D01*
X147400000Y-106200000D02*
X149600000Y-106200000D01*
X146400000Y-106200000D02*
X147400000Y-106200000D01*
X146400000Y-112200000D02*
X146400000Y-106200000D01*
X147400000Y-112200000D02*
X146400000Y-112200000D01*
X149600000Y-105200000D02*
X145400000Y-105200000D01*
X153600000Y-112200000D02*
X154600000Y-112200000D01*
X153600000Y-106200000D02*
X154600000Y-106200000D01*
X154600000Y-112200000D02*
X154600000Y-106200000D01*
D11*
X82700000Y-108300000D02*
X162700000Y-108300000D01*
X82710000Y-52000000D02*
X162710000Y-52000000D01*
X82800000Y-78200000D02*
X162800000Y-78200000D01*
X82800000Y-123200000D02*
X162800000Y-123200000D01*
X87700000Y-128200000D02*
X87700000Y-28200000D01*
X157700000Y-128200000D02*
X157700000Y-28200000D01*
X82700000Y-33200000D02*
X162700000Y-33200000D01*
X162700000Y-128200000D02*
X162700000Y-28200000D01*
X82700000Y-128200000D02*
X82700000Y-28200000D01*
X82700000Y-28200000D02*
X162700000Y-28200000D01*
X82700000Y-128200000D02*
X162700000Y-128200000D01*
D12*
X96470000Y-68130000D02*
X96470000Y-66270000D01*
X95530000Y-68130000D02*
X96470000Y-68130000D01*
X95530000Y-66270000D02*
X95530000Y-68130000D01*
X96470000Y-66270000D02*
X95530000Y-66270000D01*
X95530000Y-69070000D02*
X95530000Y-70930000D01*
X96470000Y-69070000D02*
X95530000Y-69070000D01*
X96470000Y-70930000D02*
X96470000Y-69070000D01*
X95530000Y-70930000D02*
X96470000Y-70930000D01*
X88030000Y-73270000D02*
X88030000Y-75130000D01*
X88970000Y-73270000D02*
X88030000Y-73270000D01*
X88970000Y-75130000D02*
X88970000Y-73270000D01*
X88030000Y-75130000D02*
X88970000Y-75130000D01*
X122300000Y-94800000D02*
G75*
G03X122300000Y-94800000I-1000000J0D01*
G01*
X140750000Y-74550000D02*
X144650000Y-74550000D01*
X144650000Y-74562230D02*
X144650000Y-81850000D01*
X140750000Y-81850000D02*
X144650000Y-81850000D01*
X140750000Y-81850000D02*
X140750000Y-74561350D01*
X140750000Y-74550000D02*
X140750000Y-74561350D01*
X115330000Y-42470000D02*
X115330000Y-44330000D01*
X116270000Y-42470000D02*
X115330000Y-42470000D01*
X116270000Y-44330000D02*
X116270000Y-42470000D01*
X115330000Y-44330000D02*
X116270000Y-44330000D01*
X109870000Y-43720000D02*
X109870000Y-46680000D01*
X111330000Y-43720000D02*
X109870000Y-43720000D01*
X111330000Y-46680000D02*
X111330000Y-43720000D01*
X109870000Y-46680000D02*
X111330000Y-46680000D01*
X111730000Y-44870000D02*
X111730000Y-46730000D01*
X112670000Y-44870000D02*
X111730000Y-44870000D01*
X112670000Y-46730000D02*
X112670000Y-44870000D01*
X111730000Y-46730000D02*
X112670000Y-46730000D01*
X88030000Y-67670000D02*
X88030000Y-69530000D01*
X88970000Y-67670000D02*
X88030000Y-67670000D01*
X88970000Y-69530000D02*
X88970000Y-67670000D01*
X88030000Y-69530000D02*
X88970000Y-69530000D01*
X95530000Y-71870000D02*
X95530000Y-73730000D01*
X96470000Y-71870000D02*
X95530000Y-71870000D01*
X96470000Y-73730000D02*
X96470000Y-71870000D01*
X95530000Y-73730000D02*
X96470000Y-73730000D01*
X139870000Y-103280000D02*
X139870000Y-101420000D01*
X138930000Y-103280000D02*
X139870000Y-103280000D01*
X138930000Y-101420000D02*
X138930000Y-103280000D01*
X139870000Y-101420000D02*
X138930000Y-101420000D01*
X139230000Y-43370000D02*
X139230000Y-45230000D01*
X140170000Y-43370000D02*
X139230000Y-43370000D01*
X140170000Y-45230000D02*
X140170000Y-43370000D01*
X139230000Y-45230000D02*
X140170000Y-45230000D01*
X148395000Y-109555000D02*
X148395000Y-107695000D01*
X147455000Y-109555000D02*
X148395000Y-109555000D01*
X147455000Y-107695000D02*
X147455000Y-109555000D01*
X148395000Y-107695000D02*
X147455000Y-107695000D01*
X122570000Y-38730000D02*
X122570000Y-36870000D01*
X121630000Y-38730000D02*
X122570000Y-38730000D01*
X121630000Y-36870000D02*
X121630000Y-38730000D01*
X122570000Y-36870000D02*
X121630000Y-36870000D01*
X88030000Y-76070000D02*
X88030000Y-77930000D01*
X88970000Y-76070000D02*
X88030000Y-76070000D01*
X88970000Y-77930000D02*
X88970000Y-76070000D01*
X88030000Y-77930000D02*
X88970000Y-77930000D01*
X115450000Y-106250000D02*
X117750000Y-106250000D01*
X117750000Y-110950000D02*
X117750000Y-106250000D01*
X115450000Y-110950000D02*
X117750000Y-110950000D01*
X115450000Y-106250000D02*
X115450000Y-110950000D01*
X147850000Y-90050000D02*
X147850000Y-86550000D01*
X144450000Y-90050000D02*
X147850000Y-90050000D01*
X144450000Y-86550000D02*
X144450000Y-90050000D01*
X147850000Y-86550000D02*
X144450000Y-86550000D01*
X157650000Y-90050000D02*
X157650000Y-86550000D01*
X154250000Y-90050000D02*
X157650000Y-90050000D01*
X154250000Y-86550000D02*
X154250000Y-90050000D01*
X157650000Y-86550000D02*
X154250000Y-86550000D01*
X112950000Y-119050000D02*
X112950000Y-121350000D01*
X108250000Y-121350000D02*
X112950000Y-121350000D01*
X108250000Y-119050000D02*
X108250000Y-121350000D01*
X112950000Y-119050000D02*
X108250000Y-119050000D01*
X123450000Y-122650000D02*
X129350000Y-122650000D01*
X123450000Y-118750000D02*
X123450000Y-122650000D01*
X129350000Y-118750000D02*
X123450000Y-118750000D01*
X129350000Y-122650000D02*
X129350000Y-118750000D01*
X108300000Y-118700000D02*
X108300000Y-111300000D01*
X113700000Y-118700000D02*
X108300000Y-118700000D01*
X113700000Y-111300000D02*
X113700000Y-118700000D01*
X108300000Y-111300000D02*
X113700000Y-111300000D01*
X125130000Y-113980000D02*
X125130000Y-111020000D01*
X123670000Y-113980000D02*
X125130000Y-113980000D01*
X123670000Y-111020000D02*
X123670000Y-113980000D01*
X125130000Y-111020000D02*
X123670000Y-111020000D01*
X125130000Y-117180000D02*
X125130000Y-114220000D01*
X123670000Y-117180000D02*
X125130000Y-117180000D01*
X123670000Y-114220000D02*
X123670000Y-117180000D01*
X125130000Y-114220000D02*
X123670000Y-114220000D01*
X115270000Y-37420000D02*
X115270000Y-40380000D01*
X116730000Y-37420000D02*
X115270000Y-37420000D01*
X116730000Y-40380000D02*
X116730000Y-37420000D01*
X115270000Y-40380000D02*
X116730000Y-40380000D01*
X118330000Y-53380000D02*
X118330000Y-50420000D01*
X116870000Y-53380000D02*
X118330000Y-53380000D01*
X116870000Y-50420000D02*
X116870000Y-53380000D01*
X118330000Y-50420000D02*
X116870000Y-50420000D01*
X116530000Y-53367500D02*
X116530000Y-50407500D01*
X115070000Y-53367500D02*
X116530000Y-53367500D01*
X115070000Y-50407500D02*
X115070000Y-53367500D01*
X116530000Y-50407500D02*
X115070000Y-50407500D01*
X95770000Y-107920000D02*
X95770000Y-110880000D01*
X97230000Y-107920000D02*
X95770000Y-107920000D01*
X97230000Y-110880000D02*
X97230000Y-107920000D01*
X95770000Y-110880000D02*
X97230000Y-110880000D01*
X110070000Y-107920000D02*
X110070000Y-110880000D01*
X111530000Y-107920000D02*
X110070000Y-107920000D01*
X111530000Y-110880000D02*
X111530000Y-107920000D01*
X110070000Y-110880000D02*
X111530000Y-110880000D01*
X108270000Y-107920000D02*
X108270000Y-110880000D01*
X109730000Y-107920000D02*
X108270000Y-107920000D01*
X109730000Y-110880000D02*
X109730000Y-107920000D01*
X108270000Y-110880000D02*
X109730000Y-110880000D01*
X110880000Y-96110000D02*
X110880000Y-99070000D01*
X112340000Y-96110000D02*
X110880000Y-96110000D01*
X112340000Y-99070000D02*
X112340000Y-96110000D01*
X110880000Y-99070000D02*
X112340000Y-99070000D01*
X110540000Y-99070000D02*
X110540000Y-96110000D01*
X109080000Y-99070000D02*
X110540000Y-99070000D01*
X109080000Y-96110000D02*
X109080000Y-99070000D01*
X110540000Y-96110000D02*
X109080000Y-96110000D01*
X118680000Y-113170000D02*
X115720000Y-113170000D01*
X118680000Y-114630000D02*
X118680000Y-113170000D01*
X115720000Y-114630000D02*
X118680000Y-114630000D01*
X115720000Y-113170000D02*
X115720000Y-114630000D01*
X117280000Y-116870000D02*
X114320000Y-116870000D01*
X117280000Y-118330000D02*
X117280000Y-116870000D01*
X114320000Y-118330000D02*
X117280000Y-118330000D01*
X114320000Y-116870000D02*
X114320000Y-118330000D01*
X117280000Y-118670000D02*
X114320000Y-118670000D01*
X117280000Y-120130000D02*
X117280000Y-118670000D01*
X114320000Y-120130000D02*
X117280000Y-120130000D01*
X114320000Y-118670000D02*
X114320000Y-120130000D01*
X133920000Y-104880000D02*
X136880000Y-104880000D01*
X133920000Y-103420000D02*
X133920000Y-104880000D01*
X136880000Y-103420000D02*
X133920000Y-103420000D01*
X136880000Y-104880000D02*
X136880000Y-103420000D01*
X142130000Y-99230000D02*
X142130000Y-96270000D01*
X140670000Y-99230000D02*
X142130000Y-99230000D01*
X140670000Y-96270000D02*
X140670000Y-99230000D01*
X142130000Y-96270000D02*
X140670000Y-96270000D01*
X140330000Y-100830000D02*
X140330000Y-97870000D01*
X138870000Y-100830000D02*
X140330000Y-100830000D01*
X138870000Y-97870000D02*
X138870000Y-100830000D01*
X140330000Y-97870000D02*
X138870000Y-97870000D01*
X142130000Y-102630000D02*
X142130000Y-99670000D01*
X140670000Y-102630000D02*
X142130000Y-102630000D01*
X140670000Y-99670000D02*
X140670000Y-102630000D01*
X142130000Y-99670000D02*
X140670000Y-99670000D01*
X116870000Y-41370000D02*
X116870000Y-44330000D01*
X118330000Y-41370000D02*
X116870000Y-41370000D01*
X118330000Y-44330000D02*
X118330000Y-41370000D01*
X116870000Y-44330000D02*
X118330000Y-44330000D01*
X121680000Y-42870000D02*
X118720000Y-42870000D01*
X121680000Y-44330000D02*
X121680000Y-42870000D01*
X118720000Y-44330000D02*
X121680000Y-44330000D01*
X118720000Y-42870000D02*
X118720000Y-44330000D01*
X121680000Y-44870000D02*
X118720000Y-44870000D01*
X121680000Y-46330000D02*
X121680000Y-44870000D01*
X118720000Y-46330000D02*
X121680000Y-46330000D01*
X118720000Y-44870000D02*
X118720000Y-46330000D01*
X121680000Y-46670000D02*
X118720000Y-46670000D01*
X121680000Y-48130000D02*
X121680000Y-46670000D01*
X118720000Y-48130000D02*
X121680000Y-48130000D01*
X118720000Y-46670000D02*
X118720000Y-48130000D01*
X142180000Y-38770000D02*
X139220000Y-38770000D01*
X142180000Y-40230000D02*
X142180000Y-38770000D01*
X139220000Y-40230000D02*
X142180000Y-40230000D01*
X139220000Y-38770000D02*
X139220000Y-40230000D01*
X140620000Y-48730000D02*
X143580000Y-48730000D01*
X140620000Y-47270000D02*
X140620000Y-48730000D01*
X143580000Y-47270000D02*
X140620000Y-47270000D01*
X143580000Y-48730000D02*
X143580000Y-47270000D01*
X140180000Y-40570000D02*
X137220000Y-40570000D01*
X140180000Y-42030000D02*
X140180000Y-40570000D01*
X137220000Y-42030000D02*
X140180000Y-42030000D01*
X137220000Y-40570000D02*
X137220000Y-42030000D01*
X148420000Y-44030000D02*
X151380000Y-44030000D01*
X148420000Y-42570000D02*
X148420000Y-44030000D01*
X151380000Y-42570000D02*
X148420000Y-42570000D01*
X151380000Y-44030000D02*
X151380000Y-42570000D01*
X144870000Y-91830000D02*
X147830000Y-91830000D01*
X144870000Y-90370000D02*
X144870000Y-91830000D01*
X147830000Y-90370000D02*
X144870000Y-90370000D01*
X147830000Y-91830000D02*
X147830000Y-90370000D01*
X147830000Y-84770000D02*
X144870000Y-84770000D01*
X147830000Y-86230000D02*
X147830000Y-84770000D01*
X144870000Y-86230000D02*
X147830000Y-86230000D01*
X144870000Y-84770000D02*
X144870000Y-86230000D01*
X154670000Y-91830000D02*
X157630000Y-91830000D01*
X154670000Y-90370000D02*
X154670000Y-91830000D01*
X157630000Y-90370000D02*
X154670000Y-90370000D01*
X157630000Y-91830000D02*
X157630000Y-90370000D01*
X157630000Y-84770000D02*
X154670000Y-84770000D01*
X157630000Y-86230000D02*
X157630000Y-84770000D01*
X154670000Y-86230000D02*
X157630000Y-86230000D01*
X154670000Y-84770000D02*
X154670000Y-86230000D01*
X156270000Y-115270000D02*
X156270000Y-118230000D01*
X157730000Y-115270000D02*
X156270000Y-115270000D01*
X157730000Y-118230000D02*
X157730000Y-115270000D01*
X156270000Y-118230000D02*
X157730000Y-118230000D01*
X155930000Y-118230000D02*
X155930000Y-115270000D01*
X154470000Y-118230000D02*
X155930000Y-118230000D01*
X154470000Y-115270000D02*
X154470000Y-118230000D01*
X155930000Y-115270000D02*
X154470000Y-115270000D01*
X144080000Y-89780000D02*
X144080000Y-86820000D01*
X142620000Y-89780000D02*
X144080000Y-89780000D01*
X142620000Y-86820000D02*
X142620000Y-89780000D01*
X144080000Y-86820000D02*
X142620000Y-86820000D01*
X153880000Y-89780000D02*
X153880000Y-86820000D01*
X152420000Y-89780000D02*
X153880000Y-89780000D01*
X152420000Y-86820000D02*
X152420000Y-89780000D01*
X153880000Y-86820000D02*
X152420000Y-86820000D01*
X100720000Y-41320000D02*
X105280000Y-41320000D01*
X100720000Y-39080000D02*
X100720000Y-41320000D01*
X105280000Y-39080000D02*
X100720000Y-39080000D01*
X105280000Y-41320000D02*
X105280000Y-39080000D01*
X103870000Y-35720000D02*
X103870000Y-38680000D01*
X105330000Y-35720000D02*
X103870000Y-35720000D01*
X105330000Y-38680000D02*
X105330000Y-35720000D01*
X103870000Y-38680000D02*
X105330000Y-38680000D01*
X102070000Y-35720000D02*
X102070000Y-38680000D01*
X103530000Y-35720000D02*
X102070000Y-35720000D01*
X103530000Y-38680000D02*
X103530000Y-35720000D01*
X102070000Y-38680000D02*
X103530000Y-38680000D01*
X114680000Y-109470000D02*
X111720000Y-109470000D01*
X114680000Y-110930000D02*
X114680000Y-109470000D01*
X111720000Y-110930000D02*
X114680000Y-110930000D01*
X111720000Y-109470000D02*
X111720000Y-110930000D01*
X110020000Y-123130000D02*
X112980000Y-123130000D01*
X110020000Y-121670000D02*
X110020000Y-123130000D01*
X112980000Y-121670000D02*
X110020000Y-121670000D01*
X112980000Y-123130000D02*
X112980000Y-121670000D01*
X125500000Y-114700000D02*
X125500000Y-118300000D01*
X129300000Y-114700000D02*
X125500000Y-114700000D01*
X129300000Y-118300000D02*
X129300000Y-114700000D01*
X125500000Y-118300000D02*
X129300000Y-118300000D01*
X138500000Y-102050000D02*
X131100000Y-102050000D01*
X138500000Y-96650000D02*
X138500000Y-102050000D01*
X131100000Y-96650000D02*
X138500000Y-96650000D01*
X131100000Y-102050000D02*
X131100000Y-96650000D01*
X119700000Y-42200000D02*
X119700000Y-39000000D01*
X122500000Y-42200000D02*
X122500000Y-39000000D01*
X122500000Y-42200000D02*
X119700000Y-42200000D01*
X119700000Y-39000000D02*
X122500000Y-39000000D01*
X109070000Y-105670000D02*
X110930000Y-105670000D01*
X109070000Y-104730000D02*
X109070000Y-105670000D01*
X110930000Y-104730000D02*
X109070000Y-104730000D01*
X110930000Y-105670000D02*
X110930000Y-104730000D01*
X113570000Y-70570000D02*
X115430000Y-70570000D01*
X113570000Y-69630000D02*
X113570000Y-70570000D01*
X115430000Y-69630000D02*
X113570000Y-69630000D01*
X115430000Y-70570000D02*
X115430000Y-69630000D01*
X113980000Y-84930000D02*
X112120000Y-84930000D01*
X113980000Y-85870000D02*
X113980000Y-84930000D01*
X112120000Y-85870000D02*
X113980000Y-85870000D01*
X112120000Y-84930000D02*
X112120000Y-85870000D01*
X125130000Y-81470000D02*
X125130000Y-83330000D01*
X126070000Y-81470000D02*
X125130000Y-81470000D01*
X126070000Y-83330000D02*
X126070000Y-81470000D01*
X125130000Y-83330000D02*
X126070000Y-83330000D01*
X121270000Y-71070000D02*
X123130000Y-71070000D01*
X121270000Y-70130000D02*
X121270000Y-71070000D01*
X123130000Y-70130000D02*
X121270000Y-70130000D01*
X123130000Y-71070000D02*
X123130000Y-70130000D01*
X137670000Y-76620000D02*
X137670000Y-79580000D01*
X139130000Y-76620000D02*
X137670000Y-76620000D01*
X139130000Y-79580000D02*
X139130000Y-76620000D01*
X137670000Y-79580000D02*
X139130000Y-79580000D01*
X139530000Y-77370000D02*
X139530000Y-79230000D01*
X140470000Y-77370000D02*
X139530000Y-77370000D01*
X140470000Y-79230000D02*
X140470000Y-77370000D01*
X139530000Y-79230000D02*
X140470000Y-79230000D01*
X107470000Y-79070000D02*
X109330000Y-79070000D01*
X107470000Y-78130000D02*
X107470000Y-79070000D01*
X109330000Y-78130000D02*
X107470000Y-78130000D01*
X109330000Y-79070000D02*
X109330000Y-78130000D01*
X159750000Y-66500000D02*
G75*
G03X159750000Y-66500000I-1250000J0D01*
G01*
X99750000Y-34500000D02*
G75*
G03X99750000Y-34500000I-1250000J0D01*
G01*
X134030000Y-79380000D02*
X134030000Y-76420000D01*
X132570000Y-79380000D02*
X134030000Y-79380000D01*
X132570000Y-76420000D02*
X132570000Y-79380000D01*
X134030000Y-76420000D02*
X132570000Y-76420000D01*
X136630000Y-79380000D02*
X136630000Y-76420000D01*
X135170000Y-79380000D02*
X136630000Y-79380000D01*
X135170000Y-76420000D02*
X135170000Y-79380000D01*
X136630000Y-76420000D02*
X135170000Y-76420000D01*
X104820000Y-103430000D02*
X107780000Y-103430000D01*
X104820000Y-101970000D02*
X104820000Y-103430000D01*
X107780000Y-101970000D02*
X104820000Y-101970000D01*
X107780000Y-103430000D02*
X107780000Y-101970000D01*
X120130000Y-66680000D02*
X120130000Y-63720000D01*
X118670000Y-66680000D02*
X120130000Y-66680000D01*
X118670000Y-63720000D02*
X118670000Y-66680000D01*
X120130000Y-63720000D02*
X118670000Y-63720000D01*
X118430000Y-66680000D02*
X118430000Y-63720000D01*
X116970000Y-66680000D02*
X118430000Y-66680000D01*
X116970000Y-63720000D02*
X116970000Y-66680000D01*
X118430000Y-63720000D02*
X116970000Y-63720000D01*
X120470000Y-87932500D02*
X120470000Y-90892500D01*
X121930000Y-87932500D02*
X120470000Y-87932500D01*
X121930000Y-90892500D02*
X121930000Y-87932500D01*
X120470000Y-90892500D02*
X121930000Y-90892500D01*
X122270000Y-87932500D02*
X122270000Y-90892500D01*
X123730000Y-87932500D02*
X122270000Y-87932500D01*
X123730000Y-90892500D02*
X123730000Y-87932500D01*
X122270000Y-90892500D02*
X123730000Y-90892500D01*
X124330000Y-68080000D02*
X124330000Y-65120000D01*
X122870000Y-68080000D02*
X124330000Y-68080000D01*
X122870000Y-65120000D02*
X122870000Y-68080000D01*
X124330000Y-65120000D02*
X122870000Y-65120000D01*
X125930000Y-68080000D02*
X125930000Y-65120000D01*
X124470000Y-68080000D02*
X125930000Y-68080000D01*
X124470000Y-65120000D02*
X124470000Y-68080000D01*
X125930000Y-65120000D02*
X124470000Y-65120000D01*
X131170000Y-89520000D02*
X131170000Y-92480000D01*
X132630000Y-89520000D02*
X131170000Y-89520000D01*
X132630000Y-92480000D02*
X132630000Y-89520000D01*
X131170000Y-92480000D02*
X132630000Y-92480000D01*
X134430000Y-92480000D02*
X134430000Y-89520000D01*
X132970000Y-92480000D02*
X134430000Y-92480000D01*
X132970000Y-89520000D02*
X132970000Y-92480000D01*
X134430000Y-89520000D02*
X132970000Y-89520000D01*
X134870000Y-89520000D02*
X134870000Y-92480000D01*
X136330000Y-89520000D02*
X134870000Y-89520000D01*
X136330000Y-92480000D02*
X136330000Y-89520000D01*
X134870000Y-92480000D02*
X136330000Y-92480000D01*
X138130000Y-92480000D02*
X138130000Y-89520000D01*
X136670000Y-92480000D02*
X138130000Y-92480000D01*
X136670000Y-89520000D02*
X136670000Y-92480000D01*
X138130000Y-89520000D02*
X136670000Y-89520000D01*
X151380000Y-44370000D02*
X148420000Y-44370000D01*
X151380000Y-45830000D02*
X151380000Y-44370000D01*
X148420000Y-45830000D02*
X151380000Y-45830000D01*
X148420000Y-44370000D02*
X148420000Y-45830000D01*
X104120000Y-73520000D02*
X104120000Y-76480000D01*
X105580000Y-73520000D02*
X104120000Y-73520000D01*
X105580000Y-76480000D02*
X105580000Y-73520000D01*
X104120000Y-76480000D02*
X105580000Y-76480000D01*
X111870000Y-106332500D02*
X111870000Y-109292500D01*
X113330000Y-106332500D02*
X111870000Y-106332500D01*
X113330000Y-109292500D02*
X113330000Y-106332500D01*
X111870000Y-109292500D02*
X113330000Y-109292500D01*
X115130000Y-109280000D02*
X115130000Y-106320000D01*
X113670000Y-109280000D02*
X115130000Y-109280000D01*
X113670000Y-106320000D02*
X113670000Y-109280000D01*
X115130000Y-106320000D02*
X113670000Y-106320000D01*
X137320000Y-81230000D02*
X140280000Y-81230000D01*
X137320000Y-79770000D02*
X137320000Y-81230000D01*
X140280000Y-79770000D02*
X137320000Y-79770000D01*
X140280000Y-81230000D02*
X140280000Y-79770000D01*
X100720000Y-43920000D02*
X105280000Y-43920000D01*
X100720000Y-41680000D02*
X100720000Y-43920000D01*
X105280000Y-41680000D02*
X100720000Y-41680000D01*
X105280000Y-43920000D02*
X105280000Y-41680000D01*
X99450000Y-72370000D02*
X99450000Y-69080000D01*
X104250000Y-72370000D02*
X99450000Y-72370000D01*
X104250000Y-69080000D02*
X104250000Y-72370000D01*
X99450000Y-69080000D02*
X101200000Y-69080000D01*
X102500000Y-69080000D02*
X104250000Y-69080000D01*
X102500000Y-68270000D02*
X102500000Y-69080000D01*
X101200000Y-68270000D02*
X102500000Y-68270000D01*
X101200000Y-69080000D02*
X101200000Y-68270000D01*
D13*
X84500000Y-92800000D02*
G75*
G02X84500000Y-93400000I0J-300000D01*
G01*
X83800000Y-92800000D02*
X84500000Y-92800000D01*
X84500000Y-93400000D02*
X83800000Y-93400000D01*
X83800000Y-93400000D02*
G75*
G02X83800000Y-92800000I0J300000D01*
G01*
X84500000Y-99800000D02*
G75*
G02X84500000Y-100400000I0J-300000D01*
G01*
X83800000Y-99800000D02*
X84500000Y-99800000D01*
X84500000Y-100400000D02*
X83800000Y-100400000D01*
X83800000Y-100400000D02*
G75*
G02X83800000Y-99800000I0J300000D01*
G01*
D12*
X118200000Y-50000000D02*
X113000000Y-50000000D01*
X118200000Y-44800000D02*
X118200000Y-50000000D01*
X113000000Y-44800000D02*
X118200000Y-44800000D01*
X113000000Y-50000000D02*
X113000000Y-44800000D01*
X124825001Y-73824999D02*
X124825001Y-77974999D01*
X123375001Y-73824999D02*
X124825001Y-73824999D01*
X123375001Y-72724999D02*
X123375001Y-73824999D01*
X122275001Y-72724999D02*
X123375001Y-72724999D01*
X122275001Y-71274999D02*
X122275001Y-72724999D01*
X118125001Y-71274999D02*
X122275001Y-71274999D01*
X111425001Y-73824999D02*
X111425001Y-77974999D01*
X112875001Y-73824999D02*
X111425001Y-73824999D01*
X112875001Y-72724999D02*
X112875001Y-73824999D01*
X113975001Y-72724999D02*
X112875001Y-72724999D01*
X113975001Y-71274999D02*
X113975001Y-72724999D01*
X118125001Y-71274999D02*
X113975001Y-71274999D01*
X124825001Y-82124999D02*
X124825001Y-77974999D01*
X123375001Y-82124999D02*
X124825001Y-82124999D01*
X123375001Y-83224999D02*
X123375001Y-82124999D01*
X122275001Y-83224999D02*
X123375001Y-83224999D01*
X122275001Y-84674999D02*
X122275001Y-83224999D01*
X118125001Y-84674999D02*
X122275001Y-84674999D01*
X111425001Y-82124999D02*
X111425001Y-77974999D01*
X112875001Y-82124999D02*
X111425001Y-82124999D01*
X112875001Y-83224999D02*
X112875001Y-82124999D01*
X113975001Y-83224999D02*
X112875001Y-83224999D01*
X113975001Y-84674999D02*
X113975001Y-83224999D01*
X118125001Y-84674999D02*
X113975001Y-84674999D01*
X103750000Y-74500000D02*
X103750000Y-80500000D01*
X99550000Y-74500000D02*
X103750000Y-74500000D01*
X99550000Y-80500000D02*
X99550000Y-74500000D01*
X103750000Y-80500000D02*
X99550000Y-80500000D01*
X99550000Y-82100000D02*
X108150000Y-82100000D01*
X99550000Y-87700000D02*
X99550000Y-82100000D01*
X108150000Y-87700000D02*
X99550000Y-87700000D01*
X108150000Y-82100000D02*
X108150000Y-87700000D01*
X137220000Y-48030000D02*
X140180000Y-48030000D01*
X137220000Y-46570000D02*
X137220000Y-48030000D01*
X140180000Y-46570000D02*
X137220000Y-46570000D01*
X140180000Y-48030000D02*
X140180000Y-46570000D01*
X146470000Y-47220000D02*
X146470000Y-50180000D01*
X147930000Y-47220000D02*
X146470000Y-47220000D01*
X147930000Y-50180000D02*
X147930000Y-47220000D01*
X146470000Y-50180000D02*
X147930000Y-50180000D01*
X158200000Y-45850000D02*
X158200000Y-42350000D01*
X154800000Y-45850000D02*
X158200000Y-45850000D01*
X154800000Y-42350000D02*
X154800000Y-45850000D01*
X158200000Y-42350000D02*
X154800000Y-42350000D01*
X145020000Y-41230000D02*
X147980000Y-41230000D01*
X145020000Y-39770000D02*
X145020000Y-41230000D01*
X147980000Y-39770000D02*
X145020000Y-39770000D01*
X147980000Y-41230000D02*
X147980000Y-39770000D01*
X99250000Y-118220000D02*
X99250000Y-121580000D01*
X101150000Y-118220000D02*
X99250000Y-118220000D01*
X101150000Y-121580000D02*
X101150000Y-118220000D01*
X99250000Y-121580000D02*
X101150000Y-121580000D01*
X101450000Y-118220000D02*
X101450000Y-121580000D01*
X103350000Y-118220000D02*
X101450000Y-118220000D01*
X103350000Y-121580000D02*
X103350000Y-118220000D01*
X101450000Y-121580000D02*
X103350000Y-121580000D01*
X104680000Y-107550000D02*
X101320000Y-107550000D01*
X104680000Y-109450000D02*
X104680000Y-107550000D01*
X101320000Y-109450000D02*
X104680000Y-109450000D01*
X101320000Y-107550000D02*
X101320000Y-109450000D01*
X104680000Y-105350000D02*
X101320000Y-105350000D01*
X104680000Y-107250000D02*
X104680000Y-105350000D01*
X101320000Y-107250000D02*
X104680000Y-107250000D01*
X101320000Y-105350000D02*
X101320000Y-107250000D01*
X93630000Y-110880000D02*
X93630000Y-107920000D01*
X92170000Y-110880000D02*
X93630000Y-110880000D01*
X92170000Y-107920000D02*
X92170000Y-110880000D01*
X93630000Y-107920000D02*
X92170000Y-107920000D01*
X103480000Y-121770000D02*
X100520000Y-121770000D01*
X103480000Y-123230000D02*
X103480000Y-121770000D01*
X100520000Y-123230000D02*
X103480000Y-123230000D01*
X100520000Y-121770000D02*
X100520000Y-123230000D01*
X101050000Y-106000000D02*
X97550000Y-106000000D01*
X101050000Y-109400000D02*
X101050000Y-106000000D01*
X97550000Y-109400000D02*
X101050000Y-109400000D01*
X97550000Y-106000000D02*
X97550000Y-109400000D01*
X97320000Y-123230000D02*
X100280000Y-123230000D01*
X97320000Y-121770000D02*
X97320000Y-123230000D01*
X100280000Y-121770000D02*
X97320000Y-121770000D01*
X100280000Y-123230000D02*
X100280000Y-121770000D01*
X93770000Y-118320000D02*
X93770000Y-121280000D01*
X95230000Y-118320000D02*
X93770000Y-118320000D01*
X95230000Y-121280000D02*
X95230000Y-118320000D01*
X93770000Y-121280000D02*
X95230000Y-121280000D01*
X93130000Y-114680000D02*
X93130000Y-111720000D01*
X91670000Y-114680000D02*
X93130000Y-114680000D01*
X91670000Y-111720000D02*
X91670000Y-114680000D01*
X93130000Y-111720000D02*
X91670000Y-111720000D01*
X95570000Y-118320000D02*
X95570000Y-121280000D01*
X97030000Y-118320000D02*
X95570000Y-118320000D01*
X97030000Y-121280000D02*
X97030000Y-118320000D01*
X95570000Y-121280000D02*
X97030000Y-121280000D01*
X94930000Y-114680000D02*
X94930000Y-111720000D01*
X93470000Y-114680000D02*
X94930000Y-114680000D01*
X93470000Y-111720000D02*
X93470000Y-114680000D01*
X94930000Y-111720000D02*
X93470000Y-111720000D01*
X95430000Y-110880000D02*
X95430000Y-107920000D01*
X93970000Y-110880000D02*
X95430000Y-110880000D01*
X93970000Y-107920000D02*
X93970000Y-110880000D01*
X95430000Y-107920000D02*
X93970000Y-107920000D01*
X102380000Y-109770000D02*
X99420000Y-109770000D01*
X102380000Y-111230000D02*
X102380000Y-109770000D01*
X99420000Y-111230000D02*
X102380000Y-111230000D01*
X99420000Y-109770000D02*
X99420000Y-111230000D01*
X95250000Y-117750000D02*
X95250000Y-111450000D01*
X98950000Y-117750000D02*
X98950000Y-111450000D01*
X98950000Y-111450000D02*
X95250000Y-111450000D01*
X98950000Y-117750000D02*
X95250000Y-117750000D01*
X148000000Y-47000000D02*
X140600000Y-47000000D01*
X148000000Y-41600000D02*
X148000000Y-47000000D01*
X140600000Y-41600000D02*
X148000000Y-41600000D01*
X140600000Y-47000000D02*
X140600000Y-41600000D01*
X129870000Y-115820000D02*
X129870000Y-118780000D01*
X131330000Y-115820000D02*
X129870000Y-115820000D01*
X131330000Y-118780000D02*
X131330000Y-115820000D01*
X129870000Y-118780000D02*
X131330000Y-118780000D01*
X119350000Y-39800000D02*
G75*
G03X119350000Y-39800000I-1250000J0D01*
G01*
X121750000Y-49600000D02*
G75*
G03X121750000Y-49600000I-1250000J0D01*
G01*
X124550000Y-48200000D02*
G75*
G03X124550000Y-48200000I-1250000J0D01*
G01*
X124550000Y-45200000D02*
G75*
G03X124550000Y-45200000I-1250000J0D01*
G01*
X121350000Y-37600000D02*
G75*
G03X121350000Y-37600000I-1250000J0D01*
G01*
X121050000Y-52100000D02*
G75*
G03X121050000Y-52100000I-1250000J0D01*
G01*
X114850000Y-52100000D02*
G75*
G03X114850000Y-52100000I-1250000J0D01*
G01*
X102850000Y-112700000D02*
G75*
G03X102850000Y-112700000I-1250000J0D01*
G01*
X129750000Y-102600000D02*
G75*
G03X129750000Y-102600000I-1250000J0D01*
G01*
X150650000Y-48700000D02*
G75*
G03X150650000Y-48700000I-1250000J0D01*
G01*
X158350000Y-47500000D02*
G75*
G03X158350000Y-47500000I-1250000J0D01*
G01*
X115110000Y-98690000D02*
G75*
G03X115110000Y-98690000I-1250000J0D01*
G01*
X115110000Y-95890000D02*
G75*
G03X115110000Y-95890000I-1250000J0D01*
G01*
X132150000Y-120700000D02*
G75*
G03X132150000Y-120700000I-1250000J0D01*
G01*
X133450000Y-103800000D02*
G75*
G03X133450000Y-103800000I-1250000J0D01*
G01*
X133450000Y-95150000D02*
G75*
G03X133450000Y-95150000I-1250000J0D01*
G01*
X129650000Y-95950000D02*
G75*
G03X129650000Y-95950000I-1250000J0D01*
G01*
X144650000Y-98150000D02*
G75*
G03X144650000Y-98150000I-1250000J0D01*
G01*
X144650000Y-100750000D02*
G75*
G03X144650000Y-100750000I-1250000J0D01*
G01*
X158150000Y-40700000D02*
G75*
G03X158150000Y-40700000I-1250000J0D01*
G01*
X144800000Y-91100000D02*
G75*
G03X144800000Y-91100000I-1250000J0D01*
G01*
X154600000Y-91100000D02*
G75*
G03X154600000Y-91100000I-1250000J0D01*
G01*
X134550000Y-75000000D02*
G75*
G03X134550000Y-75000000I-1250000J0D01*
G01*
X137150000Y-75000000D02*
G75*
G03X137150000Y-75000000I-1250000J0D01*
G01*
X144800000Y-85500000D02*
G75*
G03X144800000Y-85500000I-1250000J0D01*
G01*
X154600000Y-85500000D02*
G75*
G03X154600000Y-85500000I-1250000J0D01*
G01*
X154250000Y-116400000D02*
G75*
G03X154250000Y-116400000I-1250000J0D01*
G01*
X151650000Y-116400000D02*
G75*
G03X151650000Y-116400000I-1250000J0D01*
G01*
X105850000Y-34300000D02*
G75*
G03X105850000Y-34300000I-1250000J0D01*
G01*
X105650000Y-45200000D02*
G75*
G03X105650000Y-45200000I-1250000J0D01*
G01*
X102450000Y-101600000D02*
G75*
G03X102450000Y-101600000I-1250000J0D01*
G01*
X138950000Y-39100000D02*
G75*
G03X138950000Y-39100000I-1250000J0D01*
G01*
X144150000Y-50300000D02*
G75*
G03X144150000Y-50300000I-1250000J0D01*
G01*
X152370000Y-44820000D02*
X152370000Y-47780000D01*
X153830000Y-44820000D02*
X152370000Y-44820000D01*
X153830000Y-47780000D02*
X153830000Y-44820000D01*
X152370000Y-47780000D02*
X153830000Y-47780000D01*
X153830000Y-43580000D02*
X153830000Y-40620000D01*
X152370000Y-43580000D02*
X153830000Y-43580000D01*
X152370000Y-40620000D02*
X152370000Y-43580000D01*
X153830000Y-40620000D02*
X152370000Y-40620000D01*
X100120000Y-81570000D02*
X101980000Y-81570000D01*
X100120000Y-80630000D02*
X100120000Y-81570000D01*
X101980000Y-80630000D02*
X100120000Y-80630000D01*
X101980000Y-81570000D02*
X101980000Y-80630000D01*
X102130000Y-73430000D02*
X100270000Y-73430000D01*
X102130000Y-74370000D02*
X102130000Y-73430000D01*
X100270000Y-74370000D02*
X102130000Y-74370000D01*
X100270000Y-73430000D02*
X100270000Y-74370000D01*
X107530000Y-87830000D02*
X105670000Y-87830000D01*
X107530000Y-88770000D02*
X107530000Y-87830000D01*
X105670000Y-88770000D02*
X107530000Y-88770000D01*
X105670000Y-87830000D02*
X105670000Y-88770000D01*
X107580000Y-81030000D02*
X105720000Y-81030000D01*
X107580000Y-81970000D02*
X107580000Y-81030000D01*
X105720000Y-81970000D02*
X107580000Y-81970000D01*
X105720000Y-81030000D02*
X105720000Y-81970000D01*
X107070000Y-74720000D02*
X108930000Y-74720000D01*
X107070000Y-73780000D02*
X107070000Y-74720000D01*
X108930000Y-73780000D02*
X107070000Y-73780000D01*
X108930000Y-74720000D02*
X108930000Y-73780000D01*
X107070000Y-73520000D02*
X108930000Y-73520000D01*
X107070000Y-72580000D02*
X107070000Y-73520000D01*
X108930000Y-72580000D02*
X107070000Y-72580000D01*
X108930000Y-73520000D02*
X108930000Y-72580000D01*
X107070000Y-75920000D02*
X108930000Y-75920000D01*
X107070000Y-74980000D02*
X107070000Y-75920000D01*
X108930000Y-74980000D02*
X107070000Y-74980000D01*
X108930000Y-75920000D02*
X108930000Y-74980000D01*
X131100000Y-77600000D02*
G75*
G03X131100000Y-77600000I-1000000J0D01*
G01*
X106100000Y-91400000D02*
G75*
G03X106100000Y-91400000I-1000000J0D01*
G01*
X118600000Y-94800000D02*
G75*
G03X118600000Y-94800000I-1000000J0D01*
G01*
X119400000Y-96900000D02*
G75*
G03X119400000Y-96900000I-1000000J0D01*
G01*
X129500000Y-76200000D02*
G75*
G03X129500000Y-76200000I-1000000J0D01*
G01*
X114400000Y-92100000D02*
G75*
G03X114400000Y-92100000I-1000000J0D01*
G01*
X117500000Y-92100000D02*
G75*
G03X117500000Y-92100000I-1000000J0D01*
G01*
X108200000Y-70200000D02*
G75*
G03X108200000Y-70200000I-1000000J0D01*
G01*
X121500000Y-96900000D02*
G75*
G03X121500000Y-96900000I-1000000J0D01*
G01*
X121400000Y-59700000D02*
G75*
G03X121400000Y-59700000I-1000000J0D01*
G01*
X110270000Y-85730000D02*
X110270000Y-83870000D01*
X109330000Y-85730000D02*
X110270000Y-85730000D01*
X109330000Y-83870000D02*
X109330000Y-85730000D01*
X110270000Y-83870000D02*
X109330000Y-83870000D01*
X131100000Y-74900000D02*
G75*
G03X131100000Y-74900000I-1000000J0D01*
G01*
X119520000Y-112460000D02*
X122480000Y-112460000D01*
X119520000Y-111000000D02*
X119520000Y-112460000D01*
X122480000Y-111000000D02*
X119520000Y-111000000D01*
X122480000Y-112460000D02*
X122480000Y-111000000D01*
X119520000Y-110630000D02*
X122480000Y-110630000D01*
X119520000Y-109170000D02*
X119520000Y-110630000D01*
X122480000Y-109170000D02*
X119520000Y-109170000D01*
X122480000Y-110630000D02*
X122480000Y-109170000D01*
X130680000Y-112870000D02*
X127720000Y-112870000D01*
X130680000Y-114330000D02*
X130680000Y-112870000D01*
X127720000Y-114330000D02*
X130680000Y-114330000D01*
X127720000Y-112870000D02*
X127720000Y-114330000D01*
X100170000Y-113330000D02*
X100170000Y-111470000D01*
X99230000Y-113330000D02*
X100170000Y-113330000D01*
X99230000Y-111470000D02*
X99230000Y-113330000D01*
X100170000Y-111470000D02*
X99230000Y-111470000D01*
X119670000Y-113770000D02*
X121530000Y-113770000D01*
X119670000Y-112830000D02*
X119670000Y-113770000D01*
X121530000Y-112830000D02*
X119670000Y-112830000D01*
X121530000Y-113770000D02*
X121530000Y-112830000D01*
X109070000Y-107270000D02*
X110930000Y-107270000D01*
X109070000Y-106330000D02*
X109070000Y-107270000D01*
X110930000Y-106330000D02*
X109070000Y-106330000D01*
X110930000Y-107270000D02*
X110930000Y-106330000D01*
X108480000Y-98520000D02*
X108480000Y-96660000D01*
X107540000Y-98520000D02*
X108480000Y-98520000D01*
X107540000Y-96660000D02*
X107540000Y-98520000D01*
X108480000Y-96660000D02*
X107540000Y-96660000D01*
X117480000Y-114870000D02*
X114520000Y-114870000D01*
X117480000Y-116330000D02*
X117480000Y-114870000D01*
X114520000Y-116330000D02*
X117480000Y-116330000D01*
X114520000Y-114870000D02*
X114520000Y-116330000D01*
X137470000Y-42820000D02*
X137470000Y-45780000D01*
X138930000Y-42820000D02*
X137470000Y-42820000D01*
X138930000Y-45780000D02*
X138930000Y-42820000D01*
X137470000Y-45780000D02*
X138930000Y-45780000D01*
X111620000Y-43130000D02*
X114580000Y-43130000D01*
X111620000Y-41670000D02*
X111620000Y-43130000D01*
X114580000Y-41670000D02*
X111620000Y-41670000D01*
X114580000Y-43130000D02*
X114580000Y-41670000D01*
X112770000Y-44470000D02*
X114630000Y-44470000D01*
X112770000Y-43530000D02*
X112770000Y-44470000D01*
X114630000Y-43530000D02*
X112770000Y-43530000D01*
X114630000Y-44470000D02*
X114630000Y-43530000D01*
X147880000Y-83630000D02*
X146020000Y-83630000D01*
X147880000Y-84570000D02*
X147880000Y-83630000D01*
X146020000Y-84570000D02*
X147880000Y-84570000D01*
X146020000Y-83630000D02*
X146020000Y-84570000D01*
X157680000Y-83630000D02*
X155820000Y-83630000D01*
X157680000Y-84570000D02*
X157680000Y-83630000D01*
X155820000Y-84570000D02*
X157680000Y-84570000D01*
X155820000Y-83630000D02*
X155820000Y-84570000D01*
X114080000Y-86070000D02*
X111120000Y-86070000D01*
X114080000Y-87530000D02*
X114080000Y-86070000D01*
X111120000Y-87530000D02*
X114080000Y-87530000D01*
X111120000Y-86070000D02*
X111120000Y-87530000D01*
X114530000Y-111870000D02*
X114530000Y-113730000D01*
X115470000Y-111870000D02*
X114530000Y-111870000D01*
X115470000Y-113730000D02*
X115470000Y-111870000D01*
X114530000Y-113730000D02*
X115470000Y-113730000D01*
X96050000Y-105650000D02*
X93750000Y-105650000D01*
X93750000Y-100950000D02*
X93750000Y-105650000D01*
X96050000Y-100950000D02*
X93750000Y-100950000D01*
X96050000Y-105650000D02*
X96050000Y-100950000D01*
X119850000Y-114550000D02*
X122150000Y-114550000D01*
X122150000Y-119250000D02*
X122150000Y-114550000D01*
X119850000Y-119250000D02*
X122150000Y-119250000D01*
X119850000Y-114550000D02*
X119850000Y-119250000D01*
X101050000Y-103350000D02*
X101050000Y-105650000D01*
X96350000Y-105650000D02*
X101050000Y-105650000D01*
X96350000Y-103350000D02*
X96350000Y-105650000D01*
X101050000Y-103350000D02*
X96350000Y-103350000D01*
X106050000Y-123250000D02*
X103750000Y-123250000D01*
X103750000Y-118550000D02*
X103750000Y-123250000D01*
X106050000Y-118550000D02*
X103750000Y-118550000D01*
X106050000Y-123250000D02*
X106050000Y-118550000D01*
X157700000Y-72500000D02*
X150700000Y-72500000D01*
X150700000Y-72500000D02*
X150700000Y-76500000D01*
X150700000Y-76500000D02*
X157700000Y-76500000D01*
X157700000Y-76500000D02*
X157700000Y-72500000D01*
X138530000Y-102280000D02*
X136670000Y-102280000D01*
X138530000Y-103220000D02*
X138530000Y-102280000D01*
X136670000Y-103220000D02*
X138530000Y-103220000D01*
X136670000Y-102280000D02*
X136670000Y-103220000D01*
X136230000Y-42770000D02*
X136230000Y-44630000D01*
X137170000Y-42770000D02*
X136230000Y-42770000D01*
X137170000Y-44630000D02*
X137170000Y-42770000D01*
X136230000Y-44630000D02*
X137170000Y-44630000D01*
X113370000Y-87932500D02*
X113370000Y-90892500D01*
X114830000Y-87932500D02*
X113370000Y-87932500D01*
X114830000Y-90892500D02*
X114830000Y-87932500D01*
X113370000Y-90892500D02*
X114830000Y-90892500D01*
X115070000Y-87932500D02*
X115070000Y-90892500D01*
X116530000Y-87932500D02*
X115070000Y-87932500D01*
X116530000Y-90892500D02*
X116530000Y-87932500D01*
X115070000Y-90892500D02*
X116530000Y-90892500D01*
X111530000Y-88870000D02*
X108570000Y-88870000D01*
X111530000Y-90330000D02*
X111530000Y-88870000D01*
X108570000Y-90330000D02*
X111530000Y-90330000D01*
X108570000Y-88870000D02*
X108570000Y-90330000D01*
X111530000Y-90570000D02*
X108570000Y-90570000D01*
X111530000Y-92030000D02*
X111530000Y-90570000D01*
X108570000Y-92030000D02*
X111530000Y-92030000D01*
X108570000Y-90570000D02*
X108570000Y-92030000D01*
X127720000Y-112630000D02*
X130680000Y-112630000D01*
X127720000Y-111170000D02*
X127720000Y-112630000D01*
X130680000Y-111170000D02*
X127720000Y-111170000D01*
X130680000Y-112630000D02*
X130680000Y-111170000D01*
X122770000Y-40520000D02*
X122770000Y-43480000D01*
X124230000Y-40520000D02*
X122770000Y-40520000D01*
X124230000Y-43480000D02*
X124230000Y-40520000D01*
X122770000Y-43480000D02*
X124230000Y-43480000D01*
X124230000Y-40280000D02*
X124230000Y-37320000D01*
X122770000Y-40280000D02*
X124230000Y-40280000D01*
X122770000Y-37320000D02*
X122770000Y-40280000D01*
X124230000Y-37320000D02*
X122770000Y-37320000D01*
X104080000Y-66470000D02*
X101120000Y-66470000D01*
X104080000Y-67930000D02*
X104080000Y-66470000D01*
X101120000Y-67930000D02*
X104080000Y-67930000D01*
X101120000Y-66470000D02*
X101120000Y-67930000D01*
X127320000Y-101080000D02*
X130280000Y-101080000D01*
X127320000Y-99620000D02*
X127320000Y-101080000D01*
X130280000Y-99620000D02*
X127320000Y-99620000D01*
X130280000Y-101080000D02*
X130280000Y-99620000D01*
X127332500Y-98880000D02*
X130292500Y-98880000D01*
X127332500Y-97420000D02*
X127332500Y-98880000D01*
X130292500Y-97420000D02*
X127332500Y-97420000D01*
X130292500Y-98880000D02*
X130292500Y-97420000D01*
X114580000Y-39870000D02*
X111620000Y-39870000D01*
X114580000Y-41330000D02*
X114580000Y-39870000D01*
X111620000Y-41330000D02*
X114580000Y-41330000D01*
X111620000Y-39870000D02*
X111620000Y-41330000D01*
X111620000Y-39530000D02*
X114580000Y-39530000D01*
X111620000Y-38070000D02*
X111620000Y-39530000D01*
X114580000Y-38070000D02*
X111620000Y-38070000D01*
X114580000Y-39530000D02*
X114580000Y-38070000D01*
X111930000Y-85680000D02*
X111930000Y-82720000D01*
X110470000Y-85680000D02*
X111930000Y-85680000D01*
X110470000Y-82720000D02*
X110470000Y-85680000D01*
X111930000Y-82720000D02*
X110470000Y-82720000D01*
X153880000Y-48370000D02*
X150920000Y-48370000D01*
X153880000Y-49830000D02*
X153880000Y-48370000D01*
X150920000Y-49830000D02*
X153880000Y-49830000D01*
X150920000Y-48370000D02*
X150920000Y-49830000D01*
X105930000Y-72180000D02*
X105930000Y-69220000D01*
X104470000Y-72180000D02*
X105930000Y-72180000D01*
X104470000Y-69220000D02*
X104470000Y-72180000D01*
X105930000Y-69220000D02*
X104470000Y-69220000D01*
X93870000Y-93080000D02*
X95330000Y-93080000D01*
X95330000Y-93080000D02*
X95330000Y-90120000D01*
X95330000Y-90120000D02*
X93870000Y-90120000D01*
X93870000Y-90120000D02*
X93870000Y-93080000D01*
X95570000Y-90120000D02*
X95570000Y-93080000D01*
X97030000Y-90120000D02*
X95570000Y-90120000D01*
X97030000Y-93080000D02*
X97030000Y-90120000D01*
X95570000Y-93080000D02*
X97030000Y-93080000D01*
X127080000Y-110750000D02*
X127080000Y-108850000D01*
X127080000Y-108850000D02*
X123720000Y-108850000D01*
X123720000Y-108850000D02*
X123720000Y-110750000D01*
X123720000Y-110750000D02*
X127080000Y-110750000D01*
X104680000Y-103150000D02*
X101320000Y-103150000D01*
X104680000Y-105050000D02*
X104680000Y-103150000D01*
X101320000Y-105050000D02*
X104680000Y-105050000D01*
X101320000Y-103150000D02*
X101320000Y-105050000D01*
X117680000Y-122350000D02*
X117680000Y-120450000D01*
X117680000Y-120450000D02*
X114320000Y-120450000D01*
X114320000Y-120450000D02*
X114320000Y-122350000D01*
X114320000Y-122350000D02*
X117680000Y-122350000D01*
X89400000Y-97100000D02*
X92200000Y-97100000D01*
X92200000Y-100300000D02*
X89400000Y-100300000D01*
X92200000Y-100300000D02*
X92200000Y-97100000D01*
X89400000Y-100300000D02*
X89400000Y-97100000D01*
X153600000Y-110950000D02*
X153600000Y-107450000D01*
X149600000Y-110950000D02*
X153600000Y-110950000D01*
X149600000Y-107450000D02*
X149600000Y-110950000D01*
X153600000Y-107450000D02*
X149600000Y-107450000D01*
X83149820Y-104005299D02*
X82149820Y-104005299D01*
X82149820Y-103624346D01*
X82197440Y-103529108D01*
X82245059Y-103481489D01*
X82340297Y-103433870D01*
X82483154Y-103433870D01*
X82578392Y-103481489D01*
X82626011Y-103529108D01*
X82673630Y-103624346D01*
X82673630Y-104005299D01*
X83054582Y-102433870D02*
X83102201Y-102481489D01*
X83149820Y-102624346D01*
X83149820Y-102719584D01*
X83102201Y-102862441D01*
X83006963Y-102957680D01*
X82911725Y-103005299D01*
X82721249Y-103052918D01*
X82578392Y-103052918D01*
X82387916Y-103005299D01*
X82292678Y-102957680D01*
X82197440Y-102862441D01*
X82149820Y-102719584D01*
X82149820Y-102624346D01*
X82197440Y-102481489D01*
X82245059Y-102433870D01*
X82626011Y-101671965D02*
X82673630Y-101529108D01*
X82721249Y-101481489D01*
X82816487Y-101433870D01*
X82959344Y-101433870D01*
X83054582Y-101481489D01*
X83102201Y-101529108D01*
X83149820Y-101624346D01*
X83149820Y-102005299D01*
X82149820Y-102005299D01*
X82149820Y-101671965D01*
X82197440Y-101576727D01*
X82245059Y-101529108D01*
X82340297Y-101481489D01*
X82435535Y-101481489D01*
X82530773Y-101529108D01*
X82578392Y-101576727D01*
X82626011Y-101671965D01*
X82626011Y-102005299D01*
X81912440Y-101243394D02*
X81912440Y-100338632D01*
X82626011Y-101005299D02*
X82626011Y-100671965D01*
X83149820Y-100529108D02*
X83149820Y-101005299D01*
X82149820Y-101005299D01*
X82149820Y-100529108D01*
X81912440Y-100338632D02*
X81912440Y-99433870D01*
X83149820Y-99671965D02*
X82149820Y-99671965D01*
X83102201Y-99671965D02*
X83149820Y-99767203D01*
X83149820Y-99957680D01*
X83102201Y-100052918D01*
X83054582Y-100100537D01*
X82959344Y-100148156D01*
X82673630Y-100148156D01*
X82578392Y-100100537D01*
X82530773Y-100052918D01*
X82483154Y-99957680D01*
X82483154Y-99767203D01*
X82530773Y-99671965D01*
X81912440Y-99433870D02*
X81912440Y-98529108D01*
X82483154Y-98767203D02*
X83292678Y-98767203D01*
X83387916Y-98814822D01*
X83435535Y-98862441D01*
X83483154Y-98957680D01*
X83483154Y-99100537D01*
X83435535Y-99195775D01*
X83102201Y-98767203D02*
X83149820Y-98862441D01*
X83149820Y-99052918D01*
X83102201Y-99148156D01*
X83054582Y-99195775D01*
X82959344Y-99243394D01*
X82673630Y-99243394D01*
X82578392Y-99195775D01*
X82530773Y-99148156D01*
X82483154Y-99052918D01*
X82483154Y-98862441D01*
X82530773Y-98767203D01*
X81912440Y-98529108D02*
X81912440Y-97671965D01*
X83102201Y-97910060D02*
X83149820Y-98005299D01*
X83149820Y-98195775D01*
X83102201Y-98291013D01*
X83006963Y-98338632D01*
X82626011Y-98338632D01*
X82530773Y-98291013D01*
X82483154Y-98195775D01*
X82483154Y-98005299D01*
X82530773Y-97910060D01*
X82626011Y-97862441D01*
X82721249Y-97862441D01*
X82816487Y-98338632D01*
M02*
