G04 #@! TF.GenerationSoftware,KiCad,Pcbnew,5.1.5+dfsg1-2build2*
G04 #@! TF.CreationDate,2021-09-29T14:40:33+01:00*
G04 #@! TF.ProjectId,OSM_env01,4f534d5f-656e-4763-9031-2e6b69636164,B*
G04 #@! TF.SameCoordinates,Original*
G04 #@! TF.FileFunction,Legend,Top*
G04 #@! TF.FilePolarity,Positive*
%FSLAX46Y46*%
G04 Gerber Fmt 4.6, Leading zero omitted, Abs format (unit mm)*
G04 Created by KiCad (PCBNEW 5.1.5+dfsg1-2build2) date 2021-09-29 14:40:33*
%MOMM*%
%LPD*%
G04 APERTURE LIST*
%ADD10C,0.150000*%
%ADD11C,0.254000*%
%ADD12C,0.250000*%
%ADD13C,0.120000*%
%ADD14C,0.100000*%
%ADD15C,0.127000*%
%ADD16C,0.200000*%
%ADD17C,1.000000*%
%ADD18C,0.050000*%
G04 APERTURE END LIST*
D10*
X128852380Y-55441666D02*
X129328571Y-55441666D01*
X128757142Y-55727380D02*
X129090476Y-54727380D01*
X129423809Y-55727380D01*
X130185714Y-55727380D02*
X130185714Y-54727380D01*
X130185714Y-55679761D02*
X130090476Y-55727380D01*
X129900000Y-55727380D01*
X129804761Y-55679761D01*
X129757142Y-55632142D01*
X129709523Y-55536904D01*
X129709523Y-55251190D01*
X129757142Y-55155952D01*
X129804761Y-55108333D01*
X129900000Y-55060714D01*
X130090476Y-55060714D01*
X130185714Y-55108333D01*
X131090476Y-55727380D02*
X131090476Y-54727380D01*
X131090476Y-55679761D02*
X130995238Y-55727380D01*
X130804761Y-55727380D01*
X130709523Y-55679761D01*
X130661904Y-55632142D01*
X130614285Y-55536904D01*
X130614285Y-55251190D01*
X130661904Y-55155952D01*
X130709523Y-55108333D01*
X130804761Y-55060714D01*
X130995238Y-55060714D01*
X131090476Y-55108333D01*
X131709523Y-55727380D02*
X131614285Y-55679761D01*
X131566666Y-55632142D01*
X131519047Y-55536904D01*
X131519047Y-55251190D01*
X131566666Y-55155952D01*
X131614285Y-55108333D01*
X131709523Y-55060714D01*
X131852380Y-55060714D01*
X131947619Y-55108333D01*
X131995238Y-55155952D01*
X132042857Y-55251190D01*
X132042857Y-55536904D01*
X131995238Y-55632142D01*
X131947619Y-55679761D01*
X131852380Y-55727380D01*
X131709523Y-55727380D01*
X132471428Y-55060714D02*
X132471428Y-55727380D01*
X132471428Y-55155952D02*
X132519047Y-55108333D01*
X132614285Y-55060714D01*
X132757142Y-55060714D01*
X132852380Y-55108333D01*
X132900000Y-55203571D01*
X132900000Y-55727380D01*
X128519047Y-57377380D02*
X128519047Y-56377380D01*
X128852380Y-57091666D01*
X129185714Y-56377380D01*
X129185714Y-57377380D01*
X129804761Y-57377380D02*
X129709523Y-57329761D01*
X129661904Y-57282142D01*
X129614285Y-57186904D01*
X129614285Y-56901190D01*
X129661904Y-56805952D01*
X129709523Y-56758333D01*
X129804761Y-56710714D01*
X129947619Y-56710714D01*
X130042857Y-56758333D01*
X130090476Y-56805952D01*
X130138095Y-56901190D01*
X130138095Y-57186904D01*
X130090476Y-57282142D01*
X130042857Y-57329761D01*
X129947619Y-57377380D01*
X129804761Y-57377380D01*
X130995238Y-57377380D02*
X130995238Y-56377380D01*
X130995238Y-57329761D02*
X130900000Y-57377380D01*
X130709523Y-57377380D01*
X130614285Y-57329761D01*
X130566666Y-57282142D01*
X130519047Y-57186904D01*
X130519047Y-56901190D01*
X130566666Y-56805952D01*
X130614285Y-56758333D01*
X130709523Y-56710714D01*
X130900000Y-56710714D01*
X130995238Y-56758333D01*
X131900000Y-56710714D02*
X131900000Y-57377380D01*
X131471428Y-56710714D02*
X131471428Y-57234523D01*
X131519047Y-57329761D01*
X131614285Y-57377380D01*
X131757142Y-57377380D01*
X131852380Y-57329761D01*
X131900000Y-57282142D01*
X132519047Y-57377380D02*
X132423809Y-57329761D01*
X132376190Y-57234523D01*
X132376190Y-56377380D01*
X133280952Y-57329761D02*
X133185714Y-57377380D01*
X132995238Y-57377380D01*
X132900000Y-57329761D01*
X132852380Y-57234523D01*
X132852380Y-56853571D01*
X132900000Y-56758333D01*
X132995238Y-56710714D01*
X133185714Y-56710714D01*
X133280952Y-56758333D01*
X133328571Y-56853571D01*
X133328571Y-56948809D01*
X132852380Y-57044047D01*
X155600000Y-113200000D02*
X155600000Y-105200000D01*
X153600000Y-105200000D02*
X155600000Y-105200000D01*
X153600000Y-113200000D02*
X153600000Y-112200000D01*
X153600000Y-113200000D02*
X155600000Y-113200000D01*
X145400000Y-113200000D02*
X145400000Y-105200000D01*
X153600000Y-106200000D02*
X153600000Y-105200000D01*
X149600000Y-106200000D02*
X149600000Y-105200000D01*
X149600000Y-113200000D02*
X145400000Y-113200000D01*
X149600000Y-112200000D02*
X149600000Y-113200000D01*
X147400000Y-112200000D02*
X149600000Y-112200000D01*
X147400000Y-106200000D02*
X149600000Y-106200000D01*
X146400000Y-106200000D02*
X147400000Y-106200000D01*
X146400000Y-112200000D02*
X146400000Y-106200000D01*
X147400000Y-112200000D02*
X146400000Y-112200000D01*
X149600000Y-105200000D02*
X145400000Y-105200000D01*
X153600000Y-112200000D02*
X154600000Y-112200000D01*
X153600000Y-106200000D02*
X154600000Y-106200000D01*
X154600000Y-112200000D02*
X154600000Y-106200000D01*
D11*
X162700000Y-128200000D02*
X162700000Y-28200000D01*
D10*
X131442857Y-75527380D02*
X131442857Y-74527380D01*
X131823809Y-74527380D01*
X131919047Y-74575000D01*
X131966666Y-74622619D01*
X132014285Y-74717857D01*
X132014285Y-74860714D01*
X131966666Y-74955952D01*
X131919047Y-75003571D01*
X131823809Y-75051190D01*
X131442857Y-75051190D01*
X132871428Y-75527380D02*
X132871428Y-75003571D01*
X132823809Y-74908333D01*
X132728571Y-74860714D01*
X132538095Y-74860714D01*
X132442857Y-74908333D01*
X132871428Y-75479761D02*
X132776190Y-75527380D01*
X132538095Y-75527380D01*
X132442857Y-75479761D01*
X132395238Y-75384523D01*
X132395238Y-75289285D01*
X132442857Y-75194047D01*
X132538095Y-75146428D01*
X132776190Y-75146428D01*
X132871428Y-75098809D01*
X133347619Y-75527380D02*
X133347619Y-74860714D01*
X133347619Y-75051190D02*
X133395238Y-74955952D01*
X133442857Y-74908333D01*
X133538095Y-74860714D01*
X133633333Y-74860714D01*
X133823809Y-74860714D02*
X134204761Y-74860714D01*
X133966666Y-74527380D02*
X133966666Y-75384523D01*
X134014285Y-75479761D01*
X134109523Y-75527380D01*
X134204761Y-75527380D01*
X134538095Y-75527380D02*
X134538095Y-74860714D01*
X134538095Y-74527380D02*
X134490476Y-74575000D01*
X134538095Y-74622619D01*
X134585714Y-74575000D01*
X134538095Y-74527380D01*
X134538095Y-74622619D01*
X135442857Y-75479761D02*
X135347619Y-75527380D01*
X135157142Y-75527380D01*
X135061904Y-75479761D01*
X135014285Y-75432142D01*
X134966666Y-75336904D01*
X134966666Y-75051190D01*
X135014285Y-74955952D01*
X135061904Y-74908333D01*
X135157142Y-74860714D01*
X135347619Y-74860714D01*
X135442857Y-74908333D01*
X136300000Y-74860714D02*
X136300000Y-75527380D01*
X135871428Y-74860714D02*
X135871428Y-75384523D01*
X135919047Y-75479761D01*
X136014285Y-75527380D01*
X136157142Y-75527380D01*
X136252380Y-75479761D01*
X136300000Y-75432142D01*
X136919047Y-75527380D02*
X136823809Y-75479761D01*
X136776190Y-75384523D01*
X136776190Y-74527380D01*
X137728571Y-75527380D02*
X137728571Y-75003571D01*
X137680952Y-74908333D01*
X137585714Y-74860714D01*
X137395238Y-74860714D01*
X137300000Y-74908333D01*
X137728571Y-75479761D02*
X137633333Y-75527380D01*
X137395238Y-75527380D01*
X137300000Y-75479761D01*
X137252380Y-75384523D01*
X137252380Y-75289285D01*
X137300000Y-75194047D01*
X137395238Y-75146428D01*
X137633333Y-75146428D01*
X137728571Y-75098809D01*
X138061904Y-74860714D02*
X138442857Y-74860714D01*
X138204761Y-74527380D02*
X138204761Y-75384523D01*
X138252380Y-75479761D01*
X138347619Y-75527380D01*
X138442857Y-75527380D01*
X139157142Y-75479761D02*
X139061904Y-75527380D01*
X138871428Y-75527380D01*
X138776190Y-75479761D01*
X138728571Y-75384523D01*
X138728571Y-75003571D01*
X138776190Y-74908333D01*
X138871428Y-74860714D01*
X139061904Y-74860714D01*
X139157142Y-74908333D01*
X139204761Y-75003571D01*
X139204761Y-75098809D01*
X138728571Y-75194047D01*
X132966666Y-77129761D02*
X133109523Y-77177380D01*
X133347619Y-77177380D01*
X133442857Y-77129761D01*
X133490476Y-77082142D01*
X133538095Y-76986904D01*
X133538095Y-76891666D01*
X133490476Y-76796428D01*
X133442857Y-76748809D01*
X133347619Y-76701190D01*
X133157142Y-76653571D01*
X133061904Y-76605952D01*
X133014285Y-76558333D01*
X132966666Y-76463095D01*
X132966666Y-76367857D01*
X133014285Y-76272619D01*
X133061904Y-76225000D01*
X133157142Y-76177380D01*
X133395238Y-76177380D01*
X133538095Y-76225000D01*
X134347619Y-77129761D02*
X134252380Y-77177380D01*
X134061904Y-77177380D01*
X133966666Y-77129761D01*
X133919047Y-77034523D01*
X133919047Y-76653571D01*
X133966666Y-76558333D01*
X134061904Y-76510714D01*
X134252380Y-76510714D01*
X134347619Y-76558333D01*
X134395238Y-76653571D01*
X134395238Y-76748809D01*
X133919047Y-76844047D01*
X134823809Y-76510714D02*
X134823809Y-77177380D01*
X134823809Y-76605952D02*
X134871428Y-76558333D01*
X134966666Y-76510714D01*
X135109523Y-76510714D01*
X135204761Y-76558333D01*
X135252380Y-76653571D01*
X135252380Y-77177380D01*
X135680952Y-77129761D02*
X135776190Y-77177380D01*
X135966666Y-77177380D01*
X136061904Y-77129761D01*
X136109523Y-77034523D01*
X136109523Y-76986904D01*
X136061904Y-76891666D01*
X135966666Y-76844047D01*
X135823809Y-76844047D01*
X135728571Y-76796428D01*
X135680952Y-76701190D01*
X135680952Y-76653571D01*
X135728571Y-76558333D01*
X135823809Y-76510714D01*
X135966666Y-76510714D01*
X136061904Y-76558333D01*
X136680952Y-77177380D02*
X136585714Y-77129761D01*
X136538095Y-77082142D01*
X136490476Y-76986904D01*
X136490476Y-76701190D01*
X136538095Y-76605952D01*
X136585714Y-76558333D01*
X136680952Y-76510714D01*
X136823809Y-76510714D01*
X136919047Y-76558333D01*
X136966666Y-76605952D01*
X137014285Y-76701190D01*
X137014285Y-76986904D01*
X136966666Y-77082142D01*
X136919047Y-77129761D01*
X136823809Y-77177380D01*
X136680952Y-77177380D01*
X137442857Y-77177380D02*
X137442857Y-76510714D01*
X137442857Y-76701190D02*
X137490476Y-76605952D01*
X137538095Y-76558333D01*
X137633333Y-76510714D01*
X137728571Y-76510714D01*
X97972619Y-60123809D02*
X98972619Y-60123809D01*
X98258333Y-60457142D01*
X98972619Y-60790476D01*
X97972619Y-60790476D01*
X97972619Y-61695238D02*
X98496428Y-61695238D01*
X98591666Y-61647619D01*
X98639285Y-61552380D01*
X98639285Y-61361904D01*
X98591666Y-61266666D01*
X98020238Y-61695238D02*
X97972619Y-61600000D01*
X97972619Y-61361904D01*
X98020238Y-61266666D01*
X98115476Y-61219047D01*
X98210714Y-61219047D01*
X98305952Y-61266666D01*
X98353571Y-61361904D01*
X98353571Y-61600000D01*
X98401190Y-61695238D01*
X97972619Y-62171428D02*
X98639285Y-62171428D01*
X98972619Y-62171428D02*
X98925000Y-62123809D01*
X98877380Y-62171428D01*
X98925000Y-62219047D01*
X98972619Y-62171428D01*
X98877380Y-62171428D01*
X98639285Y-62647619D02*
X97972619Y-62647619D01*
X98544047Y-62647619D02*
X98591666Y-62695238D01*
X98639285Y-62790476D01*
X98639285Y-62933333D01*
X98591666Y-63028571D01*
X98496428Y-63076190D01*
X97972619Y-63076190D01*
X96417857Y-58647619D02*
X96370238Y-58600000D01*
X96322619Y-58457142D01*
X96322619Y-58361904D01*
X96370238Y-58219047D01*
X96465476Y-58123809D01*
X96560714Y-58076190D01*
X96751190Y-58028571D01*
X96894047Y-58028571D01*
X97084523Y-58076190D01*
X97179761Y-58123809D01*
X97275000Y-58219047D01*
X97322619Y-58361904D01*
X97322619Y-58457142D01*
X97275000Y-58600000D01*
X97227380Y-58647619D01*
X96322619Y-59219047D02*
X96370238Y-59123809D01*
X96417857Y-59076190D01*
X96513095Y-59028571D01*
X96798809Y-59028571D01*
X96894047Y-59076190D01*
X96941666Y-59123809D01*
X96989285Y-59219047D01*
X96989285Y-59361904D01*
X96941666Y-59457142D01*
X96894047Y-59504761D01*
X96798809Y-59552380D01*
X96513095Y-59552380D01*
X96417857Y-59504761D01*
X96370238Y-59457142D01*
X96322619Y-59361904D01*
X96322619Y-59219047D01*
X96989285Y-59980952D02*
X96322619Y-59980952D01*
X96894047Y-59980952D02*
X96941666Y-60028571D01*
X96989285Y-60123809D01*
X96989285Y-60266666D01*
X96941666Y-60361904D01*
X96846428Y-60409523D01*
X96322619Y-60409523D01*
X96989285Y-60885714D02*
X96322619Y-60885714D01*
X96894047Y-60885714D02*
X96941666Y-60933333D01*
X96989285Y-61028571D01*
X96989285Y-61171428D01*
X96941666Y-61266666D01*
X96846428Y-61314285D01*
X96322619Y-61314285D01*
X96370238Y-62171428D02*
X96322619Y-62076190D01*
X96322619Y-61885714D01*
X96370238Y-61790476D01*
X96465476Y-61742857D01*
X96846428Y-61742857D01*
X96941666Y-61790476D01*
X96989285Y-61885714D01*
X96989285Y-62076190D01*
X96941666Y-62171428D01*
X96846428Y-62219047D01*
X96751190Y-62219047D01*
X96655952Y-61742857D01*
X96370238Y-63076190D02*
X96322619Y-62980952D01*
X96322619Y-62790476D01*
X96370238Y-62695238D01*
X96417857Y-62647619D01*
X96513095Y-62600000D01*
X96798809Y-62600000D01*
X96894047Y-62647619D01*
X96941666Y-62695238D01*
X96989285Y-62790476D01*
X96989285Y-62980952D01*
X96941666Y-63076190D01*
X96989285Y-63361904D02*
X96989285Y-63742857D01*
X97322619Y-63504761D02*
X96465476Y-63504761D01*
X96370238Y-63552380D01*
X96322619Y-63647619D01*
X96322619Y-63742857D01*
X96322619Y-64219047D02*
X96370238Y-64123809D01*
X96417857Y-64076190D01*
X96513095Y-64028571D01*
X96798809Y-64028571D01*
X96894047Y-64076190D01*
X96941666Y-64123809D01*
X96989285Y-64219047D01*
X96989285Y-64361904D01*
X96941666Y-64457142D01*
X96894047Y-64504761D01*
X96798809Y-64552380D01*
X96513095Y-64552380D01*
X96417857Y-64504761D01*
X96370238Y-64457142D01*
X96322619Y-64361904D01*
X96322619Y-64219047D01*
X96322619Y-64980952D02*
X96989285Y-64980952D01*
X96798809Y-64980952D02*
X96894047Y-65028571D01*
X96941666Y-65076190D01*
X96989285Y-65171428D01*
X96989285Y-65266666D01*
D11*
X82700000Y-128200000D02*
X82700000Y-28200000D01*
D12*
X118291071Y-29527380D02*
X118481547Y-29527380D01*
X118576785Y-29575000D01*
X118672023Y-29670238D01*
X118719642Y-29860714D01*
X118719642Y-30194047D01*
X118672023Y-30384523D01*
X118576785Y-30479761D01*
X118481547Y-30527380D01*
X118291071Y-30527380D01*
X118195833Y-30479761D01*
X118100595Y-30384523D01*
X118052976Y-30194047D01*
X118052976Y-29860714D01*
X118100595Y-29670238D01*
X118195833Y-29575000D01*
X118291071Y-29527380D01*
X119148214Y-29860714D02*
X119148214Y-30860714D01*
X119148214Y-29908333D02*
X119243452Y-29860714D01*
X119433928Y-29860714D01*
X119529166Y-29908333D01*
X119576785Y-29955952D01*
X119624404Y-30051190D01*
X119624404Y-30336904D01*
X119576785Y-30432142D01*
X119529166Y-30479761D01*
X119433928Y-30527380D01*
X119243452Y-30527380D01*
X119148214Y-30479761D01*
X120433928Y-30479761D02*
X120338690Y-30527380D01*
X120148214Y-30527380D01*
X120052976Y-30479761D01*
X120005357Y-30384523D01*
X120005357Y-30003571D01*
X120052976Y-29908333D01*
X120148214Y-29860714D01*
X120338690Y-29860714D01*
X120433928Y-29908333D01*
X120481547Y-30003571D01*
X120481547Y-30098809D01*
X120005357Y-30194047D01*
X120910119Y-29860714D02*
X120910119Y-30527380D01*
X120910119Y-29955952D02*
X120957738Y-29908333D01*
X121052976Y-29860714D01*
X121195833Y-29860714D01*
X121291071Y-29908333D01*
X121338690Y-30003571D01*
X121338690Y-30527380D01*
X121767261Y-30479761D02*
X121910119Y-30527380D01*
X122148214Y-30527380D01*
X122243452Y-30479761D01*
X122291071Y-30432142D01*
X122338690Y-30336904D01*
X122338690Y-30241666D01*
X122291071Y-30146428D01*
X122243452Y-30098809D01*
X122148214Y-30051190D01*
X121957738Y-30003571D01*
X121862500Y-29955952D01*
X121814880Y-29908333D01*
X121767261Y-29813095D01*
X121767261Y-29717857D01*
X121814880Y-29622619D01*
X121862500Y-29575000D01*
X121957738Y-29527380D01*
X122195833Y-29527380D01*
X122338690Y-29575000D01*
X122767261Y-30527380D02*
X122767261Y-29860714D01*
X122767261Y-29955952D02*
X122814880Y-29908333D01*
X122910119Y-29860714D01*
X123052976Y-29860714D01*
X123148214Y-29908333D01*
X123195833Y-30003571D01*
X123195833Y-30527380D01*
X123195833Y-30003571D02*
X123243452Y-29908333D01*
X123338690Y-29860714D01*
X123481547Y-29860714D01*
X123576785Y-29908333D01*
X123624404Y-30003571D01*
X123624404Y-30527380D01*
X124529166Y-30527380D02*
X124529166Y-30003571D01*
X124481547Y-29908333D01*
X124386309Y-29860714D01*
X124195833Y-29860714D01*
X124100595Y-29908333D01*
X124529166Y-30479761D02*
X124433928Y-30527380D01*
X124195833Y-30527380D01*
X124100595Y-30479761D01*
X124052976Y-30384523D01*
X124052976Y-30289285D01*
X124100595Y-30194047D01*
X124195833Y-30146428D01*
X124433928Y-30146428D01*
X124529166Y-30098809D01*
X125005357Y-30527380D02*
X125005357Y-29860714D01*
X125005357Y-30051190D02*
X125052976Y-29955952D01*
X125100595Y-29908333D01*
X125195833Y-29860714D01*
X125291071Y-29860714D01*
X125481547Y-29860714D02*
X125862500Y-29860714D01*
X125624404Y-29527380D02*
X125624404Y-30384523D01*
X125672023Y-30479761D01*
X125767261Y-30527380D01*
X125862500Y-30527380D01*
X126195833Y-30527380D02*
X126195833Y-29527380D01*
X126529166Y-30241666D01*
X126862500Y-29527380D01*
X126862500Y-30527380D01*
X127481547Y-30527380D02*
X127386309Y-30479761D01*
X127338690Y-30432142D01*
X127291071Y-30336904D01*
X127291071Y-30051190D01*
X127338690Y-29955952D01*
X127386309Y-29908333D01*
X127481547Y-29860714D01*
X127624404Y-29860714D01*
X127719642Y-29908333D01*
X127767261Y-29955952D01*
X127814880Y-30051190D01*
X127814880Y-30336904D01*
X127767261Y-30432142D01*
X127719642Y-30479761D01*
X127624404Y-30527380D01*
X127481547Y-30527380D01*
X128243452Y-29860714D02*
X128243452Y-30527380D01*
X128243452Y-29955952D02*
X128291071Y-29908333D01*
X128386309Y-29860714D01*
X128529166Y-29860714D01*
X128624404Y-29908333D01*
X128672023Y-30003571D01*
X128672023Y-30527380D01*
X129148214Y-30527380D02*
X129148214Y-29860714D01*
X129148214Y-29527380D02*
X129100595Y-29575000D01*
X129148214Y-29622619D01*
X129195833Y-29575000D01*
X129148214Y-29527380D01*
X129148214Y-29622619D01*
X129481547Y-29860714D02*
X129862500Y-29860714D01*
X129624404Y-29527380D02*
X129624404Y-30384523D01*
X129672023Y-30479761D01*
X129767261Y-30527380D01*
X129862500Y-30527380D01*
X130338690Y-30527380D02*
X130243452Y-30479761D01*
X130195833Y-30432142D01*
X130148214Y-30336904D01*
X130148214Y-30051190D01*
X130195833Y-29955952D01*
X130243452Y-29908333D01*
X130338690Y-29860714D01*
X130481547Y-29860714D01*
X130576785Y-29908333D01*
X130624404Y-29955952D01*
X130672023Y-30051190D01*
X130672023Y-30336904D01*
X130624404Y-30432142D01*
X130576785Y-30479761D01*
X130481547Y-30527380D01*
X130338690Y-30527380D01*
X131100595Y-30527380D02*
X131100595Y-29860714D01*
X131100595Y-30051190D02*
X131148214Y-29955952D01*
X131195833Y-29908333D01*
X131291071Y-29860714D01*
X131386309Y-29860714D01*
X118100595Y-32277380D02*
X118100595Y-31277380D01*
X118433928Y-31991666D01*
X118767261Y-31277380D01*
X118767261Y-32277380D01*
X119386309Y-32277380D02*
X119291071Y-32229761D01*
X119243452Y-32182142D01*
X119195833Y-32086904D01*
X119195833Y-31801190D01*
X119243452Y-31705952D01*
X119291071Y-31658333D01*
X119386309Y-31610714D01*
X119529166Y-31610714D01*
X119624404Y-31658333D01*
X119672023Y-31705952D01*
X119719642Y-31801190D01*
X119719642Y-32086904D01*
X119672023Y-32182142D01*
X119624404Y-32229761D01*
X119529166Y-32277380D01*
X119386309Y-32277380D01*
X120576785Y-32277380D02*
X120576785Y-31277380D01*
X120576785Y-32229761D02*
X120481547Y-32277380D01*
X120291071Y-32277380D01*
X120195833Y-32229761D01*
X120148214Y-32182142D01*
X120100595Y-32086904D01*
X120100595Y-31801190D01*
X120148214Y-31705952D01*
X120195833Y-31658333D01*
X120291071Y-31610714D01*
X120481547Y-31610714D01*
X120576785Y-31658333D01*
X121433928Y-32229761D02*
X121338690Y-32277380D01*
X121148214Y-32277380D01*
X121052976Y-32229761D01*
X121005357Y-32134523D01*
X121005357Y-31753571D01*
X121052976Y-31658333D01*
X121148214Y-31610714D01*
X121338690Y-31610714D01*
X121433928Y-31658333D01*
X121481547Y-31753571D01*
X121481547Y-31848809D01*
X121005357Y-31944047D01*
X122052976Y-32277380D02*
X121957738Y-32229761D01*
X121910119Y-32134523D01*
X121910119Y-31277380D01*
X122433928Y-32182142D02*
X122481547Y-32229761D01*
X122433928Y-32277380D01*
X122386309Y-32229761D01*
X122433928Y-32182142D01*
X122433928Y-32277380D01*
X122433928Y-31658333D02*
X122481547Y-31705952D01*
X122433928Y-31753571D01*
X122386309Y-31705952D01*
X122433928Y-31658333D01*
X122433928Y-31753571D01*
X123672023Y-31753571D02*
X124005357Y-31753571D01*
X124148214Y-32277380D02*
X123672023Y-32277380D01*
X123672023Y-31277380D01*
X124148214Y-31277380D01*
X124576785Y-32277380D02*
X124576785Y-31277380D01*
X125148214Y-32277380D01*
X125148214Y-31277380D01*
X125481547Y-31277380D02*
X125814880Y-32277380D01*
X126148214Y-31277380D01*
X126672023Y-31277380D02*
X126767261Y-31277380D01*
X126862500Y-31325000D01*
X126910119Y-31372619D01*
X126957738Y-31467857D01*
X127005357Y-31658333D01*
X127005357Y-31896428D01*
X126957738Y-32086904D01*
X126910119Y-32182142D01*
X126862500Y-32229761D01*
X126767261Y-32277380D01*
X126672023Y-32277380D01*
X126576785Y-32229761D01*
X126529166Y-32182142D01*
X126481547Y-32086904D01*
X126433928Y-31896428D01*
X126433928Y-31658333D01*
X126481547Y-31467857D01*
X126529166Y-31372619D01*
X126576785Y-31325000D01*
X126672023Y-31277380D01*
X127957738Y-32277380D02*
X127386309Y-32277380D01*
X127672023Y-32277380D02*
X127672023Y-31277380D01*
X127576785Y-31420238D01*
X127481547Y-31515476D01*
X127386309Y-31563095D01*
X118100595Y-34027380D02*
X118100595Y-33027380D01*
X118481547Y-33027380D01*
X118576785Y-33075000D01*
X118624404Y-33122619D01*
X118672023Y-33217857D01*
X118672023Y-33360714D01*
X118624404Y-33455952D01*
X118576785Y-33503571D01*
X118481547Y-33551190D01*
X118100595Y-33551190D01*
X119100595Y-34027380D02*
X119100595Y-33027380D01*
X119672023Y-34027380D01*
X119672023Y-33027380D01*
X120148214Y-33932142D02*
X120195833Y-33979761D01*
X120148214Y-34027380D01*
X120100595Y-33979761D01*
X120148214Y-33932142D01*
X120148214Y-34027380D01*
X120148214Y-33408333D02*
X120195833Y-33455952D01*
X120148214Y-33503571D01*
X120100595Y-33455952D01*
X120148214Y-33408333D01*
X120148214Y-33503571D01*
X121291071Y-33027380D02*
X121910119Y-33027380D01*
X121576785Y-33408333D01*
X121719642Y-33408333D01*
X121814880Y-33455952D01*
X121862500Y-33503571D01*
X121910119Y-33598809D01*
X121910119Y-33836904D01*
X121862500Y-33932142D01*
X121814880Y-33979761D01*
X121719642Y-34027380D01*
X121433928Y-34027380D01*
X121338690Y-33979761D01*
X121291071Y-33932142D01*
X122529166Y-33027380D02*
X122624404Y-33027380D01*
X122719642Y-33075000D01*
X122767261Y-33122619D01*
X122814880Y-33217857D01*
X122862500Y-33408333D01*
X122862500Y-33646428D01*
X122814880Y-33836904D01*
X122767261Y-33932142D01*
X122719642Y-33979761D01*
X122624404Y-34027380D01*
X122529166Y-34027380D01*
X122433928Y-33979761D01*
X122386309Y-33932142D01*
X122338690Y-33836904D01*
X122291071Y-33646428D01*
X122291071Y-33408333D01*
X122338690Y-33217857D01*
X122386309Y-33122619D01*
X122433928Y-33075000D01*
X122529166Y-33027380D01*
X123719642Y-33360714D02*
X123719642Y-34027380D01*
X123481547Y-32979761D02*
X123243452Y-33694047D01*
X123862500Y-33694047D01*
X124243452Y-33646428D02*
X125005357Y-33646428D01*
X125672023Y-33027380D02*
X125767261Y-33027380D01*
X125862500Y-33075000D01*
X125910119Y-33122619D01*
X125957738Y-33217857D01*
X126005357Y-33408333D01*
X126005357Y-33646428D01*
X125957738Y-33836904D01*
X125910119Y-33932142D01*
X125862500Y-33979761D01*
X125767261Y-34027380D01*
X125672023Y-34027380D01*
X125576785Y-33979761D01*
X125529166Y-33932142D01*
X125481547Y-33836904D01*
X125433928Y-33646428D01*
X125433928Y-33408333D01*
X125481547Y-33217857D01*
X125529166Y-33122619D01*
X125576785Y-33075000D01*
X125672023Y-33027380D01*
X126957738Y-34027380D02*
X126386309Y-34027380D01*
X126672023Y-34027380D02*
X126672023Y-33027380D01*
X126576785Y-33170238D01*
X126481547Y-33265476D01*
X126386309Y-33313095D01*
X127576785Y-33027380D02*
X127672023Y-33027380D01*
X127767261Y-33075000D01*
X127814880Y-33122619D01*
X127862500Y-33217857D01*
X127910119Y-33408333D01*
X127910119Y-33646428D01*
X127862500Y-33836904D01*
X127814880Y-33932142D01*
X127767261Y-33979761D01*
X127672023Y-34027380D01*
X127576785Y-34027380D01*
X127481547Y-33979761D01*
X127433928Y-33932142D01*
X127386309Y-33836904D01*
X127338690Y-33646428D01*
X127338690Y-33408333D01*
X127386309Y-33217857D01*
X127433928Y-33122619D01*
X127481547Y-33075000D01*
X127576785Y-33027380D01*
X118672023Y-35777380D02*
X118338690Y-35301190D01*
X118100595Y-35777380D02*
X118100595Y-34777380D01*
X118481547Y-34777380D01*
X118576785Y-34825000D01*
X118624404Y-34872619D01*
X118672023Y-34967857D01*
X118672023Y-35110714D01*
X118624404Y-35205952D01*
X118576785Y-35253571D01*
X118481547Y-35301190D01*
X118100595Y-35301190D01*
X119481547Y-35729761D02*
X119386309Y-35777380D01*
X119195833Y-35777380D01*
X119100595Y-35729761D01*
X119052976Y-35634523D01*
X119052976Y-35253571D01*
X119100595Y-35158333D01*
X119195833Y-35110714D01*
X119386309Y-35110714D01*
X119481547Y-35158333D01*
X119529166Y-35253571D01*
X119529166Y-35348809D01*
X119052976Y-35444047D01*
X119862500Y-35110714D02*
X120100595Y-35777380D01*
X120338690Y-35110714D01*
X120719642Y-35682142D02*
X120767261Y-35729761D01*
X120719642Y-35777380D01*
X120672023Y-35729761D01*
X120719642Y-35682142D01*
X120719642Y-35777380D01*
X120719642Y-35158333D02*
X120767261Y-35205952D01*
X120719642Y-35253571D01*
X120672023Y-35205952D01*
X120719642Y-35158333D01*
X120719642Y-35253571D01*
X122291071Y-35253571D02*
X122433928Y-35301190D01*
X122481547Y-35348809D01*
X122529166Y-35444047D01*
X122529166Y-35586904D01*
X122481547Y-35682142D01*
X122433928Y-35729761D01*
X122338690Y-35777380D01*
X121957738Y-35777380D01*
X121957738Y-34777380D01*
X122291071Y-34777380D01*
X122386309Y-34825000D01*
X122433928Y-34872619D01*
X122481547Y-34967857D01*
X122481547Y-35063095D01*
X122433928Y-35158333D01*
X122386309Y-35205952D01*
X122291071Y-35253571D01*
X121957738Y-35253571D01*
D11*
X82700000Y-28200000D02*
X162700000Y-28200000D01*
X82700000Y-128200000D02*
X162700000Y-128200000D01*
D13*
X141608114Y-53350000D02*
G75*
G03X141608114Y-53350000I-158114J0D01*
G01*
X139450000Y-52100000D02*
X139450000Y-37100000D01*
X154950000Y-37100000D02*
X154950000Y-52100000D01*
X154950000Y-37100000D02*
X139450000Y-37100000D01*
X154950000Y-52100000D02*
X139450000Y-52100000D01*
X127700000Y-62300000D02*
G75*
G03X127700000Y-62300000I-700000J0D01*
G01*
X147980000Y-67350000D02*
G75*
G03X147980000Y-67350000I-700000J0D01*
G01*
X151780000Y-62150000D02*
G75*
G03X151780000Y-62150000I-700000J0D01*
G01*
X149850000Y-69350000D02*
G75*
G03X149850000Y-69350000I-700000J0D01*
G01*
X126900000Y-73550000D02*
X127900000Y-73550000D01*
X126900000Y-73550000D02*
X126900000Y-72550000D01*
X138650000Y-70350000D02*
X133175000Y-70350000D01*
X138650000Y-71200000D02*
X138650000Y-70350000D01*
X138850000Y-71200000D02*
X138650000Y-71200000D01*
X138850000Y-72000000D02*
X138850000Y-71200000D01*
X138650000Y-72000000D02*
X138850000Y-72000000D01*
X138650000Y-72750000D02*
X138650000Y-72000000D01*
X133175000Y-72750000D02*
X138650000Y-72750000D01*
X127700000Y-70350000D02*
X133175000Y-70350000D01*
X127700000Y-71200000D02*
X127700000Y-70350000D01*
X127500000Y-71200000D02*
X127700000Y-71200000D01*
X127500000Y-72000000D02*
X127500000Y-71200000D01*
X127700000Y-72000000D02*
X127500000Y-72000000D01*
X127700000Y-72750000D02*
X127700000Y-72000000D01*
X133175000Y-72750000D02*
X127700000Y-72750000D01*
X139160000Y-69840000D02*
X127190000Y-69840000D01*
X139160000Y-73260000D02*
X139160000Y-69840000D01*
X127190000Y-73260000D02*
X139160000Y-73260000D01*
X127190000Y-69840000D02*
X127190000Y-73260000D01*
X162700000Y-78200000D02*
X126700000Y-78200000D01*
X162700000Y-121200000D02*
X162700000Y-78200000D01*
X162700000Y-121200000D02*
X126700000Y-121200000D01*
X126700000Y-121200000D02*
X126700000Y-78200000D01*
X147562779Y-34490000D02*
X147237221Y-34490000D01*
X147562779Y-35510000D02*
X147237221Y-35510000D01*
X97190000Y-39150000D02*
X97690000Y-39150000D01*
X97440000Y-39400000D02*
X97440000Y-38900000D01*
X100195563Y-38660000D02*
X101260000Y-37595563D01*
X97804437Y-38660000D02*
X96740000Y-37595563D01*
X97804437Y-38660000D02*
X97940000Y-38660000D01*
X100195563Y-38660000D02*
X100060000Y-38660000D01*
X101260000Y-37595563D02*
X101260000Y-34140000D01*
X96740000Y-37595563D02*
X96740000Y-34140000D01*
X96740000Y-34140000D02*
X97940000Y-34140000D01*
X101260000Y-34140000D02*
X100060000Y-34140000D01*
X151790000Y-68732779D02*
X151790000Y-68407221D01*
X150770000Y-68732779D02*
X150770000Y-68407221D01*
X152370000Y-68407221D02*
X152370000Y-68732779D01*
X153390000Y-68407221D02*
X153390000Y-68732779D01*
X148042779Y-64660000D02*
X147717221Y-64660000D01*
X148042779Y-65680000D02*
X147717221Y-65680000D01*
X112697936Y-79110000D02*
X113902064Y-79110000D01*
X112697936Y-77290000D02*
X113902064Y-77290000D01*
X157500000Y-59700000D02*
X157500000Y-55300000D01*
X161900000Y-59700000D02*
X157500000Y-59700000D01*
X161900000Y-55300000D02*
X161900000Y-59700000D01*
X157500000Y-55300000D02*
X161900000Y-55300000D01*
X86620000Y-113840000D02*
X86620000Y-113840000D01*
X86490000Y-113840000D02*
X86620000Y-113840000D01*
X86490000Y-113840000D02*
X86490000Y-113840000D01*
X86620000Y-113840000D02*
X86490000Y-113840000D01*
X86620000Y-111300000D02*
X86620000Y-111300000D01*
X86490000Y-111300000D02*
X86620000Y-111300000D01*
X86490000Y-111300000D02*
X86490000Y-111300000D01*
X86620000Y-111300000D02*
X86490000Y-111300000D01*
X86490000Y-115130000D02*
X86490000Y-110010000D01*
X82700000Y-115130000D02*
X86490000Y-115130000D01*
X82700000Y-110010000D02*
X82700000Y-115130000D01*
X86490000Y-110010000D02*
X82700000Y-110010000D01*
X86620000Y-119940000D02*
X86620000Y-119940000D01*
X86490000Y-119940000D02*
X86620000Y-119940000D01*
X86490000Y-119940000D02*
X86490000Y-119940000D01*
X86620000Y-119940000D02*
X86490000Y-119940000D01*
X86620000Y-117400000D02*
X86620000Y-117400000D01*
X86490000Y-117400000D02*
X86620000Y-117400000D01*
X86490000Y-117400000D02*
X86490000Y-117400000D01*
X86620000Y-117400000D02*
X86490000Y-117400000D01*
X86490000Y-121230000D02*
X86490000Y-116110000D01*
X82700000Y-121230000D02*
X86490000Y-121230000D01*
X82700000Y-116110000D02*
X82700000Y-121230000D01*
X86490000Y-116110000D02*
X82700000Y-116110000D01*
X86620000Y-107740000D02*
X86620000Y-107740000D01*
X86490000Y-107740000D02*
X86620000Y-107740000D01*
X86490000Y-107740000D02*
X86490000Y-107740000D01*
X86620000Y-107740000D02*
X86490000Y-107740000D01*
X86620000Y-105200000D02*
X86620000Y-105200000D01*
X86490000Y-105200000D02*
X86620000Y-105200000D01*
X86490000Y-105200000D02*
X86490000Y-105200000D01*
X86620000Y-105200000D02*
X86490000Y-105200000D01*
X86490000Y-109030000D02*
X86490000Y-103910000D01*
X82700000Y-109030000D02*
X86490000Y-109030000D01*
X82700000Y-103910000D02*
X82700000Y-109030000D01*
X86490000Y-103910000D02*
X82700000Y-103910000D01*
D14*
X84500000Y-92800000D02*
G75*
G02X84500000Y-93400000I0J-300000D01*
G01*
X83800000Y-92800000D02*
X84500000Y-92800000D01*
X84500000Y-93400000D02*
X83800000Y-93400000D01*
X83800000Y-93400000D02*
G75*
G02X83800000Y-92800000I0J300000D01*
G01*
X84500000Y-99800000D02*
G75*
G02X84500000Y-100400000I0J-300000D01*
G01*
X83800000Y-99800000D02*
X84500000Y-99800000D01*
X84500000Y-100400000D02*
X83800000Y-100400000D01*
X83800000Y-100400000D02*
G75*
G02X83800000Y-99800000I0J300000D01*
G01*
D15*
X82000000Y-92850000D02*
X82000000Y-100350000D01*
X83000000Y-92850000D02*
X82000000Y-92850000D01*
X83000000Y-100350000D02*
X82000000Y-100350000D01*
D13*
X88061600Y-95294440D02*
G75*
G03X88061600Y-95294440I-177800J0D01*
G01*
D15*
X149950000Y-63875000D02*
X149950000Y-66525000D01*
X149950000Y-66525000D02*
X153450000Y-66525000D01*
X153450000Y-66525000D02*
X153450000Y-63875000D01*
X153450000Y-63875000D02*
X149950000Y-63875000D01*
D16*
X150450000Y-66937500D02*
G75*
G03X150450000Y-66937500I-100000J0D01*
G01*
D13*
X95022401Y-43620976D02*
X95022401Y-43385749D01*
X95022401Y-36178776D02*
X94647181Y-36178776D01*
X80773001Y-36178776D02*
X80773001Y-43620976D01*
X80773001Y-43620976D02*
X93953150Y-43620976D01*
X81027001Y-40026876D02*
X81027001Y-39772876D01*
X81027001Y-39772876D02*
X80773001Y-39772876D01*
X80773001Y-39772876D02*
X80773001Y-40026876D01*
X80773001Y-40026876D02*
X81027001Y-40026876D01*
X95022401Y-36413886D02*
X95022401Y-36178776D01*
X93952823Y-36178776D02*
X80773001Y-36178776D01*
X95022401Y-41913885D02*
X95022401Y-37885750D01*
X94646854Y-43620976D02*
X95022401Y-43620976D01*
X86970000Y-52790000D02*
X87200000Y-52790000D01*
X83300000Y-53310000D02*
X83300000Y-45590000D01*
X83300000Y-45590000D02*
X87200000Y-45590000D01*
X90310000Y-53310000D02*
X90310000Y-52790000D01*
X83300000Y-53310000D02*
X87200000Y-53310000D01*
X86970000Y-46110000D02*
X87200000Y-46110000D01*
X89800000Y-52790000D02*
X90310000Y-52790000D01*
X89800000Y-53310000D02*
X90310000Y-53310000D01*
X86970000Y-46650000D02*
X86970000Y-46110000D01*
X89800000Y-46110000D02*
X90310000Y-46110000D01*
X90310000Y-46110000D02*
X90310000Y-45590000D01*
X89800000Y-45590000D02*
X90310000Y-45590000D01*
X86970000Y-52790000D02*
X86970000Y-52250000D01*
X86970000Y-51150000D02*
X86970000Y-47750000D01*
X93700000Y-100000000D02*
G75*
G03X93700000Y-100000000I-700000J0D01*
G01*
X93700000Y-95800000D02*
G75*
G03X93700000Y-95800000I-700000J0D01*
G01*
X139290000Y-55037221D02*
X139290000Y-55362779D01*
X140310000Y-55037221D02*
X140310000Y-55362779D01*
X140890000Y-55037221D02*
X140890000Y-55362779D01*
X141910000Y-55037221D02*
X141910000Y-55362779D01*
X143290000Y-55037221D02*
X143290000Y-55362779D01*
X144310000Y-55037221D02*
X144310000Y-55362779D01*
X144890000Y-55037221D02*
X144890000Y-55362779D01*
X145910000Y-55037221D02*
X145910000Y-55362779D01*
X136200000Y-65720000D02*
X136200000Y-66180000D01*
X139320000Y-62600000D02*
G75*
G03X139320000Y-62600000I-3120000J0D01*
G01*
X91360000Y-106962779D02*
X91360000Y-106637221D01*
X90340000Y-106962779D02*
X90340000Y-106637221D01*
X137510000Y-34962779D02*
X137510000Y-34637221D01*
X136490000Y-34962779D02*
X136490000Y-34637221D01*
X139310000Y-34962779D02*
X139310000Y-34637221D01*
X138290000Y-34962779D02*
X138290000Y-34637221D01*
X129810000Y-67708578D02*
X129810000Y-67191422D01*
X128390000Y-67708578D02*
X128390000Y-67191422D01*
X98660000Y-113050000D02*
X98160000Y-113050000D01*
X98410000Y-112800000D02*
X98410000Y-113300000D01*
X95654437Y-113540000D02*
X94590000Y-114604437D01*
X98045563Y-113540000D02*
X99110000Y-114604437D01*
X98045563Y-113540000D02*
X97910000Y-113540000D01*
X95654437Y-113540000D02*
X95790000Y-113540000D01*
X94590000Y-114604437D02*
X94590000Y-118060000D01*
X99110000Y-114604437D02*
X99110000Y-118060000D01*
X99110000Y-118060000D02*
X97910000Y-118060000D01*
X94590000Y-118060000D02*
X95790000Y-118060000D01*
X97850000Y-107550000D02*
X97850000Y-111450000D01*
X95850000Y-107550000D02*
X95850000Y-111450000D01*
X97850000Y-107550000D02*
X95850000Y-107550000D01*
X132200000Y-36470000D02*
X133530000Y-36470000D01*
X133530000Y-36470000D02*
X133530000Y-37800000D01*
X130930000Y-36470000D02*
X130930000Y-39070000D01*
X130930000Y-39070000D02*
X133530000Y-39070000D01*
X133530000Y-39070000D02*
X133530000Y-54370000D01*
X128330000Y-54370000D02*
X133530000Y-54370000D01*
X128330000Y-36470000D02*
X128330000Y-54370000D01*
X128330000Y-36470000D02*
X130930000Y-36470000D01*
X91940000Y-106637221D02*
X91940000Y-106962779D01*
X92960000Y-106637221D02*
X92960000Y-106962779D01*
X132410000Y-62862779D02*
X132410000Y-62537221D01*
X131390000Y-62862779D02*
X131390000Y-62537221D01*
X128437221Y-60810000D02*
X128762779Y-60810000D01*
X128437221Y-59790000D02*
X128762779Y-59790000D01*
X128440000Y-62100000D02*
X128440000Y-63500000D01*
X130760000Y-63500000D02*
X130760000Y-61600000D01*
X92040000Y-109500000D02*
X92040000Y-111300000D01*
X95260000Y-111300000D02*
X95260000Y-108850000D01*
X83170000Y-56775000D02*
X95510000Y-56775000D01*
X95510000Y-56775000D02*
X95510000Y-87745000D01*
X95510000Y-87745000D02*
X83170000Y-87745000D01*
X96404338Y-77550000D02*
X96404338Y-78050000D01*
X96404338Y-78050000D02*
X95971325Y-77800000D01*
X95971325Y-77800000D02*
X96404338Y-77550000D01*
X146100000Y-57900000D02*
G75*
G03X146100000Y-57900000I-700000J0D01*
G01*
X142100000Y-57900000D02*
G75*
G03X142100000Y-57900000I-700000J0D01*
G01*
X89000000Y-91600000D02*
G75*
G03X89000000Y-91600000I-700000J0D01*
G01*
X98490000Y-110141422D02*
X98490000Y-110658578D01*
X99910000Y-110141422D02*
X99910000Y-110658578D01*
X93700000Y-97900000D02*
G75*
G03X93700000Y-97900000I-700000J0D01*
G01*
X109860000Y-116840000D02*
X109860000Y-121200000D01*
X123740000Y-116840000D02*
X116740000Y-116840000D01*
X123740000Y-39560000D02*
X123740000Y-116840000D01*
X116740000Y-39560000D02*
X123740000Y-39560000D01*
X102860000Y-116840000D02*
X109860000Y-116840000D01*
X102860000Y-39560000D02*
X102860000Y-116840000D01*
X109860000Y-39560000D02*
X102880000Y-39560000D01*
D17*
X107300000Y-34450000D02*
X107300000Y-36950000D01*
X107300000Y-121950000D02*
X107300000Y-119450000D01*
X108550000Y-120700000D02*
X106050000Y-120700000D01*
D13*
X138300000Y-49000000D02*
G75*
G03X138300000Y-49000000I-700000J0D01*
G01*
X148500000Y-55400000D02*
G75*
G03X148500000Y-55400000I-700000J0D01*
G01*
X144900000Y-34600000D02*
G75*
G03X144900000Y-34600000I-700000J0D01*
G01*
X132300000Y-68300000D02*
G75*
G03X132300000Y-68300000I-700000J0D01*
G01*
D10*
X155552380Y-52261904D02*
X156361904Y-52261904D01*
X156457142Y-52214285D01*
X156504761Y-52166666D01*
X156552380Y-52071428D01*
X156552380Y-51880952D01*
X156504761Y-51785714D01*
X156457142Y-51738095D01*
X156361904Y-51690476D01*
X155552380Y-51690476D01*
X155552380Y-50785714D02*
X155552380Y-50976190D01*
X155600000Y-51071428D01*
X155647619Y-51119047D01*
X155790476Y-51214285D01*
X155980952Y-51261904D01*
X156361904Y-51261904D01*
X156457142Y-51214285D01*
X156504761Y-51166666D01*
X156552380Y-51071428D01*
X156552380Y-50880952D01*
X156504761Y-50785714D01*
X156457142Y-50738095D01*
X156361904Y-50690476D01*
X156123809Y-50690476D01*
X156028571Y-50738095D01*
X155980952Y-50785714D01*
X155933333Y-50880952D01*
X155933333Y-51071428D01*
X155980952Y-51166666D01*
X156028571Y-51214285D01*
X156123809Y-51261904D01*
X125152380Y-60538095D02*
X125152380Y-59966666D01*
X126152380Y-60252380D02*
X125152380Y-60252380D01*
X126152380Y-59633333D02*
X125152380Y-59633333D01*
X125152380Y-59252380D01*
X125200000Y-59157142D01*
X125247619Y-59109523D01*
X125342857Y-59061904D01*
X125485714Y-59061904D01*
X125580952Y-59109523D01*
X125628571Y-59157142D01*
X125676190Y-59252380D01*
X125676190Y-59633333D01*
X125152380Y-58728571D02*
X125152380Y-58061904D01*
X126152380Y-58490476D01*
X125247619Y-57728571D02*
X125200000Y-57680952D01*
X125152380Y-57585714D01*
X125152380Y-57347619D01*
X125200000Y-57252380D01*
X125247619Y-57204761D01*
X125342857Y-57157142D01*
X125438095Y-57157142D01*
X125580952Y-57204761D01*
X126152380Y-57776190D01*
X126152380Y-57157142D01*
X144761904Y-68352380D02*
X145333333Y-68352380D01*
X145047619Y-69352380D02*
X145047619Y-68352380D01*
X145666666Y-69352380D02*
X145666666Y-68352380D01*
X146047619Y-68352380D01*
X146142857Y-68400000D01*
X146190476Y-68447619D01*
X146238095Y-68542857D01*
X146238095Y-68685714D01*
X146190476Y-68780952D01*
X146142857Y-68828571D01*
X146047619Y-68876190D01*
X145666666Y-68876190D01*
X147095238Y-68685714D02*
X147095238Y-69352380D01*
X146857142Y-68304761D02*
X146619047Y-69019047D01*
X147238095Y-69019047D01*
X147666666Y-69352380D02*
X147857142Y-69352380D01*
X147952380Y-69304761D01*
X148000000Y-69257142D01*
X148095238Y-69114285D01*
X148142857Y-68923809D01*
X148142857Y-68542857D01*
X148095238Y-68447619D01*
X148047619Y-68400000D01*
X147952380Y-68352380D01*
X147761904Y-68352380D01*
X147666666Y-68400000D01*
X147619047Y-68447619D01*
X147571428Y-68542857D01*
X147571428Y-68780952D01*
X147619047Y-68876190D01*
X147666666Y-68923809D01*
X147761904Y-68971428D01*
X147952380Y-68971428D01*
X148047619Y-68923809D01*
X148095238Y-68876190D01*
X148142857Y-68780952D01*
X152261904Y-61652380D02*
X152833333Y-61652380D01*
X152547619Y-62652380D02*
X152547619Y-61652380D01*
X153166666Y-62652380D02*
X153166666Y-61652380D01*
X153547619Y-61652380D01*
X153642857Y-61700000D01*
X153690476Y-61747619D01*
X153738095Y-61842857D01*
X153738095Y-61985714D01*
X153690476Y-62080952D01*
X153642857Y-62128571D01*
X153547619Y-62176190D01*
X153166666Y-62176190D01*
X154690476Y-62652380D02*
X154119047Y-62652380D01*
X154404761Y-62652380D02*
X154404761Y-61652380D01*
X154309523Y-61795238D01*
X154214285Y-61890476D01*
X154119047Y-61938095D01*
X155547619Y-61985714D02*
X155547619Y-62652380D01*
X155309523Y-61604761D02*
X155071428Y-62319047D01*
X155690476Y-62319047D01*
X144861904Y-70252380D02*
X145433333Y-70252380D01*
X145147619Y-71252380D02*
X145147619Y-70252380D01*
X145766666Y-71252380D02*
X145766666Y-70252380D01*
X146147619Y-70252380D01*
X146242857Y-70300000D01*
X146290476Y-70347619D01*
X146338095Y-70442857D01*
X146338095Y-70585714D01*
X146290476Y-70680952D01*
X146242857Y-70728571D01*
X146147619Y-70776190D01*
X145766666Y-70776190D01*
X147290476Y-71252380D02*
X146719047Y-71252380D01*
X147004761Y-71252380D02*
X147004761Y-70252380D01*
X146909523Y-70395238D01*
X146814285Y-70490476D01*
X146719047Y-70538095D01*
X147623809Y-70252380D02*
X148242857Y-70252380D01*
X147909523Y-70633333D01*
X148052380Y-70633333D01*
X148147619Y-70680952D01*
X148195238Y-70728571D01*
X148242857Y-70823809D01*
X148242857Y-71061904D01*
X148195238Y-71157142D01*
X148147619Y-71204761D01*
X148052380Y-71252380D01*
X147766666Y-71252380D01*
X147671428Y-71204761D01*
X147623809Y-71157142D01*
X140166666Y-70852380D02*
X140166666Y-71566666D01*
X140119047Y-71709523D01*
X140023809Y-71804761D01*
X139880952Y-71852380D01*
X139785714Y-71852380D01*
X141071428Y-71185714D02*
X141071428Y-71852380D01*
X140833333Y-70804761D02*
X140595238Y-71519047D01*
X141214285Y-71519047D01*
X146580952Y-36852380D02*
X146247619Y-36376190D01*
X146009523Y-36852380D02*
X146009523Y-35852380D01*
X146390476Y-35852380D01*
X146485714Y-35900000D01*
X146533333Y-35947619D01*
X146580952Y-36042857D01*
X146580952Y-36185714D01*
X146533333Y-36280952D01*
X146485714Y-36328571D01*
X146390476Y-36376190D01*
X146009523Y-36376190D01*
X147533333Y-36852380D02*
X146961904Y-36852380D01*
X147247619Y-36852380D02*
X147247619Y-35852380D01*
X147152380Y-35995238D01*
X147057142Y-36090476D01*
X146961904Y-36138095D01*
X147914285Y-35947619D02*
X147961904Y-35900000D01*
X148057142Y-35852380D01*
X148295238Y-35852380D01*
X148390476Y-35900000D01*
X148438095Y-35947619D01*
X148485714Y-36042857D01*
X148485714Y-36138095D01*
X148438095Y-36280952D01*
X147866666Y-36852380D01*
X148485714Y-36852380D01*
X148819047Y-35852380D02*
X149438095Y-35852380D01*
X149104761Y-36233333D01*
X149247619Y-36233333D01*
X149342857Y-36280952D01*
X149390476Y-36328571D01*
X149438095Y-36423809D01*
X149438095Y-36661904D01*
X149390476Y-36757142D01*
X149342857Y-36804761D01*
X149247619Y-36852380D01*
X148961904Y-36852380D01*
X148866666Y-36804761D01*
X148819047Y-36757142D01*
X141857142Y-32342857D02*
X141904761Y-32390476D01*
X141952380Y-32533333D01*
X141952380Y-32628571D01*
X141904761Y-32771428D01*
X141809523Y-32866666D01*
X141714285Y-32914285D01*
X141523809Y-32961904D01*
X141380952Y-32961904D01*
X141190476Y-32914285D01*
X141095238Y-32866666D01*
X141000000Y-32771428D01*
X140952380Y-32628571D01*
X140952380Y-32533333D01*
X141000000Y-32390476D01*
X141047619Y-32342857D01*
X141047619Y-31961904D02*
X141000000Y-31914285D01*
X140952380Y-31819047D01*
X140952380Y-31580952D01*
X141000000Y-31485714D01*
X141047619Y-31438095D01*
X141142857Y-31390476D01*
X141238095Y-31390476D01*
X141380952Y-31438095D01*
X141952380Y-32009523D01*
X141952380Y-31390476D01*
X140952380Y-30533333D02*
X140952380Y-30723809D01*
X141000000Y-30819047D01*
X141047619Y-30866666D01*
X141190476Y-30961904D01*
X141380952Y-31009523D01*
X141761904Y-31009523D01*
X141857142Y-30961904D01*
X141904761Y-30914285D01*
X141952380Y-30819047D01*
X141952380Y-30628571D01*
X141904761Y-30533333D01*
X141857142Y-30485714D01*
X141761904Y-30438095D01*
X141523809Y-30438095D01*
X141428571Y-30485714D01*
X141380952Y-30533333D01*
X141333333Y-30628571D01*
X141333333Y-30819047D01*
X141380952Y-30914285D01*
X141428571Y-30961904D01*
X141523809Y-31009523D01*
X140457142Y-32342857D02*
X140504761Y-32390476D01*
X140552380Y-32533333D01*
X140552380Y-32628571D01*
X140504761Y-32771428D01*
X140409523Y-32866666D01*
X140314285Y-32914285D01*
X140123809Y-32961904D01*
X139980952Y-32961904D01*
X139790476Y-32914285D01*
X139695238Y-32866666D01*
X139600000Y-32771428D01*
X139552380Y-32628571D01*
X139552380Y-32533333D01*
X139600000Y-32390476D01*
X139647619Y-32342857D01*
X139552380Y-32009523D02*
X139552380Y-31390476D01*
X139933333Y-31723809D01*
X139933333Y-31580952D01*
X139980952Y-31485714D01*
X140028571Y-31438095D01*
X140123809Y-31390476D01*
X140361904Y-31390476D01*
X140457142Y-31438095D01*
X140504761Y-31485714D01*
X140552380Y-31580952D01*
X140552380Y-31866666D01*
X140504761Y-31961904D01*
X140457142Y-32009523D01*
X139552380Y-31057142D02*
X139552380Y-30438095D01*
X139933333Y-30771428D01*
X139933333Y-30628571D01*
X139980952Y-30533333D01*
X140028571Y-30485714D01*
X140123809Y-30438095D01*
X140361904Y-30438095D01*
X140457142Y-30485714D01*
X140504761Y-30533333D01*
X140552380Y-30628571D01*
X140552380Y-30914285D01*
X140504761Y-31009523D01*
X140457142Y-31057142D01*
X149457142Y-60842857D02*
X149504761Y-60890476D01*
X149552380Y-61033333D01*
X149552380Y-61128571D01*
X149504761Y-61271428D01*
X149409523Y-61366666D01*
X149314285Y-61414285D01*
X149123809Y-61461904D01*
X148980952Y-61461904D01*
X148790476Y-61414285D01*
X148695238Y-61366666D01*
X148600000Y-61271428D01*
X148552380Y-61128571D01*
X148552380Y-61033333D01*
X148600000Y-60890476D01*
X148647619Y-60842857D01*
X148552380Y-60509523D02*
X148552380Y-59890476D01*
X148933333Y-60223809D01*
X148933333Y-60080952D01*
X148980952Y-59985714D01*
X149028571Y-59938095D01*
X149123809Y-59890476D01*
X149361904Y-59890476D01*
X149457142Y-59938095D01*
X149504761Y-59985714D01*
X149552380Y-60080952D01*
X149552380Y-60366666D01*
X149504761Y-60461904D01*
X149457142Y-60509523D01*
X149552380Y-59414285D02*
X149552380Y-59223809D01*
X149504761Y-59128571D01*
X149457142Y-59080952D01*
X149314285Y-58985714D01*
X149123809Y-58938095D01*
X148742857Y-58938095D01*
X148647619Y-58985714D01*
X148600000Y-59033333D01*
X148552380Y-59128571D01*
X148552380Y-59319047D01*
X148600000Y-59414285D01*
X148647619Y-59461904D01*
X148742857Y-59509523D01*
X148980952Y-59509523D01*
X149076190Y-59461904D01*
X149123809Y-59414285D01*
X149171428Y-59319047D01*
X149171428Y-59128571D01*
X149123809Y-59033333D01*
X149076190Y-58985714D01*
X148980952Y-58938095D01*
X97157142Y-32557142D02*
X97109523Y-32604761D01*
X96966666Y-32652380D01*
X96871428Y-32652380D01*
X96728571Y-32604761D01*
X96633333Y-32509523D01*
X96585714Y-32414285D01*
X96538095Y-32223809D01*
X96538095Y-32080952D01*
X96585714Y-31890476D01*
X96633333Y-31795238D01*
X96728571Y-31700000D01*
X96871428Y-31652380D01*
X96966666Y-31652380D01*
X97109523Y-31700000D01*
X97157142Y-31747619D01*
X97490476Y-31652380D02*
X98157142Y-31652380D01*
X97728571Y-32652380D01*
X99061904Y-32652380D02*
X98490476Y-32652380D01*
X98776190Y-32652380D02*
X98776190Y-31652380D01*
X98680952Y-31795238D01*
X98585714Y-31890476D01*
X98490476Y-31938095D01*
X150852380Y-72142857D02*
X150376190Y-72476190D01*
X150852380Y-72714285D02*
X149852380Y-72714285D01*
X149852380Y-72333333D01*
X149900000Y-72238095D01*
X149947619Y-72190476D01*
X150042857Y-72142857D01*
X150185714Y-72142857D01*
X150280952Y-72190476D01*
X150328571Y-72238095D01*
X150376190Y-72333333D01*
X150376190Y-72714285D01*
X150852380Y-71666666D02*
X150852380Y-71476190D01*
X150804761Y-71380952D01*
X150757142Y-71333333D01*
X150614285Y-71238095D01*
X150423809Y-71190476D01*
X150042857Y-71190476D01*
X149947619Y-71238095D01*
X149900000Y-71285714D01*
X149852380Y-71380952D01*
X149852380Y-71571428D01*
X149900000Y-71666666D01*
X149947619Y-71714285D01*
X150042857Y-71761904D01*
X150280952Y-71761904D01*
X150376190Y-71714285D01*
X150423809Y-71666666D01*
X150471428Y-71571428D01*
X150471428Y-71380952D01*
X150423809Y-71285714D01*
X150376190Y-71238095D01*
X150280952Y-71190476D01*
X149852380Y-70333333D02*
X149852380Y-70523809D01*
X149900000Y-70619047D01*
X149947619Y-70666666D01*
X150090476Y-70761904D01*
X150280952Y-70809523D01*
X150661904Y-70809523D01*
X150757142Y-70761904D01*
X150804761Y-70714285D01*
X150852380Y-70619047D01*
X150852380Y-70428571D01*
X150804761Y-70333333D01*
X150757142Y-70285714D01*
X150661904Y-70238095D01*
X150423809Y-70238095D01*
X150328571Y-70285714D01*
X150280952Y-70333333D01*
X150233333Y-70428571D01*
X150233333Y-70619047D01*
X150280952Y-70714285D01*
X150328571Y-70761904D01*
X150423809Y-70809523D01*
X154252380Y-72242857D02*
X153776190Y-72576190D01*
X154252380Y-72814285D02*
X153252380Y-72814285D01*
X153252380Y-72433333D01*
X153300000Y-72338095D01*
X153347619Y-72290476D01*
X153442857Y-72242857D01*
X153585714Y-72242857D01*
X153680952Y-72290476D01*
X153728571Y-72338095D01*
X153776190Y-72433333D01*
X153776190Y-72814285D01*
X154252380Y-71766666D02*
X154252380Y-71576190D01*
X154204761Y-71480952D01*
X154157142Y-71433333D01*
X154014285Y-71338095D01*
X153823809Y-71290476D01*
X153442857Y-71290476D01*
X153347619Y-71338095D01*
X153300000Y-71385714D01*
X153252380Y-71480952D01*
X153252380Y-71671428D01*
X153300000Y-71766666D01*
X153347619Y-71814285D01*
X153442857Y-71861904D01*
X153680952Y-71861904D01*
X153776190Y-71814285D01*
X153823809Y-71766666D01*
X153871428Y-71671428D01*
X153871428Y-71480952D01*
X153823809Y-71385714D01*
X153776190Y-71338095D01*
X153680952Y-71290476D01*
X153252380Y-70957142D02*
X153252380Y-70290476D01*
X154252380Y-70719047D01*
X144157142Y-67852380D02*
X143823809Y-67376190D01*
X143585714Y-67852380D02*
X143585714Y-66852380D01*
X143966666Y-66852380D01*
X144061904Y-66900000D01*
X144109523Y-66947619D01*
X144157142Y-67042857D01*
X144157142Y-67185714D01*
X144109523Y-67280952D01*
X144061904Y-67328571D01*
X143966666Y-67376190D01*
X143585714Y-67376190D01*
X144633333Y-67852380D02*
X144823809Y-67852380D01*
X144919047Y-67804761D01*
X144966666Y-67757142D01*
X145061904Y-67614285D01*
X145109523Y-67423809D01*
X145109523Y-67042857D01*
X145061904Y-66947619D01*
X145014285Y-66900000D01*
X144919047Y-66852380D01*
X144728571Y-66852380D01*
X144633333Y-66900000D01*
X144585714Y-66947619D01*
X144538095Y-67042857D01*
X144538095Y-67280952D01*
X144585714Y-67376190D01*
X144633333Y-67423809D01*
X144728571Y-67471428D01*
X144919047Y-67471428D01*
X145014285Y-67423809D01*
X145061904Y-67376190D01*
X145109523Y-67280952D01*
X145585714Y-67852380D02*
X145776190Y-67852380D01*
X145871428Y-67804761D01*
X145919047Y-67757142D01*
X146014285Y-67614285D01*
X146061904Y-67423809D01*
X146061904Y-67042857D01*
X146014285Y-66947619D01*
X145966666Y-66900000D01*
X145871428Y-66852380D01*
X145680952Y-66852380D01*
X145585714Y-66900000D01*
X145538095Y-66947619D01*
X145490476Y-67042857D01*
X145490476Y-67280952D01*
X145538095Y-67376190D01*
X145585714Y-67423809D01*
X145680952Y-67471428D01*
X145871428Y-67471428D01*
X145966666Y-67423809D01*
X146014285Y-67376190D01*
X146061904Y-67280952D01*
X112014285Y-75832380D02*
X112585714Y-75832380D01*
X112300000Y-76832380D02*
X112300000Y-75832380D01*
X112919047Y-76832380D02*
X112919047Y-75832380D01*
X112919047Y-76308571D02*
X113490476Y-76308571D01*
X113490476Y-76832380D02*
X113490476Y-75832380D01*
X113919047Y-75927619D02*
X113966666Y-75880000D01*
X114061904Y-75832380D01*
X114300000Y-75832380D01*
X114395238Y-75880000D01*
X114442857Y-75927619D01*
X114490476Y-76022857D01*
X114490476Y-76118095D01*
X114442857Y-76260952D01*
X113871428Y-76832380D01*
X114490476Y-76832380D01*
X158438095Y-53852380D02*
X159009523Y-53852380D01*
X158723809Y-54852380D02*
X158723809Y-53852380D01*
X159342857Y-54852380D02*
X159342857Y-53852380D01*
X159723809Y-53852380D01*
X159819047Y-53900000D01*
X159866666Y-53947619D01*
X159914285Y-54042857D01*
X159914285Y-54185714D01*
X159866666Y-54280952D01*
X159819047Y-54328571D01*
X159723809Y-54376190D01*
X159342857Y-54376190D01*
X160390476Y-54852380D02*
X160580952Y-54852380D01*
X160676190Y-54804761D01*
X160723809Y-54757142D01*
X160819047Y-54614285D01*
X160866666Y-54423809D01*
X160866666Y-54042857D01*
X160819047Y-53947619D01*
X160771428Y-53900000D01*
X160676190Y-53852380D01*
X160485714Y-53852380D01*
X160390476Y-53900000D01*
X160342857Y-53947619D01*
X160295238Y-54042857D01*
X160295238Y-54280952D01*
X160342857Y-54376190D01*
X160390476Y-54423809D01*
X160485714Y-54471428D01*
X160676190Y-54471428D01*
X160771428Y-54423809D01*
X160819047Y-54376190D01*
X160866666Y-54280952D01*
X126857142Y-75942857D02*
X126904761Y-75990476D01*
X126952380Y-76133333D01*
X126952380Y-76228571D01*
X126904761Y-76371428D01*
X126809523Y-76466666D01*
X126714285Y-76514285D01*
X126523809Y-76561904D01*
X126380952Y-76561904D01*
X126190476Y-76514285D01*
X126095238Y-76466666D01*
X126000000Y-76371428D01*
X125952380Y-76228571D01*
X125952380Y-76133333D01*
X126000000Y-75990476D01*
X126047619Y-75942857D01*
X126285714Y-75085714D02*
X126952380Y-75085714D01*
X125904761Y-75323809D02*
X126619047Y-75561904D01*
X126619047Y-74942857D01*
X126047619Y-74609523D02*
X126000000Y-74561904D01*
X125952380Y-74466666D01*
X125952380Y-74228571D01*
X126000000Y-74133333D01*
X126047619Y-74085714D01*
X126142857Y-74038095D01*
X126238095Y-74038095D01*
X126380952Y-74085714D01*
X126952380Y-74657142D01*
X126952380Y-74038095D01*
X148557142Y-33957142D02*
X148509523Y-34004761D01*
X148366666Y-34052380D01*
X148271428Y-34052380D01*
X148128571Y-34004761D01*
X148033333Y-33909523D01*
X147985714Y-33814285D01*
X147938095Y-33623809D01*
X147938095Y-33480952D01*
X147985714Y-33290476D01*
X148033333Y-33195238D01*
X148128571Y-33100000D01*
X148271428Y-33052380D01*
X148366666Y-33052380D01*
X148509523Y-33100000D01*
X148557142Y-33147619D01*
X148890476Y-33052380D02*
X149557142Y-33052380D01*
X149128571Y-34052380D01*
X150128571Y-33052380D02*
X150223809Y-33052380D01*
X150319047Y-33100000D01*
X150366666Y-33147619D01*
X150414285Y-33242857D01*
X150461904Y-33433333D01*
X150461904Y-33671428D01*
X150414285Y-33861904D01*
X150366666Y-33957142D01*
X150319047Y-34004761D01*
X150223809Y-34052380D01*
X150128571Y-34052380D01*
X150033333Y-34004761D01*
X149985714Y-33957142D01*
X149938095Y-33861904D01*
X149890476Y-33671428D01*
X149890476Y-33433333D01*
X149938095Y-33242857D01*
X149985714Y-33147619D01*
X150033333Y-33100000D01*
X150128571Y-33052380D01*
X89952380Y-113784285D02*
X88952380Y-113784285D01*
X88952380Y-113546190D01*
X89000000Y-113403333D01*
X89095238Y-113308095D01*
X89190476Y-113260476D01*
X89380952Y-113212857D01*
X89523809Y-113212857D01*
X89714285Y-113260476D01*
X89809523Y-113308095D01*
X89904761Y-113403333D01*
X89952380Y-113546190D01*
X89952380Y-113784285D01*
X89952380Y-112260476D02*
X89952380Y-112831904D01*
X89952380Y-112546190D02*
X88952380Y-112546190D01*
X89095238Y-112641428D01*
X89190476Y-112736666D01*
X89238095Y-112831904D01*
X89285714Y-111403333D02*
X89952380Y-111403333D01*
X88904761Y-111641428D02*
X89619047Y-111879523D01*
X89619047Y-111260476D01*
X89952380Y-119914285D02*
X88952380Y-119914285D01*
X88952380Y-119676190D01*
X89000000Y-119533333D01*
X89095238Y-119438095D01*
X89190476Y-119390476D01*
X89380952Y-119342857D01*
X89523809Y-119342857D01*
X89714285Y-119390476D01*
X89809523Y-119438095D01*
X89904761Y-119533333D01*
X89952380Y-119676190D01*
X89952380Y-119914285D01*
X89952380Y-118390476D02*
X89952380Y-118961904D01*
X89952380Y-118676190D02*
X88952380Y-118676190D01*
X89095238Y-118771428D01*
X89190476Y-118866666D01*
X89238095Y-118961904D01*
X88952380Y-118057142D02*
X88952380Y-117438095D01*
X89333333Y-117771428D01*
X89333333Y-117628571D01*
X89380952Y-117533333D01*
X89428571Y-117485714D01*
X89523809Y-117438095D01*
X89761904Y-117438095D01*
X89857142Y-117485714D01*
X89904761Y-117533333D01*
X89952380Y-117628571D01*
X89952380Y-117914285D01*
X89904761Y-118009523D01*
X89857142Y-118057142D01*
X89952380Y-107208095D02*
X88952380Y-107208095D01*
X88952380Y-106970000D01*
X89000000Y-106827142D01*
X89095238Y-106731904D01*
X89190476Y-106684285D01*
X89380952Y-106636666D01*
X89523809Y-106636666D01*
X89714285Y-106684285D01*
X89809523Y-106731904D01*
X89904761Y-106827142D01*
X89952380Y-106970000D01*
X89952380Y-107208095D01*
X89380952Y-106065238D02*
X89333333Y-106160476D01*
X89285714Y-106208095D01*
X89190476Y-106255714D01*
X89142857Y-106255714D01*
X89047619Y-106208095D01*
X89000000Y-106160476D01*
X88952380Y-106065238D01*
X88952380Y-105874761D01*
X89000000Y-105779523D01*
X89047619Y-105731904D01*
X89142857Y-105684285D01*
X89190476Y-105684285D01*
X89285714Y-105731904D01*
X89333333Y-105779523D01*
X89380952Y-105874761D01*
X89380952Y-106065238D01*
X89428571Y-106160476D01*
X89476190Y-106208095D01*
X89571428Y-106255714D01*
X89761904Y-106255714D01*
X89857142Y-106208095D01*
X89904761Y-106160476D01*
X89952380Y-106065238D01*
X89952380Y-105874761D01*
X89904761Y-105779523D01*
X89857142Y-105731904D01*
X89761904Y-105684285D01*
X89571428Y-105684285D01*
X89476190Y-105731904D01*
X89428571Y-105779523D01*
X89380952Y-105874761D01*
X158166666Y-42428571D02*
X157833333Y-42428571D01*
X157833333Y-42952380D02*
X157833333Y-41952380D01*
X158309523Y-41952380D01*
X159214285Y-42952380D02*
X158642857Y-42952380D01*
X158928571Y-42952380D02*
X158928571Y-41952380D01*
X158833333Y-42095238D01*
X158738095Y-42190476D01*
X158642857Y-42238095D01*
X100166666Y-120428571D02*
X99833333Y-120428571D01*
X99833333Y-120952380D02*
X99833333Y-119952380D01*
X100309523Y-119952380D01*
X100642857Y-120047619D02*
X100690476Y-120000000D01*
X100785714Y-119952380D01*
X101023809Y-119952380D01*
X101119047Y-120000000D01*
X101166666Y-120047619D01*
X101214285Y-120142857D01*
X101214285Y-120238095D01*
X101166666Y-120380952D01*
X100595238Y-120952380D01*
X101214285Y-120952380D01*
D18*
X83149820Y-104005299D02*
X82149820Y-104005299D01*
X82149820Y-103624346D01*
X82197440Y-103529108D01*
X82245059Y-103481489D01*
X82340297Y-103433870D01*
X82483154Y-103433870D01*
X82578392Y-103481489D01*
X82626011Y-103529108D01*
X82673630Y-103624346D01*
X82673630Y-104005299D01*
X83054582Y-102433870D02*
X83102201Y-102481489D01*
X83149820Y-102624346D01*
X83149820Y-102719584D01*
X83102201Y-102862441D01*
X83006963Y-102957680D01*
X82911725Y-103005299D01*
X82721249Y-103052918D01*
X82578392Y-103052918D01*
X82387916Y-103005299D01*
X82292678Y-102957680D01*
X82197440Y-102862441D01*
X82149820Y-102719584D01*
X82149820Y-102624346D01*
X82197440Y-102481489D01*
X82245059Y-102433870D01*
X82626011Y-101671965D02*
X82673630Y-101529108D01*
X82721249Y-101481489D01*
X82816487Y-101433870D01*
X82959344Y-101433870D01*
X83054582Y-101481489D01*
X83102201Y-101529108D01*
X83149820Y-101624346D01*
X83149820Y-102005299D01*
X82149820Y-102005299D01*
X82149820Y-101671965D01*
X82197440Y-101576727D01*
X82245059Y-101529108D01*
X82340297Y-101481489D01*
X82435535Y-101481489D01*
X82530773Y-101529108D01*
X82578392Y-101576727D01*
X82626011Y-101671965D01*
X82626011Y-102005299D01*
X81912440Y-101243394D02*
X81912440Y-100338632D01*
X82626011Y-101005299D02*
X82626011Y-100671965D01*
X83149820Y-100529108D02*
X83149820Y-101005299D01*
X82149820Y-101005299D01*
X82149820Y-100529108D01*
X81912440Y-100338632D02*
X81912440Y-99433870D01*
X83149820Y-99671965D02*
X82149820Y-99671965D01*
X83102201Y-99671965D02*
X83149820Y-99767203D01*
X83149820Y-99957680D01*
X83102201Y-100052918D01*
X83054582Y-100100537D01*
X82959344Y-100148156D01*
X82673630Y-100148156D01*
X82578392Y-100100537D01*
X82530773Y-100052918D01*
X82483154Y-99957680D01*
X82483154Y-99767203D01*
X82530773Y-99671965D01*
X81912440Y-99433870D02*
X81912440Y-98529108D01*
X82483154Y-98767203D02*
X83292678Y-98767203D01*
X83387916Y-98814822D01*
X83435535Y-98862441D01*
X83483154Y-98957680D01*
X83483154Y-99100537D01*
X83435535Y-99195775D01*
X83102201Y-98767203D02*
X83149820Y-98862441D01*
X83149820Y-99052918D01*
X83102201Y-99148156D01*
X83054582Y-99195775D01*
X82959344Y-99243394D01*
X82673630Y-99243394D01*
X82578392Y-99195775D01*
X82530773Y-99148156D01*
X82483154Y-99052918D01*
X82483154Y-98862441D01*
X82530773Y-98767203D01*
X81912440Y-98529108D02*
X81912440Y-97671965D01*
X83102201Y-97910060D02*
X83149820Y-98005299D01*
X83149820Y-98195775D01*
X83102201Y-98291013D01*
X83006963Y-98338632D01*
X82626011Y-98338632D01*
X82530773Y-98291013D01*
X82483154Y-98195775D01*
X82483154Y-98005299D01*
X82530773Y-97910060D01*
X82626011Y-97862441D01*
X82721249Y-97862441D01*
X82816487Y-98338632D01*
D10*
X154752380Y-66438095D02*
X155561904Y-66438095D01*
X155657142Y-66390476D01*
X155704761Y-66342857D01*
X155752380Y-66247619D01*
X155752380Y-66057142D01*
X155704761Y-65961904D01*
X155657142Y-65914285D01*
X155561904Y-65866666D01*
X154752380Y-65866666D01*
X155752380Y-64866666D02*
X155752380Y-65438095D01*
X155752380Y-65152380D02*
X154752380Y-65152380D01*
X154895238Y-65247619D01*
X154990476Y-65342857D01*
X155038095Y-65438095D01*
X154752380Y-64247619D02*
X154752380Y-64152380D01*
X154800000Y-64057142D01*
X154847619Y-64009523D01*
X154942857Y-63961904D01*
X155133333Y-63914285D01*
X155371428Y-63914285D01*
X155561904Y-63961904D01*
X155657142Y-64009523D01*
X155704761Y-64057142D01*
X155752380Y-64152380D01*
X155752380Y-64247619D01*
X155704761Y-64342857D01*
X155657142Y-64390476D01*
X155561904Y-64438095D01*
X155371428Y-64485714D01*
X155133333Y-64485714D01*
X154942857Y-64438095D01*
X154847619Y-64390476D01*
X154800000Y-64342857D01*
X154752380Y-64247619D01*
X93966666Y-34752380D02*
X93966666Y-35466666D01*
X93919047Y-35609523D01*
X93823809Y-35704761D01*
X93680952Y-35752380D01*
X93585714Y-35752380D01*
X94585714Y-35180952D02*
X94490476Y-35133333D01*
X94442857Y-35085714D01*
X94395238Y-34990476D01*
X94395238Y-34942857D01*
X94442857Y-34847619D01*
X94490476Y-34800000D01*
X94585714Y-34752380D01*
X94776190Y-34752380D01*
X94871428Y-34800000D01*
X94919047Y-34847619D01*
X94966666Y-34942857D01*
X94966666Y-34990476D01*
X94919047Y-35085714D01*
X94871428Y-35133333D01*
X94776190Y-35180952D01*
X94585714Y-35180952D01*
X94490476Y-35228571D01*
X94442857Y-35276190D01*
X94395238Y-35371428D01*
X94395238Y-35561904D01*
X94442857Y-35657142D01*
X94490476Y-35704761D01*
X94585714Y-35752380D01*
X94776190Y-35752380D01*
X94871428Y-35704761D01*
X94919047Y-35657142D01*
X94966666Y-35561904D01*
X94966666Y-35371428D01*
X94919047Y-35276190D01*
X94871428Y-35228571D01*
X94776190Y-35180952D01*
X90304761Y-50833333D02*
X90352380Y-50690476D01*
X90352380Y-50452380D01*
X90304761Y-50357142D01*
X90257142Y-50309523D01*
X90161904Y-50261904D01*
X90066666Y-50261904D01*
X89971428Y-50309523D01*
X89923809Y-50357142D01*
X89876190Y-50452380D01*
X89828571Y-50642857D01*
X89780952Y-50738095D01*
X89733333Y-50785714D01*
X89638095Y-50833333D01*
X89542857Y-50833333D01*
X89447619Y-50785714D01*
X89400000Y-50738095D01*
X89352380Y-50642857D01*
X89352380Y-50404761D01*
X89400000Y-50261904D01*
X89352380Y-49928571D02*
X90352380Y-49690476D01*
X89638095Y-49500000D01*
X90352380Y-49309523D01*
X89352380Y-49071428D01*
X89352380Y-48785714D02*
X89352380Y-48166666D01*
X89733333Y-48500000D01*
X89733333Y-48357142D01*
X89780952Y-48261904D01*
X89828571Y-48214285D01*
X89923809Y-48166666D01*
X90161904Y-48166666D01*
X90257142Y-48214285D01*
X90304761Y-48261904D01*
X90352380Y-48357142D01*
X90352380Y-48642857D01*
X90304761Y-48738095D01*
X90257142Y-48785714D01*
X88361904Y-99252380D02*
X88933333Y-99252380D01*
X88647619Y-100252380D02*
X88647619Y-99252380D01*
X89266666Y-100252380D02*
X89266666Y-99252380D01*
X89647619Y-99252380D01*
X89742857Y-99300000D01*
X89790476Y-99347619D01*
X89838095Y-99442857D01*
X89838095Y-99585714D01*
X89790476Y-99680952D01*
X89742857Y-99728571D01*
X89647619Y-99776190D01*
X89266666Y-99776190D01*
X90219047Y-99347619D02*
X90266666Y-99300000D01*
X90361904Y-99252380D01*
X90600000Y-99252380D01*
X90695238Y-99300000D01*
X90742857Y-99347619D01*
X90790476Y-99442857D01*
X90790476Y-99538095D01*
X90742857Y-99680952D01*
X90171428Y-100252380D01*
X90790476Y-100252380D01*
X91695238Y-99252380D02*
X91219047Y-99252380D01*
X91171428Y-99728571D01*
X91219047Y-99680952D01*
X91314285Y-99633333D01*
X91552380Y-99633333D01*
X91647619Y-99680952D01*
X91695238Y-99728571D01*
X91742857Y-99823809D01*
X91742857Y-100061904D01*
X91695238Y-100157142D01*
X91647619Y-100204761D01*
X91552380Y-100252380D01*
X91314285Y-100252380D01*
X91219047Y-100204761D01*
X91171428Y-100157142D01*
X88361904Y-94152380D02*
X88933333Y-94152380D01*
X88647619Y-95152380D02*
X88647619Y-94152380D01*
X89266666Y-95152380D02*
X89266666Y-94152380D01*
X89647619Y-94152380D01*
X89742857Y-94200000D01*
X89790476Y-94247619D01*
X89838095Y-94342857D01*
X89838095Y-94485714D01*
X89790476Y-94580952D01*
X89742857Y-94628571D01*
X89647619Y-94676190D01*
X89266666Y-94676190D01*
X90219047Y-94247619D02*
X90266666Y-94200000D01*
X90361904Y-94152380D01*
X90600000Y-94152380D01*
X90695238Y-94200000D01*
X90742857Y-94247619D01*
X90790476Y-94342857D01*
X90790476Y-94438095D01*
X90742857Y-94580952D01*
X90171428Y-95152380D01*
X90790476Y-95152380D01*
X91647619Y-94152380D02*
X91457142Y-94152380D01*
X91361904Y-94200000D01*
X91314285Y-94247619D01*
X91219047Y-94390476D01*
X91171428Y-94580952D01*
X91171428Y-94961904D01*
X91219047Y-95057142D01*
X91266666Y-95104761D01*
X91361904Y-95152380D01*
X91552380Y-95152380D01*
X91647619Y-95104761D01*
X91695238Y-95057142D01*
X91742857Y-94961904D01*
X91742857Y-94723809D01*
X91695238Y-94628571D01*
X91647619Y-94580952D01*
X91552380Y-94533333D01*
X91361904Y-94533333D01*
X91266666Y-94580952D01*
X91219047Y-94628571D01*
X91171428Y-94723809D01*
X137452380Y-55366666D02*
X136976190Y-55700000D01*
X137452380Y-55938095D02*
X136452380Y-55938095D01*
X136452380Y-55557142D01*
X136500000Y-55461904D01*
X136547619Y-55414285D01*
X136642857Y-55366666D01*
X136785714Y-55366666D01*
X136880952Y-55414285D01*
X136928571Y-55461904D01*
X136976190Y-55557142D01*
X136976190Y-55938095D01*
X136452380Y-54461904D02*
X136452380Y-54938095D01*
X136928571Y-54985714D01*
X136880952Y-54938095D01*
X136833333Y-54842857D01*
X136833333Y-54604761D01*
X136880952Y-54509523D01*
X136928571Y-54461904D01*
X137023809Y-54414285D01*
X137261904Y-54414285D01*
X137357142Y-54461904D01*
X137404761Y-54509523D01*
X137452380Y-54604761D01*
X137452380Y-54842857D01*
X137404761Y-54938095D01*
X137357142Y-54985714D01*
X138852380Y-55366666D02*
X138376190Y-55700000D01*
X138852380Y-55938095D02*
X137852380Y-55938095D01*
X137852380Y-55557142D01*
X137900000Y-55461904D01*
X137947619Y-55414285D01*
X138042857Y-55366666D01*
X138185714Y-55366666D01*
X138280952Y-55414285D01*
X138328571Y-55461904D01*
X138376190Y-55557142D01*
X138376190Y-55938095D01*
X137852380Y-55033333D02*
X137852380Y-54366666D01*
X138852380Y-54795238D01*
X150252380Y-55242857D02*
X149776190Y-55576190D01*
X150252380Y-55814285D02*
X149252380Y-55814285D01*
X149252380Y-55433333D01*
X149300000Y-55338095D01*
X149347619Y-55290476D01*
X149442857Y-55242857D01*
X149585714Y-55242857D01*
X149680952Y-55290476D01*
X149728571Y-55338095D01*
X149776190Y-55433333D01*
X149776190Y-55814285D01*
X150252380Y-54290476D02*
X150252380Y-54861904D01*
X150252380Y-54576190D02*
X149252380Y-54576190D01*
X149395238Y-54671428D01*
X149490476Y-54766666D01*
X149538095Y-54861904D01*
X149585714Y-53433333D02*
X150252380Y-53433333D01*
X149204761Y-53671428D02*
X149919047Y-53909523D01*
X149919047Y-53290476D01*
X151752380Y-55242857D02*
X151276190Y-55576190D01*
X151752380Y-55814285D02*
X150752380Y-55814285D01*
X150752380Y-55433333D01*
X150800000Y-55338095D01*
X150847619Y-55290476D01*
X150942857Y-55242857D01*
X151085714Y-55242857D01*
X151180952Y-55290476D01*
X151228571Y-55338095D01*
X151276190Y-55433333D01*
X151276190Y-55814285D01*
X151752380Y-54290476D02*
X151752380Y-54861904D01*
X151752380Y-54576190D02*
X150752380Y-54576190D01*
X150895238Y-54671428D01*
X150990476Y-54766666D01*
X151038095Y-54861904D01*
X150752380Y-53957142D02*
X150752380Y-53290476D01*
X151752380Y-53719047D01*
X124957142Y-65657142D02*
X124909523Y-65704761D01*
X124766666Y-65752380D01*
X124671428Y-65752380D01*
X124528571Y-65704761D01*
X124433333Y-65609523D01*
X124385714Y-65514285D01*
X124338095Y-65323809D01*
X124338095Y-65180952D01*
X124385714Y-64990476D01*
X124433333Y-64895238D01*
X124528571Y-64800000D01*
X124671428Y-64752380D01*
X124766666Y-64752380D01*
X124909523Y-64800000D01*
X124957142Y-64847619D01*
X125861904Y-64752380D02*
X125385714Y-64752380D01*
X125338095Y-65228571D01*
X125385714Y-65180952D01*
X125480952Y-65133333D01*
X125719047Y-65133333D01*
X125814285Y-65180952D01*
X125861904Y-65228571D01*
X125909523Y-65323809D01*
X125909523Y-65561904D01*
X125861904Y-65657142D01*
X125814285Y-65704761D01*
X125719047Y-65752380D01*
X125480952Y-65752380D01*
X125385714Y-65704761D01*
X125338095Y-65657142D01*
X126242857Y-64752380D02*
X126909523Y-64752380D01*
X126480952Y-65752380D01*
X139772380Y-68985714D02*
X139772380Y-68414285D01*
X140772380Y-68700000D02*
X139772380Y-68700000D01*
X140772380Y-68080952D02*
X139772380Y-68080952D01*
X140248571Y-68080952D02*
X140248571Y-67509523D01*
X140772380Y-67509523D02*
X139772380Y-67509523D01*
X139772380Y-67128571D02*
X139772380Y-66509523D01*
X140153333Y-66842857D01*
X140153333Y-66700000D01*
X140200952Y-66604761D01*
X140248571Y-66557142D01*
X140343809Y-66509523D01*
X140581904Y-66509523D01*
X140677142Y-66557142D01*
X140724761Y-66604761D01*
X140772380Y-66700000D01*
X140772380Y-66985714D01*
X140724761Y-67080952D01*
X140677142Y-67128571D01*
X93957142Y-105557142D02*
X93909523Y-105604761D01*
X93766666Y-105652380D01*
X93671428Y-105652380D01*
X93528571Y-105604761D01*
X93433333Y-105509523D01*
X93385714Y-105414285D01*
X93338095Y-105223809D01*
X93338095Y-105080952D01*
X93385714Y-104890476D01*
X93433333Y-104795238D01*
X93528571Y-104700000D01*
X93671428Y-104652380D01*
X93766666Y-104652380D01*
X93909523Y-104700000D01*
X93957142Y-104747619D01*
X94338095Y-104747619D02*
X94385714Y-104700000D01*
X94480952Y-104652380D01*
X94719047Y-104652380D01*
X94814285Y-104700000D01*
X94861904Y-104747619D01*
X94909523Y-104842857D01*
X94909523Y-104938095D01*
X94861904Y-105080952D01*
X94290476Y-105652380D01*
X94909523Y-105652380D01*
X95814285Y-104652380D02*
X95338095Y-104652380D01*
X95290476Y-105128571D01*
X95338095Y-105080952D01*
X95433333Y-105033333D01*
X95671428Y-105033333D01*
X95766666Y-105080952D01*
X95814285Y-105128571D01*
X95861904Y-105223809D01*
X95861904Y-105461904D01*
X95814285Y-105557142D01*
X95766666Y-105604761D01*
X95671428Y-105652380D01*
X95433333Y-105652380D01*
X95338095Y-105604761D01*
X95290476Y-105557142D01*
X91257142Y-103542857D02*
X91304761Y-103590476D01*
X91352380Y-103733333D01*
X91352380Y-103828571D01*
X91304761Y-103971428D01*
X91209523Y-104066666D01*
X91114285Y-104114285D01*
X90923809Y-104161904D01*
X90780952Y-104161904D01*
X90590476Y-104114285D01*
X90495238Y-104066666D01*
X90400000Y-103971428D01*
X90352380Y-103828571D01*
X90352380Y-103733333D01*
X90400000Y-103590476D01*
X90447619Y-103542857D01*
X90352380Y-103209523D02*
X90352380Y-102590476D01*
X90733333Y-102923809D01*
X90733333Y-102780952D01*
X90780952Y-102685714D01*
X90828571Y-102638095D01*
X90923809Y-102590476D01*
X91161904Y-102590476D01*
X91257142Y-102638095D01*
X91304761Y-102685714D01*
X91352380Y-102780952D01*
X91352380Y-103066666D01*
X91304761Y-103161904D01*
X91257142Y-103209523D01*
X91352380Y-101638095D02*
X91352380Y-102209523D01*
X91352380Y-101923809D02*
X90352380Y-101923809D01*
X90495238Y-102019047D01*
X90590476Y-102114285D01*
X90638095Y-102209523D01*
X91157142Y-115757142D02*
X91109523Y-115804761D01*
X90966666Y-115852380D01*
X90871428Y-115852380D01*
X90728571Y-115804761D01*
X90633333Y-115709523D01*
X90585714Y-115614285D01*
X90538095Y-115423809D01*
X90538095Y-115280952D01*
X90585714Y-115090476D01*
X90633333Y-114995238D01*
X90728571Y-114900000D01*
X90871428Y-114852380D01*
X90966666Y-114852380D01*
X91109523Y-114900000D01*
X91157142Y-114947619D01*
X91490476Y-114852380D02*
X92109523Y-114852380D01*
X91776190Y-115233333D01*
X91919047Y-115233333D01*
X92014285Y-115280952D01*
X92061904Y-115328571D01*
X92109523Y-115423809D01*
X92109523Y-115661904D01*
X92061904Y-115757142D01*
X92014285Y-115804761D01*
X91919047Y-115852380D01*
X91633333Y-115852380D01*
X91538095Y-115804761D01*
X91490476Y-115757142D01*
X92490476Y-114947619D02*
X92538095Y-114900000D01*
X92633333Y-114852380D01*
X92871428Y-114852380D01*
X92966666Y-114900000D01*
X93014285Y-114947619D01*
X93061904Y-115042857D01*
X93061904Y-115138095D01*
X93014285Y-115280952D01*
X92442857Y-115852380D01*
X93061904Y-115852380D01*
X137457142Y-32342857D02*
X137504761Y-32390476D01*
X137552380Y-32533333D01*
X137552380Y-32628571D01*
X137504761Y-32771428D01*
X137409523Y-32866666D01*
X137314285Y-32914285D01*
X137123809Y-32961904D01*
X136980952Y-32961904D01*
X136790476Y-32914285D01*
X136695238Y-32866666D01*
X136600000Y-32771428D01*
X136552380Y-32628571D01*
X136552380Y-32533333D01*
X136600000Y-32390476D01*
X136647619Y-32342857D01*
X136552380Y-32009523D02*
X136552380Y-31390476D01*
X136933333Y-31723809D01*
X136933333Y-31580952D01*
X136980952Y-31485714D01*
X137028571Y-31438095D01*
X137123809Y-31390476D01*
X137361904Y-31390476D01*
X137457142Y-31438095D01*
X137504761Y-31485714D01*
X137552380Y-31580952D01*
X137552380Y-31866666D01*
X137504761Y-31961904D01*
X137457142Y-32009523D01*
X136885714Y-30533333D02*
X137552380Y-30533333D01*
X136504761Y-30771428D02*
X137219047Y-31009523D01*
X137219047Y-30390476D01*
X138957142Y-32242857D02*
X139004761Y-32290476D01*
X139052380Y-32433333D01*
X139052380Y-32528571D01*
X139004761Y-32671428D01*
X138909523Y-32766666D01*
X138814285Y-32814285D01*
X138623809Y-32861904D01*
X138480952Y-32861904D01*
X138290476Y-32814285D01*
X138195238Y-32766666D01*
X138100000Y-32671428D01*
X138052380Y-32528571D01*
X138052380Y-32433333D01*
X138100000Y-32290476D01*
X138147619Y-32242857D01*
X138052380Y-31909523D02*
X138052380Y-31290476D01*
X138433333Y-31623809D01*
X138433333Y-31480952D01*
X138480952Y-31385714D01*
X138528571Y-31338095D01*
X138623809Y-31290476D01*
X138861904Y-31290476D01*
X138957142Y-31338095D01*
X139004761Y-31385714D01*
X139052380Y-31480952D01*
X139052380Y-31766666D01*
X139004761Y-31861904D01*
X138957142Y-31909523D01*
X138052380Y-30385714D02*
X138052380Y-30861904D01*
X138528571Y-30909523D01*
X138480952Y-30861904D01*
X138433333Y-30766666D01*
X138433333Y-30528571D01*
X138480952Y-30433333D01*
X138528571Y-30385714D01*
X138623809Y-30338095D01*
X138861904Y-30338095D01*
X138957142Y-30385714D01*
X139004761Y-30433333D01*
X139052380Y-30528571D01*
X139052380Y-30766666D01*
X139004761Y-30861904D01*
X138957142Y-30909523D01*
X129757142Y-75842857D02*
X129804761Y-75890476D01*
X129852380Y-76033333D01*
X129852380Y-76128571D01*
X129804761Y-76271428D01*
X129709523Y-76366666D01*
X129614285Y-76414285D01*
X129423809Y-76461904D01*
X129280952Y-76461904D01*
X129090476Y-76414285D01*
X128995238Y-76366666D01*
X128900000Y-76271428D01*
X128852380Y-76128571D01*
X128852380Y-76033333D01*
X128900000Y-75890476D01*
X128947619Y-75842857D01*
X129185714Y-74985714D02*
X129852380Y-74985714D01*
X128804761Y-75223809D02*
X129519047Y-75461904D01*
X129519047Y-74842857D01*
X128852380Y-74271428D02*
X128852380Y-74176190D01*
X128900000Y-74080952D01*
X128947619Y-74033333D01*
X129042857Y-73985714D01*
X129233333Y-73938095D01*
X129471428Y-73938095D01*
X129661904Y-73985714D01*
X129757142Y-74033333D01*
X129804761Y-74080952D01*
X129852380Y-74176190D01*
X129852380Y-74271428D01*
X129804761Y-74366666D01*
X129757142Y-74414285D01*
X129661904Y-74461904D01*
X129471428Y-74509523D01*
X129233333Y-74509523D01*
X129042857Y-74461904D01*
X128947619Y-74414285D01*
X128900000Y-74366666D01*
X128852380Y-74271428D01*
X128257142Y-75842857D02*
X128304761Y-75890476D01*
X128352380Y-76033333D01*
X128352380Y-76128571D01*
X128304761Y-76271428D01*
X128209523Y-76366666D01*
X128114285Y-76414285D01*
X127923809Y-76461904D01*
X127780952Y-76461904D01*
X127590476Y-76414285D01*
X127495238Y-76366666D01*
X127400000Y-76271428D01*
X127352380Y-76128571D01*
X127352380Y-76033333D01*
X127400000Y-75890476D01*
X127447619Y-75842857D01*
X127685714Y-74985714D02*
X128352380Y-74985714D01*
X127304761Y-75223809D02*
X128019047Y-75461904D01*
X128019047Y-74842857D01*
X128352380Y-73938095D02*
X128352380Y-74509523D01*
X128352380Y-74223809D02*
X127352380Y-74223809D01*
X127495238Y-74319047D01*
X127590476Y-74414285D01*
X127638095Y-74509523D01*
X100407142Y-116442857D02*
X100454761Y-116490476D01*
X100502380Y-116633333D01*
X100502380Y-116728571D01*
X100454761Y-116871428D01*
X100359523Y-116966666D01*
X100264285Y-117014285D01*
X100073809Y-117061904D01*
X99930952Y-117061904D01*
X99740476Y-117014285D01*
X99645238Y-116966666D01*
X99550000Y-116871428D01*
X99502380Y-116728571D01*
X99502380Y-116633333D01*
X99550000Y-116490476D01*
X99597619Y-116442857D01*
X99835714Y-115585714D02*
X100502380Y-115585714D01*
X99454761Y-115823809D02*
X100169047Y-116061904D01*
X100169047Y-115442857D01*
X99502380Y-114633333D02*
X99502380Y-114823809D01*
X99550000Y-114919047D01*
X99597619Y-114966666D01*
X99740476Y-115061904D01*
X99930952Y-115109523D01*
X100311904Y-115109523D01*
X100407142Y-115061904D01*
X100454761Y-115014285D01*
X100502380Y-114919047D01*
X100502380Y-114728571D01*
X100454761Y-114633333D01*
X100407142Y-114585714D01*
X100311904Y-114538095D01*
X100073809Y-114538095D01*
X99978571Y-114585714D01*
X99930952Y-114633333D01*
X99883333Y-114728571D01*
X99883333Y-114919047D01*
X99930952Y-115014285D01*
X99978571Y-115061904D01*
X100073809Y-115109523D01*
X91257142Y-113557142D02*
X91209523Y-113604761D01*
X91066666Y-113652380D01*
X90971428Y-113652380D01*
X90828571Y-113604761D01*
X90733333Y-113509523D01*
X90685714Y-113414285D01*
X90638095Y-113223809D01*
X90638095Y-113080952D01*
X90685714Y-112890476D01*
X90733333Y-112795238D01*
X90828571Y-112700000D01*
X90971428Y-112652380D01*
X91066666Y-112652380D01*
X91209523Y-112700000D01*
X91257142Y-112747619D01*
X92114285Y-112652380D02*
X91923809Y-112652380D01*
X91828571Y-112700000D01*
X91780952Y-112747619D01*
X91685714Y-112890476D01*
X91638095Y-113080952D01*
X91638095Y-113461904D01*
X91685714Y-113557142D01*
X91733333Y-113604761D01*
X91828571Y-113652380D01*
X92019047Y-113652380D01*
X92114285Y-113604761D01*
X92161904Y-113557142D01*
X92209523Y-113461904D01*
X92209523Y-113223809D01*
X92161904Y-113128571D01*
X92114285Y-113080952D01*
X92019047Y-113033333D01*
X91828571Y-113033333D01*
X91733333Y-113080952D01*
X91685714Y-113128571D01*
X91638095Y-113223809D01*
X92542857Y-112652380D02*
X93161904Y-112652380D01*
X92828571Y-113033333D01*
X92971428Y-113033333D01*
X93066666Y-113080952D01*
X93114285Y-113128571D01*
X93161904Y-113223809D01*
X93161904Y-113461904D01*
X93114285Y-113557142D01*
X93066666Y-113604761D01*
X92971428Y-113652380D01*
X92685714Y-113652380D01*
X92590476Y-113604761D01*
X92542857Y-113557142D01*
X99352380Y-108338095D02*
X98352380Y-108338095D01*
X98352380Y-108100000D01*
X98400000Y-107957142D01*
X98495238Y-107861904D01*
X98590476Y-107814285D01*
X98780952Y-107766666D01*
X98923809Y-107766666D01*
X99114285Y-107814285D01*
X99209523Y-107861904D01*
X99304761Y-107957142D01*
X99352380Y-108100000D01*
X99352380Y-108338095D01*
X99352380Y-107290476D02*
X99352380Y-107100000D01*
X99304761Y-107004761D01*
X99257142Y-106957142D01*
X99114285Y-106861904D01*
X98923809Y-106814285D01*
X98542857Y-106814285D01*
X98447619Y-106861904D01*
X98400000Y-106909523D01*
X98352380Y-107004761D01*
X98352380Y-107195238D01*
X98400000Y-107290476D01*
X98447619Y-107338095D01*
X98542857Y-107385714D01*
X98780952Y-107385714D01*
X98876190Y-107338095D01*
X98923809Y-107290476D01*
X98971428Y-107195238D01*
X98971428Y-107004761D01*
X98923809Y-106909523D01*
X98876190Y-106861904D01*
X98780952Y-106814285D01*
X130596666Y-34482380D02*
X130596666Y-35196666D01*
X130549047Y-35339523D01*
X130453809Y-35434761D01*
X130310952Y-35482380D01*
X130215714Y-35482380D01*
X131596666Y-35482380D02*
X131025238Y-35482380D01*
X131310952Y-35482380D02*
X131310952Y-34482380D01*
X131215714Y-34625238D01*
X131120476Y-34720476D01*
X131025238Y-34768095D01*
X148152380Y-60966666D02*
X148152380Y-61442857D01*
X147152380Y-61442857D01*
X147152380Y-60728571D02*
X147152380Y-60109523D01*
X147533333Y-60442857D01*
X147533333Y-60300000D01*
X147580952Y-60204761D01*
X147628571Y-60157142D01*
X147723809Y-60109523D01*
X147961904Y-60109523D01*
X148057142Y-60157142D01*
X148104761Y-60204761D01*
X148152380Y-60300000D01*
X148152380Y-60585714D01*
X148104761Y-60680952D01*
X148057142Y-60728571D01*
X136948333Y-38622380D02*
X136472142Y-38622380D01*
X136472142Y-37622380D01*
X137710238Y-37955714D02*
X137710238Y-38622380D01*
X137472142Y-37574761D02*
X137234047Y-38289047D01*
X137853095Y-38289047D01*
X92952380Y-104442857D02*
X92476190Y-104776190D01*
X92952380Y-105014285D02*
X91952380Y-105014285D01*
X91952380Y-104633333D01*
X92000000Y-104538095D01*
X92047619Y-104490476D01*
X92142857Y-104442857D01*
X92285714Y-104442857D01*
X92380952Y-104490476D01*
X92428571Y-104538095D01*
X92476190Y-104633333D01*
X92476190Y-105014285D01*
X91952380Y-104109523D02*
X91952380Y-103490476D01*
X92333333Y-103823809D01*
X92333333Y-103680952D01*
X92380952Y-103585714D01*
X92428571Y-103538095D01*
X92523809Y-103490476D01*
X92761904Y-103490476D01*
X92857142Y-103538095D01*
X92904761Y-103585714D01*
X92952380Y-103680952D01*
X92952380Y-103966666D01*
X92904761Y-104061904D01*
X92857142Y-104109523D01*
X92047619Y-103109523D02*
X92000000Y-103061904D01*
X91952380Y-102966666D01*
X91952380Y-102728571D01*
X92000000Y-102633333D01*
X92047619Y-102585714D01*
X92142857Y-102538095D01*
X92238095Y-102538095D01*
X92380952Y-102585714D01*
X92952380Y-103157142D01*
X92952380Y-102538095D01*
X132452380Y-60342857D02*
X131976190Y-60676190D01*
X132452380Y-60914285D02*
X131452380Y-60914285D01*
X131452380Y-60533333D01*
X131500000Y-60438095D01*
X131547619Y-60390476D01*
X131642857Y-60342857D01*
X131785714Y-60342857D01*
X131880952Y-60390476D01*
X131928571Y-60438095D01*
X131976190Y-60533333D01*
X131976190Y-60914285D01*
X131452380Y-60009523D02*
X131452380Y-59390476D01*
X131833333Y-59723809D01*
X131833333Y-59580952D01*
X131880952Y-59485714D01*
X131928571Y-59438095D01*
X132023809Y-59390476D01*
X132261904Y-59390476D01*
X132357142Y-59438095D01*
X132404761Y-59485714D01*
X132452380Y-59580952D01*
X132452380Y-59866666D01*
X132404761Y-59961904D01*
X132357142Y-60009523D01*
X132452380Y-58914285D02*
X132452380Y-58723809D01*
X132404761Y-58628571D01*
X132357142Y-58580952D01*
X132214285Y-58485714D01*
X132023809Y-58438095D01*
X131642857Y-58438095D01*
X131547619Y-58485714D01*
X131500000Y-58533333D01*
X131452380Y-58628571D01*
X131452380Y-58819047D01*
X131500000Y-58914285D01*
X131547619Y-58961904D01*
X131642857Y-59009523D01*
X131880952Y-59009523D01*
X131976190Y-58961904D01*
X132023809Y-58914285D01*
X132071428Y-58819047D01*
X132071428Y-58628571D01*
X132023809Y-58533333D01*
X131976190Y-58485714D01*
X131880952Y-58438095D01*
X127957142Y-59322380D02*
X127623809Y-58846190D01*
X127385714Y-59322380D02*
X127385714Y-58322380D01*
X127766666Y-58322380D01*
X127861904Y-58370000D01*
X127909523Y-58417619D01*
X127957142Y-58512857D01*
X127957142Y-58655714D01*
X127909523Y-58750952D01*
X127861904Y-58798571D01*
X127766666Y-58846190D01*
X127385714Y-58846190D01*
X128814285Y-58655714D02*
X128814285Y-59322380D01*
X128576190Y-58274761D02*
X128338095Y-58989047D01*
X128957142Y-58989047D01*
X129528571Y-58322380D02*
X129623809Y-58322380D01*
X129719047Y-58370000D01*
X129766666Y-58417619D01*
X129814285Y-58512857D01*
X129861904Y-58703333D01*
X129861904Y-58941428D01*
X129814285Y-59131904D01*
X129766666Y-59227142D01*
X129719047Y-59274761D01*
X129623809Y-59322380D01*
X129528571Y-59322380D01*
X129433333Y-59274761D01*
X129385714Y-59227142D01*
X129338095Y-59131904D01*
X129290476Y-58941428D01*
X129290476Y-58703333D01*
X129338095Y-58512857D01*
X129385714Y-58417619D01*
X129433333Y-58370000D01*
X129528571Y-58322380D01*
X125361904Y-63452380D02*
X125361904Y-64261904D01*
X125409523Y-64357142D01*
X125457142Y-64404761D01*
X125552380Y-64452380D01*
X125742857Y-64452380D01*
X125838095Y-64404761D01*
X125885714Y-64357142D01*
X125933333Y-64261904D01*
X125933333Y-63452380D01*
X126933333Y-64452380D02*
X126361904Y-64452380D01*
X126647619Y-64452380D02*
X126647619Y-63452380D01*
X126552380Y-63595238D01*
X126457142Y-63690476D01*
X126361904Y-63738095D01*
X127314285Y-63547619D02*
X127361904Y-63500000D01*
X127457142Y-63452380D01*
X127695238Y-63452380D01*
X127790476Y-63500000D01*
X127838095Y-63547619D01*
X127885714Y-63642857D01*
X127885714Y-63738095D01*
X127838095Y-63880952D01*
X127266666Y-64452380D01*
X127885714Y-64452380D01*
X90652380Y-112261904D02*
X91461904Y-112261904D01*
X91557142Y-112214285D01*
X91604761Y-112166666D01*
X91652380Y-112071428D01*
X91652380Y-111880952D01*
X91604761Y-111785714D01*
X91557142Y-111738095D01*
X91461904Y-111690476D01*
X90652380Y-111690476D01*
X90985714Y-110785714D02*
X91652380Y-110785714D01*
X90604761Y-111023809D02*
X91319047Y-111261904D01*
X91319047Y-110642857D01*
X93766666Y-54652380D02*
X93766666Y-55366666D01*
X93719047Y-55509523D01*
X93623809Y-55604761D01*
X93480952Y-55652380D01*
X93385714Y-55652380D01*
X94195238Y-54747619D02*
X94242857Y-54700000D01*
X94338095Y-54652380D01*
X94576190Y-54652380D01*
X94671428Y-54700000D01*
X94719047Y-54747619D01*
X94766666Y-54842857D01*
X94766666Y-54938095D01*
X94719047Y-55080952D01*
X94147619Y-55652380D01*
X94766666Y-55652380D01*
X143161904Y-58800380D02*
X143733333Y-58800380D01*
X143447619Y-59800380D02*
X143447619Y-58800380D01*
X144066666Y-59800380D02*
X144066666Y-58800380D01*
X144447619Y-58800380D01*
X144542857Y-58848000D01*
X144590476Y-58895619D01*
X144638095Y-58990857D01*
X144638095Y-59133714D01*
X144590476Y-59228952D01*
X144542857Y-59276571D01*
X144447619Y-59324190D01*
X144066666Y-59324190D01*
X144971428Y-58800380D02*
X145590476Y-58800380D01*
X145257142Y-59181333D01*
X145400000Y-59181333D01*
X145495238Y-59228952D01*
X145542857Y-59276571D01*
X145590476Y-59371809D01*
X145590476Y-59609904D01*
X145542857Y-59705142D01*
X145495238Y-59752761D01*
X145400000Y-59800380D01*
X145114285Y-59800380D01*
X145019047Y-59752761D01*
X144971428Y-59705142D01*
X146542857Y-59800380D02*
X145971428Y-59800380D01*
X146257142Y-59800380D02*
X146257142Y-58800380D01*
X146161904Y-58943238D01*
X146066666Y-59038476D01*
X145971428Y-59086095D01*
X137561904Y-58552380D02*
X138133333Y-58552380D01*
X137847619Y-59552380D02*
X137847619Y-58552380D01*
X138466666Y-59552380D02*
X138466666Y-58552380D01*
X138847619Y-58552380D01*
X138942857Y-58600000D01*
X138990476Y-58647619D01*
X139038095Y-58742857D01*
X139038095Y-58885714D01*
X138990476Y-58980952D01*
X138942857Y-59028571D01*
X138847619Y-59076190D01*
X138466666Y-59076190D01*
X139371428Y-58552380D02*
X139990476Y-58552380D01*
X139657142Y-58933333D01*
X139800000Y-58933333D01*
X139895238Y-58980952D01*
X139942857Y-59028571D01*
X139990476Y-59123809D01*
X139990476Y-59361904D01*
X139942857Y-59457142D01*
X139895238Y-59504761D01*
X139800000Y-59552380D01*
X139514285Y-59552380D01*
X139419047Y-59504761D01*
X139371428Y-59457142D01*
X140371428Y-58647619D02*
X140419047Y-58600000D01*
X140514285Y-58552380D01*
X140752380Y-58552380D01*
X140847619Y-58600000D01*
X140895238Y-58647619D01*
X140942857Y-58742857D01*
X140942857Y-58838095D01*
X140895238Y-58980952D01*
X140323809Y-59552380D01*
X140942857Y-59552380D01*
X89738095Y-91052380D02*
X90309523Y-91052380D01*
X90023809Y-92052380D02*
X90023809Y-91052380D01*
X90642857Y-92052380D02*
X90642857Y-91052380D01*
X91023809Y-91052380D01*
X91119047Y-91100000D01*
X91166666Y-91147619D01*
X91214285Y-91242857D01*
X91214285Y-91385714D01*
X91166666Y-91480952D01*
X91119047Y-91528571D01*
X91023809Y-91576190D01*
X90642857Y-91576190D01*
X91785714Y-91480952D02*
X91690476Y-91433333D01*
X91642857Y-91385714D01*
X91595238Y-91290476D01*
X91595238Y-91242857D01*
X91642857Y-91147619D01*
X91690476Y-91100000D01*
X91785714Y-91052380D01*
X91976190Y-91052380D01*
X92071428Y-91100000D01*
X92119047Y-91147619D01*
X92166666Y-91242857D01*
X92166666Y-91290476D01*
X92119047Y-91385714D01*
X92071428Y-91433333D01*
X91976190Y-91480952D01*
X91785714Y-91480952D01*
X91690476Y-91528571D01*
X91642857Y-91576190D01*
X91595238Y-91671428D01*
X91595238Y-91861904D01*
X91642857Y-91957142D01*
X91690476Y-92004761D01*
X91785714Y-92052380D01*
X91976190Y-92052380D01*
X92071428Y-92004761D01*
X92119047Y-91957142D01*
X92166666Y-91861904D01*
X92166666Y-91671428D01*
X92119047Y-91576190D01*
X92071428Y-91528571D01*
X91976190Y-91480952D01*
X101302380Y-111042857D02*
X100826190Y-111376190D01*
X101302380Y-111614285D02*
X100302380Y-111614285D01*
X100302380Y-111233333D01*
X100350000Y-111138095D01*
X100397619Y-111090476D01*
X100492857Y-111042857D01*
X100635714Y-111042857D01*
X100730952Y-111090476D01*
X100778571Y-111138095D01*
X100826190Y-111233333D01*
X100826190Y-111614285D01*
X100302380Y-110185714D02*
X100302380Y-110376190D01*
X100350000Y-110471428D01*
X100397619Y-110519047D01*
X100540476Y-110614285D01*
X100730952Y-110661904D01*
X101111904Y-110661904D01*
X101207142Y-110614285D01*
X101254761Y-110566666D01*
X101302380Y-110471428D01*
X101302380Y-110280952D01*
X101254761Y-110185714D01*
X101207142Y-110138095D01*
X101111904Y-110090476D01*
X100873809Y-110090476D01*
X100778571Y-110138095D01*
X100730952Y-110185714D01*
X100683333Y-110280952D01*
X100683333Y-110471428D01*
X100730952Y-110566666D01*
X100778571Y-110614285D01*
X100873809Y-110661904D01*
X100302380Y-109471428D02*
X100302380Y-109376190D01*
X100350000Y-109280952D01*
X100397619Y-109233333D01*
X100492857Y-109185714D01*
X100683333Y-109138095D01*
X100921428Y-109138095D01*
X101111904Y-109185714D01*
X101207142Y-109233333D01*
X101254761Y-109280952D01*
X101302380Y-109376190D01*
X101302380Y-109471428D01*
X101254761Y-109566666D01*
X101207142Y-109614285D01*
X101111904Y-109661904D01*
X100921428Y-109709523D01*
X100683333Y-109709523D01*
X100492857Y-109661904D01*
X100397619Y-109614285D01*
X100350000Y-109566666D01*
X100302380Y-109471428D01*
X88361904Y-97352380D02*
X88933333Y-97352380D01*
X88647619Y-98352380D02*
X88647619Y-97352380D01*
X89266666Y-98352380D02*
X89266666Y-97352380D01*
X89647619Y-97352380D01*
X89742857Y-97400000D01*
X89790476Y-97447619D01*
X89838095Y-97542857D01*
X89838095Y-97685714D01*
X89790476Y-97780952D01*
X89742857Y-97828571D01*
X89647619Y-97876190D01*
X89266666Y-97876190D01*
X90790476Y-98352380D02*
X90219047Y-98352380D01*
X90504761Y-98352380D02*
X90504761Y-97352380D01*
X90409523Y-97495238D01*
X90314285Y-97590476D01*
X90219047Y-97638095D01*
X91266666Y-98352380D02*
X91457142Y-98352380D01*
X91552380Y-98304761D01*
X91600000Y-98257142D01*
X91695238Y-98114285D01*
X91742857Y-97923809D01*
X91742857Y-97542857D01*
X91695238Y-97447619D01*
X91647619Y-97400000D01*
X91552380Y-97352380D01*
X91361904Y-97352380D01*
X91266666Y-97400000D01*
X91219047Y-97447619D01*
X91171428Y-97542857D01*
X91171428Y-97780952D01*
X91219047Y-97876190D01*
X91266666Y-97923809D01*
X91361904Y-97971428D01*
X91552380Y-97971428D01*
X91647619Y-97923809D01*
X91695238Y-97876190D01*
X91742857Y-97780952D01*
X101728571Y-79414285D02*
X101776190Y-79271428D01*
X101823809Y-79223809D01*
X101919047Y-79176190D01*
X102061904Y-79176190D01*
X102157142Y-79223809D01*
X102204761Y-79271428D01*
X102252380Y-79366666D01*
X102252380Y-79747619D01*
X101252380Y-79747619D01*
X101252380Y-79414285D01*
X101300000Y-79319047D01*
X101347619Y-79271428D01*
X101442857Y-79223809D01*
X101538095Y-79223809D01*
X101633333Y-79271428D01*
X101680952Y-79319047D01*
X101728571Y-79414285D01*
X101728571Y-79747619D01*
X101966666Y-78795238D02*
X101966666Y-78319047D01*
X102252380Y-78890476D02*
X101252380Y-78557142D01*
X102252380Y-78223809D01*
X101252380Y-78033333D02*
X101252380Y-77461904D01*
X102252380Y-77747619D02*
X101252380Y-77747619D01*
X102252380Y-76604761D02*
X102252380Y-77176190D01*
X102252380Y-76890476D02*
X101252380Y-76890476D01*
X101395238Y-76985714D01*
X101490476Y-77080952D01*
X101538095Y-77176190D01*
X135861904Y-49900380D02*
X136433333Y-49900380D01*
X136147619Y-50900380D02*
X136147619Y-49900380D01*
X136766666Y-50900380D02*
X136766666Y-49900380D01*
X137147619Y-49900380D01*
X137242857Y-49948000D01*
X137290476Y-49995619D01*
X137338095Y-50090857D01*
X137338095Y-50233714D01*
X137290476Y-50328952D01*
X137242857Y-50376571D01*
X137147619Y-50424190D01*
X136766666Y-50424190D01*
X137719047Y-49995619D02*
X137766666Y-49948000D01*
X137861904Y-49900380D01*
X138100000Y-49900380D01*
X138195238Y-49948000D01*
X138242857Y-49995619D01*
X138290476Y-50090857D01*
X138290476Y-50186095D01*
X138242857Y-50328952D01*
X137671428Y-50900380D01*
X138290476Y-50900380D01*
X139147619Y-50233714D02*
X139147619Y-50900380D01*
X138909523Y-49852761D02*
X138671428Y-50567047D01*
X139290476Y-50567047D01*
X146061904Y-56300380D02*
X146633333Y-56300380D01*
X146347619Y-57300380D02*
X146347619Y-56300380D01*
X146966666Y-57300380D02*
X146966666Y-56300380D01*
X147347619Y-56300380D01*
X147442857Y-56348000D01*
X147490476Y-56395619D01*
X147538095Y-56490857D01*
X147538095Y-56633714D01*
X147490476Y-56728952D01*
X147442857Y-56776571D01*
X147347619Y-56824190D01*
X146966666Y-56824190D01*
X147871428Y-56300380D02*
X148490476Y-56300380D01*
X148157142Y-56681333D01*
X148300000Y-56681333D01*
X148395238Y-56728952D01*
X148442857Y-56776571D01*
X148490476Y-56871809D01*
X148490476Y-57109904D01*
X148442857Y-57205142D01*
X148395238Y-57252761D01*
X148300000Y-57300380D01*
X148014285Y-57300380D01*
X147919047Y-57252761D01*
X147871428Y-57205142D01*
X149109523Y-56300380D02*
X149204761Y-56300380D01*
X149300000Y-56348000D01*
X149347619Y-56395619D01*
X149395238Y-56490857D01*
X149442857Y-56681333D01*
X149442857Y-56919428D01*
X149395238Y-57109904D01*
X149347619Y-57205142D01*
X149300000Y-57252761D01*
X149204761Y-57300380D01*
X149109523Y-57300380D01*
X149014285Y-57252761D01*
X148966666Y-57205142D01*
X148919047Y-57109904D01*
X148871428Y-56919428D01*
X148871428Y-56681333D01*
X148919047Y-56490857D01*
X148966666Y-56395619D01*
X149014285Y-56348000D01*
X149109523Y-56300380D01*
X142461904Y-35500380D02*
X143033333Y-35500380D01*
X142747619Y-36500380D02*
X142747619Y-35500380D01*
X143366666Y-36500380D02*
X143366666Y-35500380D01*
X143747619Y-35500380D01*
X143842857Y-35548000D01*
X143890476Y-35595619D01*
X143938095Y-35690857D01*
X143938095Y-35833714D01*
X143890476Y-35928952D01*
X143842857Y-35976571D01*
X143747619Y-36024190D01*
X143366666Y-36024190D01*
X144271428Y-35500380D02*
X144890476Y-35500380D01*
X144557142Y-35881333D01*
X144700000Y-35881333D01*
X144795238Y-35928952D01*
X144842857Y-35976571D01*
X144890476Y-36071809D01*
X144890476Y-36309904D01*
X144842857Y-36405142D01*
X144795238Y-36452761D01*
X144700000Y-36500380D01*
X144414285Y-36500380D01*
X144319047Y-36452761D01*
X144271428Y-36405142D01*
X145795238Y-35500380D02*
X145319047Y-35500380D01*
X145271428Y-35976571D01*
X145319047Y-35928952D01*
X145414285Y-35881333D01*
X145652380Y-35881333D01*
X145747619Y-35928952D01*
X145795238Y-35976571D01*
X145842857Y-36071809D01*
X145842857Y-36309904D01*
X145795238Y-36405142D01*
X145747619Y-36452761D01*
X145652380Y-36500380D01*
X145414285Y-36500380D01*
X145319047Y-36452761D01*
X145271428Y-36405142D01*
X132652380Y-69638095D02*
X132652380Y-69066666D01*
X133652380Y-69352380D02*
X132652380Y-69352380D01*
X133652380Y-68733333D02*
X132652380Y-68733333D01*
X132652380Y-68352380D01*
X132700000Y-68257142D01*
X132747619Y-68209523D01*
X132842857Y-68161904D01*
X132985714Y-68161904D01*
X133080952Y-68209523D01*
X133128571Y-68257142D01*
X133176190Y-68352380D01*
X133176190Y-68733333D01*
X132985714Y-67304761D02*
X133652380Y-67304761D01*
X132604761Y-67542857D02*
X133319047Y-67780952D01*
X133319047Y-67161904D01*
X133080952Y-66638095D02*
X133033333Y-66733333D01*
X132985714Y-66780952D01*
X132890476Y-66828571D01*
X132842857Y-66828571D01*
X132747619Y-66780952D01*
X132700000Y-66733333D01*
X132652380Y-66638095D01*
X132652380Y-66447619D01*
X132700000Y-66352380D01*
X132747619Y-66304761D01*
X132842857Y-66257142D01*
X132890476Y-66257142D01*
X132985714Y-66304761D01*
X133033333Y-66352380D01*
X133080952Y-66447619D01*
X133080952Y-66638095D01*
X133128571Y-66733333D01*
X133176190Y-66780952D01*
X133271428Y-66828571D01*
X133461904Y-66828571D01*
X133557142Y-66780952D01*
X133604761Y-66733333D01*
X133652380Y-66638095D01*
X133652380Y-66447619D01*
X133604761Y-66352380D01*
X133557142Y-66304761D01*
X133461904Y-66257142D01*
X133271428Y-66257142D01*
X133176190Y-66304761D01*
X133128571Y-66352380D01*
X133080952Y-66447619D01*
M02*
