G04 #@! TF.GenerationSoftware,KiCad,Pcbnew,5.1.5+dfsg1-2build2*
G04 #@! TF.CreationDate,2021-09-29T14:40:33+01:00*
G04 #@! TF.ProjectId,OSM_env01,4f534d5f-656e-4763-9031-2e6b69636164,B*
G04 #@! TF.SameCoordinates,Original*
G04 #@! TF.FileFunction,Paste,Top*
G04 #@! TF.FilePolarity,Positive*
%FSLAX46Y46*%
G04 Gerber Fmt 4.6, Leading zero omitted, Abs format (unit mm)*
G04 Created by KiCad (PCBNEW 5.1.5+dfsg1-2build2) date 2021-09-29 14:40:33*
%MOMM*%
%LPD*%
G04 APERTURE LIST*
%ADD10C,0.150000*%
%ADD11C,0.254000*%
%ADD12C,0.050000*%
%ADD13C,0.100000*%
%ADD14C,0.001000*%
%ADD15R,0.700000X1.900000*%
%ADD16R,1.350000X0.400000*%
%ADD17R,1.900000X1.500000*%
%ADD18R,1.900000X1.200000*%
%ADD19R,1.200000X0.900000*%
%ADD20R,0.400000X0.650000*%
%ADD21R,0.650000X1.060000*%
%ADD22R,6.350000X7.340000*%
G04 APERTURE END LIST*
D10*
X155600000Y-113200000D02*
X155600000Y-105200000D01*
X153600000Y-105200000D02*
X155600000Y-105200000D01*
X153600000Y-113200000D02*
X153600000Y-112200000D01*
X153600000Y-113200000D02*
X155600000Y-113200000D01*
X145400000Y-113200000D02*
X145400000Y-105200000D01*
X153600000Y-106200000D02*
X153600000Y-105200000D01*
X149600000Y-106200000D02*
X149600000Y-105200000D01*
X149600000Y-113200000D02*
X145400000Y-113200000D01*
X149600000Y-112200000D02*
X149600000Y-113200000D01*
X147400000Y-112200000D02*
X149600000Y-112200000D01*
X147400000Y-106200000D02*
X149600000Y-106200000D01*
X146400000Y-106200000D02*
X147400000Y-106200000D01*
X146400000Y-112200000D02*
X146400000Y-106200000D01*
X147400000Y-112200000D02*
X146400000Y-112200000D01*
X149600000Y-105200000D02*
X145400000Y-105200000D01*
X153600000Y-112200000D02*
X154600000Y-112200000D01*
X153600000Y-106200000D02*
X154600000Y-106200000D01*
X154600000Y-112200000D02*
X154600000Y-106200000D01*
D11*
X162700000Y-128200000D02*
X162700000Y-28200000D01*
X82700000Y-128200000D02*
X82700000Y-28200000D01*
X82700000Y-28200000D02*
X162700000Y-28200000D01*
X82700000Y-128200000D02*
X162700000Y-128200000D01*
D12*
X83149820Y-104005299D02*
X82149820Y-104005299D01*
X82149820Y-103624346D01*
X82197440Y-103529108D01*
X82245059Y-103481489D01*
X82340297Y-103433870D01*
X82483154Y-103433870D01*
X82578392Y-103481489D01*
X82626011Y-103529108D01*
X82673630Y-103624346D01*
X82673630Y-104005299D01*
X83054582Y-102433870D02*
X83102201Y-102481489D01*
X83149820Y-102624346D01*
X83149820Y-102719584D01*
X83102201Y-102862441D01*
X83006963Y-102957680D01*
X82911725Y-103005299D01*
X82721249Y-103052918D01*
X82578392Y-103052918D01*
X82387916Y-103005299D01*
X82292678Y-102957680D01*
X82197440Y-102862441D01*
X82149820Y-102719584D01*
X82149820Y-102624346D01*
X82197440Y-102481489D01*
X82245059Y-102433870D01*
X82626011Y-101671965D02*
X82673630Y-101529108D01*
X82721249Y-101481489D01*
X82816487Y-101433870D01*
X82959344Y-101433870D01*
X83054582Y-101481489D01*
X83102201Y-101529108D01*
X83149820Y-101624346D01*
X83149820Y-102005299D01*
X82149820Y-102005299D01*
X82149820Y-101671965D01*
X82197440Y-101576727D01*
X82245059Y-101529108D01*
X82340297Y-101481489D01*
X82435535Y-101481489D01*
X82530773Y-101529108D01*
X82578392Y-101576727D01*
X82626011Y-101671965D01*
X82626011Y-102005299D01*
X81912440Y-101243394D02*
X81912440Y-100338632D01*
X82626011Y-101005299D02*
X82626011Y-100671965D01*
X83149820Y-100529108D02*
X83149820Y-101005299D01*
X82149820Y-101005299D01*
X82149820Y-100529108D01*
X81912440Y-100338632D02*
X81912440Y-99433870D01*
X83149820Y-99671965D02*
X82149820Y-99671965D01*
X83102201Y-99671965D02*
X83149820Y-99767203D01*
X83149820Y-99957680D01*
X83102201Y-100052918D01*
X83054582Y-100100537D01*
X82959344Y-100148156D01*
X82673630Y-100148156D01*
X82578392Y-100100537D01*
X82530773Y-100052918D01*
X82483154Y-99957680D01*
X82483154Y-99767203D01*
X82530773Y-99671965D01*
X81912440Y-99433870D02*
X81912440Y-98529108D01*
X82483154Y-98767203D02*
X83292678Y-98767203D01*
X83387916Y-98814822D01*
X83435535Y-98862441D01*
X83483154Y-98957680D01*
X83483154Y-99100537D01*
X83435535Y-99195775D01*
X83102201Y-98767203D02*
X83149820Y-98862441D01*
X83149820Y-99052918D01*
X83102201Y-99148156D01*
X83054582Y-99195775D01*
X82959344Y-99243394D01*
X82673630Y-99243394D01*
X82578392Y-99195775D01*
X82530773Y-99148156D01*
X82483154Y-99052918D01*
X82483154Y-98862441D01*
X82530773Y-98767203D01*
X81912440Y-98529108D02*
X81912440Y-97671965D01*
X83102201Y-97910060D02*
X83149820Y-98005299D01*
X83149820Y-98195775D01*
X83102201Y-98291013D01*
X83006963Y-98338632D01*
X82626011Y-98338632D01*
X82530773Y-98291013D01*
X82483154Y-98195775D01*
X82483154Y-98005299D01*
X82530773Y-97910060D01*
X82626011Y-97862441D01*
X82721249Y-97862441D01*
X82816487Y-98338632D01*
D13*
X84500000Y-92800000D02*
G75*
G02X84500000Y-93400000I0J-300000D01*
G01*
X83800000Y-92800000D02*
X84500000Y-92800000D01*
X84500000Y-93400000D02*
X83800000Y-93400000D01*
X83800000Y-93400000D02*
G75*
G02X83800000Y-92800000I0J300000D01*
G01*
X84500000Y-99800000D02*
G75*
G02X84500000Y-100400000I0J-300000D01*
G01*
X83800000Y-99800000D02*
X84500000Y-99800000D01*
X84500000Y-100400000D02*
X83800000Y-100400000D01*
X83800000Y-100400000D02*
G75*
G02X83800000Y-99800000I0J300000D01*
G01*
D14*
G36*
X150128000Y-64050000D02*
G01*
X150550000Y-64050000D01*
X150550000Y-64550000D01*
X150128000Y-64550000D01*
X150128000Y-64050000D01*
G37*
X150128000Y-64050000D02*
X150550000Y-64050000D01*
X150550000Y-64550000D01*
X150128000Y-64550000D01*
X150128000Y-64050000D01*
G36*
X150950000Y-64050000D02*
G01*
X151372000Y-64050000D01*
X151372000Y-64550000D01*
X150950000Y-64550000D01*
X150950000Y-64050000D01*
G37*
X150950000Y-64050000D02*
X151372000Y-64050000D01*
X151372000Y-64550000D01*
X150950000Y-64550000D01*
X150950000Y-64050000D01*
G36*
X150128000Y-65850000D02*
G01*
X150550000Y-65850000D01*
X150550000Y-66350000D01*
X150128000Y-66350000D01*
X150128000Y-65850000D01*
G37*
X150128000Y-65850000D02*
X150550000Y-65850000D01*
X150550000Y-66350000D01*
X150128000Y-66350000D01*
X150128000Y-65850000D01*
G36*
X150950000Y-65850000D02*
G01*
X151372000Y-65850000D01*
X151372000Y-66350000D01*
X150950000Y-66350000D01*
X150950000Y-65850000D01*
G37*
X150950000Y-65850000D02*
X151372000Y-65850000D01*
X151372000Y-66350000D01*
X150950000Y-66350000D01*
X150950000Y-65850000D01*
G36*
X151903000Y-65150000D02*
G01*
X151905000Y-65129000D01*
X151909000Y-65105000D01*
X151914000Y-65082000D01*
X151920000Y-65059000D01*
X151927000Y-65037000D01*
X151935000Y-65014000D01*
X151944000Y-64992000D01*
X151954000Y-64971000D01*
X151965000Y-64950000D01*
X151977000Y-64930000D01*
X151990000Y-64910000D01*
X152003000Y-64890000D01*
X152018000Y-64872000D01*
X152034000Y-64854000D01*
X152050000Y-64837000D01*
X152067000Y-64821000D01*
X152085000Y-64805000D01*
X152103000Y-64790000D01*
X152123000Y-64777000D01*
X152143000Y-64764000D01*
X152163000Y-64752000D01*
X152184000Y-64741000D01*
X152205000Y-64731000D01*
X152227000Y-64722000D01*
X152250000Y-64714000D01*
X152272000Y-64707000D01*
X152295000Y-64701000D01*
X152318000Y-64696000D01*
X152342000Y-64692000D01*
X152363000Y-64690000D01*
X152363000Y-64390000D01*
X152324000Y-64393000D01*
X152286000Y-64398000D01*
X152247000Y-64405000D01*
X152209000Y-64413000D01*
X152171000Y-64424000D01*
X152133000Y-64436000D01*
X152097000Y-64451000D01*
X152061000Y-64467000D01*
X152026000Y-64484000D01*
X151992000Y-64504000D01*
X151959000Y-64525000D01*
X151926000Y-64547000D01*
X151895000Y-64572000D01*
X151866000Y-64597000D01*
X151837000Y-64624000D01*
X151810000Y-64653000D01*
X151785000Y-64682000D01*
X151760000Y-64713000D01*
X151738000Y-64746000D01*
X151717000Y-64779000D01*
X151697000Y-64813000D01*
X151680000Y-64848000D01*
X151664000Y-64884000D01*
X151649000Y-64920000D01*
X151637000Y-64958000D01*
X151626000Y-64996000D01*
X151618000Y-65034000D01*
X151611000Y-65073000D01*
X151606000Y-65111000D01*
X151603000Y-65150000D01*
X151903000Y-65150000D01*
G37*
X151903000Y-65150000D02*
X151905000Y-65129000D01*
X151909000Y-65105000D01*
X151914000Y-65082000D01*
X151920000Y-65059000D01*
X151927000Y-65037000D01*
X151935000Y-65014000D01*
X151944000Y-64992000D01*
X151954000Y-64971000D01*
X151965000Y-64950000D01*
X151977000Y-64930000D01*
X151990000Y-64910000D01*
X152003000Y-64890000D01*
X152018000Y-64872000D01*
X152034000Y-64854000D01*
X152050000Y-64837000D01*
X152067000Y-64821000D01*
X152085000Y-64805000D01*
X152103000Y-64790000D01*
X152123000Y-64777000D01*
X152143000Y-64764000D01*
X152163000Y-64752000D01*
X152184000Y-64741000D01*
X152205000Y-64731000D01*
X152227000Y-64722000D01*
X152250000Y-64714000D01*
X152272000Y-64707000D01*
X152295000Y-64701000D01*
X152318000Y-64696000D01*
X152342000Y-64692000D01*
X152363000Y-64690000D01*
X152363000Y-64390000D01*
X152324000Y-64393000D01*
X152286000Y-64398000D01*
X152247000Y-64405000D01*
X152209000Y-64413000D01*
X152171000Y-64424000D01*
X152133000Y-64436000D01*
X152097000Y-64451000D01*
X152061000Y-64467000D01*
X152026000Y-64484000D01*
X151992000Y-64504000D01*
X151959000Y-64525000D01*
X151926000Y-64547000D01*
X151895000Y-64572000D01*
X151866000Y-64597000D01*
X151837000Y-64624000D01*
X151810000Y-64653000D01*
X151785000Y-64682000D01*
X151760000Y-64713000D01*
X151738000Y-64746000D01*
X151717000Y-64779000D01*
X151697000Y-64813000D01*
X151680000Y-64848000D01*
X151664000Y-64884000D01*
X151649000Y-64920000D01*
X151637000Y-64958000D01*
X151626000Y-64996000D01*
X151618000Y-65034000D01*
X151611000Y-65073000D01*
X151606000Y-65111000D01*
X151603000Y-65150000D01*
X151903000Y-65150000D01*
G36*
X152363000Y-65710000D02*
G01*
X152342000Y-65708000D01*
X152318000Y-65704000D01*
X152295000Y-65699000D01*
X152272000Y-65693000D01*
X152250000Y-65686000D01*
X152227000Y-65678000D01*
X152205000Y-65669000D01*
X152184000Y-65659000D01*
X152163000Y-65648000D01*
X152143000Y-65636000D01*
X152123000Y-65623000D01*
X152103000Y-65610000D01*
X152085000Y-65595000D01*
X152067000Y-65579000D01*
X152050000Y-65563000D01*
X152034000Y-65546000D01*
X152018000Y-65528000D01*
X152003000Y-65510000D01*
X151990000Y-65490000D01*
X151977000Y-65470000D01*
X151965000Y-65450000D01*
X151954000Y-65429000D01*
X151944000Y-65408000D01*
X151935000Y-65386000D01*
X151927000Y-65363000D01*
X151920000Y-65341000D01*
X151914000Y-65318000D01*
X151909000Y-65295000D01*
X151905000Y-65271000D01*
X151903000Y-65250000D01*
X151603000Y-65250000D01*
X151606000Y-65289000D01*
X151611000Y-65327000D01*
X151618000Y-65366000D01*
X151626000Y-65404000D01*
X151637000Y-65442000D01*
X151649000Y-65480000D01*
X151664000Y-65516000D01*
X151680000Y-65552000D01*
X151697000Y-65587000D01*
X151717000Y-65621000D01*
X151738000Y-65654000D01*
X151760000Y-65687000D01*
X151785000Y-65718000D01*
X151810000Y-65747000D01*
X151837000Y-65776000D01*
X151866000Y-65803000D01*
X151895000Y-65828000D01*
X151926000Y-65853000D01*
X151959000Y-65875000D01*
X151992000Y-65896000D01*
X152026000Y-65916000D01*
X152061000Y-65933000D01*
X152097000Y-65949000D01*
X152133000Y-65964000D01*
X152171000Y-65976000D01*
X152209000Y-65987000D01*
X152247000Y-65995000D01*
X152286000Y-66002000D01*
X152324000Y-66007000D01*
X152363000Y-66010000D01*
X152363000Y-65710000D01*
G37*
X152363000Y-65710000D02*
X152342000Y-65708000D01*
X152318000Y-65704000D01*
X152295000Y-65699000D01*
X152272000Y-65693000D01*
X152250000Y-65686000D01*
X152227000Y-65678000D01*
X152205000Y-65669000D01*
X152184000Y-65659000D01*
X152163000Y-65648000D01*
X152143000Y-65636000D01*
X152123000Y-65623000D01*
X152103000Y-65610000D01*
X152085000Y-65595000D01*
X152067000Y-65579000D01*
X152050000Y-65563000D01*
X152034000Y-65546000D01*
X152018000Y-65528000D01*
X152003000Y-65510000D01*
X151990000Y-65490000D01*
X151977000Y-65470000D01*
X151965000Y-65450000D01*
X151954000Y-65429000D01*
X151944000Y-65408000D01*
X151935000Y-65386000D01*
X151927000Y-65363000D01*
X151920000Y-65341000D01*
X151914000Y-65318000D01*
X151909000Y-65295000D01*
X151905000Y-65271000D01*
X151903000Y-65250000D01*
X151603000Y-65250000D01*
X151606000Y-65289000D01*
X151611000Y-65327000D01*
X151618000Y-65366000D01*
X151626000Y-65404000D01*
X151637000Y-65442000D01*
X151649000Y-65480000D01*
X151664000Y-65516000D01*
X151680000Y-65552000D01*
X151697000Y-65587000D01*
X151717000Y-65621000D01*
X151738000Y-65654000D01*
X151760000Y-65687000D01*
X151785000Y-65718000D01*
X151810000Y-65747000D01*
X151837000Y-65776000D01*
X151866000Y-65803000D01*
X151895000Y-65828000D01*
X151926000Y-65853000D01*
X151959000Y-65875000D01*
X151992000Y-65896000D01*
X152026000Y-65916000D01*
X152061000Y-65933000D01*
X152097000Y-65949000D01*
X152133000Y-65964000D01*
X152171000Y-65976000D01*
X152209000Y-65987000D01*
X152247000Y-65995000D01*
X152286000Y-66002000D01*
X152324000Y-66007000D01*
X152363000Y-66010000D01*
X152363000Y-65710000D01*
G36*
X152923000Y-65250000D02*
G01*
X152921000Y-65271000D01*
X152917000Y-65295000D01*
X152912000Y-65318000D01*
X152906000Y-65341000D01*
X152899000Y-65363000D01*
X152891000Y-65386000D01*
X152882000Y-65408000D01*
X152872000Y-65429000D01*
X152861000Y-65450000D01*
X152849000Y-65470000D01*
X152836000Y-65490000D01*
X152823000Y-65510000D01*
X152808000Y-65528000D01*
X152792000Y-65546000D01*
X152776000Y-65563000D01*
X152759000Y-65579000D01*
X152741000Y-65595000D01*
X152723000Y-65610000D01*
X152703000Y-65623000D01*
X152683000Y-65636000D01*
X152663000Y-65648000D01*
X152642000Y-65659000D01*
X152621000Y-65669000D01*
X152599000Y-65678000D01*
X152576000Y-65686000D01*
X152554000Y-65693000D01*
X152531000Y-65699000D01*
X152508000Y-65704000D01*
X152484000Y-65708000D01*
X152463000Y-65710000D01*
X152463000Y-66010000D01*
X152502000Y-66007000D01*
X152540000Y-66002000D01*
X152579000Y-65995000D01*
X152617000Y-65987000D01*
X152655000Y-65976000D01*
X152693000Y-65964000D01*
X152729000Y-65949000D01*
X152765000Y-65933000D01*
X152800000Y-65916000D01*
X152834000Y-65896000D01*
X152867000Y-65875000D01*
X152900000Y-65853000D01*
X152931000Y-65828000D01*
X152960000Y-65803000D01*
X152989000Y-65776000D01*
X153016000Y-65747000D01*
X153041000Y-65718000D01*
X153066000Y-65687000D01*
X153088000Y-65654000D01*
X153109000Y-65621000D01*
X153129000Y-65587000D01*
X153146000Y-65552000D01*
X153162000Y-65516000D01*
X153177000Y-65480000D01*
X153189000Y-65442000D01*
X153200000Y-65404000D01*
X153208000Y-65366000D01*
X153215000Y-65327000D01*
X153220000Y-65289000D01*
X153223000Y-65250000D01*
X152923000Y-65250000D01*
G37*
X152923000Y-65250000D02*
X152921000Y-65271000D01*
X152917000Y-65295000D01*
X152912000Y-65318000D01*
X152906000Y-65341000D01*
X152899000Y-65363000D01*
X152891000Y-65386000D01*
X152882000Y-65408000D01*
X152872000Y-65429000D01*
X152861000Y-65450000D01*
X152849000Y-65470000D01*
X152836000Y-65490000D01*
X152823000Y-65510000D01*
X152808000Y-65528000D01*
X152792000Y-65546000D01*
X152776000Y-65563000D01*
X152759000Y-65579000D01*
X152741000Y-65595000D01*
X152723000Y-65610000D01*
X152703000Y-65623000D01*
X152683000Y-65636000D01*
X152663000Y-65648000D01*
X152642000Y-65659000D01*
X152621000Y-65669000D01*
X152599000Y-65678000D01*
X152576000Y-65686000D01*
X152554000Y-65693000D01*
X152531000Y-65699000D01*
X152508000Y-65704000D01*
X152484000Y-65708000D01*
X152463000Y-65710000D01*
X152463000Y-66010000D01*
X152502000Y-66007000D01*
X152540000Y-66002000D01*
X152579000Y-65995000D01*
X152617000Y-65987000D01*
X152655000Y-65976000D01*
X152693000Y-65964000D01*
X152729000Y-65949000D01*
X152765000Y-65933000D01*
X152800000Y-65916000D01*
X152834000Y-65896000D01*
X152867000Y-65875000D01*
X152900000Y-65853000D01*
X152931000Y-65828000D01*
X152960000Y-65803000D01*
X152989000Y-65776000D01*
X153016000Y-65747000D01*
X153041000Y-65718000D01*
X153066000Y-65687000D01*
X153088000Y-65654000D01*
X153109000Y-65621000D01*
X153129000Y-65587000D01*
X153146000Y-65552000D01*
X153162000Y-65516000D01*
X153177000Y-65480000D01*
X153189000Y-65442000D01*
X153200000Y-65404000D01*
X153208000Y-65366000D01*
X153215000Y-65327000D01*
X153220000Y-65289000D01*
X153223000Y-65250000D01*
X152923000Y-65250000D01*
G36*
X152463000Y-64690000D02*
G01*
X152484000Y-64692000D01*
X152508000Y-64696000D01*
X152531000Y-64701000D01*
X152554000Y-64707000D01*
X152576000Y-64714000D01*
X152599000Y-64722000D01*
X152621000Y-64731000D01*
X152642000Y-64741000D01*
X152663000Y-64752000D01*
X152683000Y-64764000D01*
X152703000Y-64777000D01*
X152723000Y-64790000D01*
X152741000Y-64805000D01*
X152759000Y-64821000D01*
X152776000Y-64837000D01*
X152792000Y-64854000D01*
X152808000Y-64872000D01*
X152823000Y-64890000D01*
X152836000Y-64910000D01*
X152849000Y-64930000D01*
X152861000Y-64950000D01*
X152872000Y-64971000D01*
X152882000Y-64992000D01*
X152891000Y-65014000D01*
X152899000Y-65037000D01*
X152906000Y-65059000D01*
X152912000Y-65082000D01*
X152917000Y-65105000D01*
X152921000Y-65129000D01*
X152923000Y-65150000D01*
X153223000Y-65150000D01*
X153220000Y-65111000D01*
X153215000Y-65073000D01*
X153208000Y-65034000D01*
X153200000Y-64996000D01*
X153189000Y-64958000D01*
X153177000Y-64920000D01*
X153162000Y-64884000D01*
X153146000Y-64848000D01*
X153129000Y-64813000D01*
X153109000Y-64779000D01*
X153088000Y-64746000D01*
X153066000Y-64713000D01*
X153041000Y-64682000D01*
X153016000Y-64653000D01*
X152989000Y-64624000D01*
X152960000Y-64597000D01*
X152931000Y-64572000D01*
X152900000Y-64547000D01*
X152867000Y-64525000D01*
X152834000Y-64504000D01*
X152800000Y-64484000D01*
X152765000Y-64467000D01*
X152729000Y-64451000D01*
X152693000Y-64436000D01*
X152655000Y-64424000D01*
X152617000Y-64413000D01*
X152579000Y-64405000D01*
X152540000Y-64398000D01*
X152502000Y-64393000D01*
X152463000Y-64390000D01*
X152463000Y-64690000D01*
G37*
X152463000Y-64690000D02*
X152484000Y-64692000D01*
X152508000Y-64696000D01*
X152531000Y-64701000D01*
X152554000Y-64707000D01*
X152576000Y-64714000D01*
X152599000Y-64722000D01*
X152621000Y-64731000D01*
X152642000Y-64741000D01*
X152663000Y-64752000D01*
X152683000Y-64764000D01*
X152703000Y-64777000D01*
X152723000Y-64790000D01*
X152741000Y-64805000D01*
X152759000Y-64821000D01*
X152776000Y-64837000D01*
X152792000Y-64854000D01*
X152808000Y-64872000D01*
X152823000Y-64890000D01*
X152836000Y-64910000D01*
X152849000Y-64930000D01*
X152861000Y-64950000D01*
X152872000Y-64971000D01*
X152882000Y-64992000D01*
X152891000Y-65014000D01*
X152899000Y-65037000D01*
X152906000Y-65059000D01*
X152912000Y-65082000D01*
X152917000Y-65105000D01*
X152921000Y-65129000D01*
X152923000Y-65150000D01*
X153223000Y-65150000D01*
X153220000Y-65111000D01*
X153215000Y-65073000D01*
X153208000Y-65034000D01*
X153200000Y-64996000D01*
X153189000Y-64958000D01*
X153177000Y-64920000D01*
X153162000Y-64884000D01*
X153146000Y-64848000D01*
X153129000Y-64813000D01*
X153109000Y-64779000D01*
X153088000Y-64746000D01*
X153066000Y-64713000D01*
X153041000Y-64682000D01*
X153016000Y-64653000D01*
X152989000Y-64624000D01*
X152960000Y-64597000D01*
X152931000Y-64572000D01*
X152900000Y-64547000D01*
X152867000Y-64525000D01*
X152834000Y-64504000D01*
X152800000Y-64484000D01*
X152765000Y-64467000D01*
X152729000Y-64451000D01*
X152693000Y-64436000D01*
X152655000Y-64424000D01*
X152617000Y-64413000D01*
X152579000Y-64405000D01*
X152540000Y-64398000D01*
X152502000Y-64393000D01*
X152463000Y-64390000D01*
X152463000Y-64690000D01*
G36*
X150128000Y-64950000D02*
G01*
X150550000Y-64950000D01*
X150550000Y-65450000D01*
X150128000Y-65450000D01*
X150128000Y-64950000D01*
G37*
X150128000Y-64950000D02*
X150550000Y-64950000D01*
X150550000Y-65450000D01*
X150128000Y-65450000D01*
X150128000Y-64950000D01*
D15*
X141450000Y-51950000D03*
X145450000Y-51950000D03*
X144450000Y-51950000D03*
X146450000Y-51950000D03*
X142450000Y-51950000D03*
X143450000Y-51950000D03*
X150450000Y-51950000D03*
X148450000Y-51950000D03*
X149450000Y-51950000D03*
X151450000Y-51950000D03*
X147450000Y-51950000D03*
X152450000Y-51950000D03*
X141450000Y-37250000D03*
X143450000Y-37250000D03*
X144450000Y-37250000D03*
X142450000Y-37250000D03*
X145450000Y-37250000D03*
X150450000Y-37250000D03*
X151450000Y-37250000D03*
X152450000Y-37250000D03*
D13*
G36*
X146852691Y-34526053D02*
G01*
X146873926Y-34529203D01*
X146894750Y-34534419D01*
X146914962Y-34541651D01*
X146934368Y-34550830D01*
X146952781Y-34561866D01*
X146970024Y-34574654D01*
X146985930Y-34589070D01*
X147000346Y-34604976D01*
X147013134Y-34622219D01*
X147024170Y-34640632D01*
X147033349Y-34660038D01*
X147040581Y-34680250D01*
X147045797Y-34701074D01*
X147048947Y-34722309D01*
X147050000Y-34743750D01*
X147050000Y-35256250D01*
X147048947Y-35277691D01*
X147045797Y-35298926D01*
X147040581Y-35319750D01*
X147033349Y-35339962D01*
X147024170Y-35359368D01*
X147013134Y-35377781D01*
X147000346Y-35395024D01*
X146985930Y-35410930D01*
X146970024Y-35425346D01*
X146952781Y-35438134D01*
X146934368Y-35449170D01*
X146914962Y-35458349D01*
X146894750Y-35465581D01*
X146873926Y-35470797D01*
X146852691Y-35473947D01*
X146831250Y-35475000D01*
X146393750Y-35475000D01*
X146372309Y-35473947D01*
X146351074Y-35470797D01*
X146330250Y-35465581D01*
X146310038Y-35458349D01*
X146290632Y-35449170D01*
X146272219Y-35438134D01*
X146254976Y-35425346D01*
X146239070Y-35410930D01*
X146224654Y-35395024D01*
X146211866Y-35377781D01*
X146200830Y-35359368D01*
X146191651Y-35339962D01*
X146184419Y-35319750D01*
X146179203Y-35298926D01*
X146176053Y-35277691D01*
X146175000Y-35256250D01*
X146175000Y-34743750D01*
X146176053Y-34722309D01*
X146179203Y-34701074D01*
X146184419Y-34680250D01*
X146191651Y-34660038D01*
X146200830Y-34640632D01*
X146211866Y-34622219D01*
X146224654Y-34604976D01*
X146239070Y-34589070D01*
X146254976Y-34574654D01*
X146272219Y-34561866D01*
X146290632Y-34550830D01*
X146310038Y-34541651D01*
X146330250Y-34534419D01*
X146351074Y-34529203D01*
X146372309Y-34526053D01*
X146393750Y-34525000D01*
X146831250Y-34525000D01*
X146852691Y-34526053D01*
G37*
G36*
X148427691Y-34526053D02*
G01*
X148448926Y-34529203D01*
X148469750Y-34534419D01*
X148489962Y-34541651D01*
X148509368Y-34550830D01*
X148527781Y-34561866D01*
X148545024Y-34574654D01*
X148560930Y-34589070D01*
X148575346Y-34604976D01*
X148588134Y-34622219D01*
X148599170Y-34640632D01*
X148608349Y-34660038D01*
X148615581Y-34680250D01*
X148620797Y-34701074D01*
X148623947Y-34722309D01*
X148625000Y-34743750D01*
X148625000Y-35256250D01*
X148623947Y-35277691D01*
X148620797Y-35298926D01*
X148615581Y-35319750D01*
X148608349Y-35339962D01*
X148599170Y-35359368D01*
X148588134Y-35377781D01*
X148575346Y-35395024D01*
X148560930Y-35410930D01*
X148545024Y-35425346D01*
X148527781Y-35438134D01*
X148509368Y-35449170D01*
X148489962Y-35458349D01*
X148469750Y-35465581D01*
X148448926Y-35470797D01*
X148427691Y-35473947D01*
X148406250Y-35475000D01*
X147968750Y-35475000D01*
X147947309Y-35473947D01*
X147926074Y-35470797D01*
X147905250Y-35465581D01*
X147885038Y-35458349D01*
X147865632Y-35449170D01*
X147847219Y-35438134D01*
X147829976Y-35425346D01*
X147814070Y-35410930D01*
X147799654Y-35395024D01*
X147786866Y-35377781D01*
X147775830Y-35359368D01*
X147766651Y-35339962D01*
X147759419Y-35319750D01*
X147754203Y-35298926D01*
X147751053Y-35277691D01*
X147750000Y-35256250D01*
X147750000Y-34743750D01*
X147751053Y-34722309D01*
X147754203Y-34701074D01*
X147759419Y-34680250D01*
X147766651Y-34660038D01*
X147775830Y-34640632D01*
X147786866Y-34622219D01*
X147799654Y-34604976D01*
X147814070Y-34589070D01*
X147829976Y-34574654D01*
X147847219Y-34561866D01*
X147865632Y-34550830D01*
X147885038Y-34541651D01*
X147905250Y-34534419D01*
X147926074Y-34529203D01*
X147947309Y-34526053D01*
X147968750Y-34525000D01*
X148406250Y-34525000D01*
X148427691Y-34526053D01*
G37*
G36*
X141586958Y-34020710D02*
G01*
X141601276Y-34022834D01*
X141615317Y-34026351D01*
X141628946Y-34031228D01*
X141642031Y-34037417D01*
X141654447Y-34044858D01*
X141666073Y-34053481D01*
X141676798Y-34063202D01*
X141686519Y-34073927D01*
X141695142Y-34085553D01*
X141702583Y-34097969D01*
X141708772Y-34111054D01*
X141713649Y-34124683D01*
X141717166Y-34138724D01*
X141719290Y-34153042D01*
X141720000Y-34167500D01*
X141720000Y-34462500D01*
X141719290Y-34476958D01*
X141717166Y-34491276D01*
X141713649Y-34505317D01*
X141708772Y-34518946D01*
X141702583Y-34532031D01*
X141695142Y-34544447D01*
X141686519Y-34556073D01*
X141676798Y-34566798D01*
X141666073Y-34576519D01*
X141654447Y-34585142D01*
X141642031Y-34592583D01*
X141628946Y-34598772D01*
X141615317Y-34603649D01*
X141601276Y-34607166D01*
X141586958Y-34609290D01*
X141572500Y-34610000D01*
X141227500Y-34610000D01*
X141213042Y-34609290D01*
X141198724Y-34607166D01*
X141184683Y-34603649D01*
X141171054Y-34598772D01*
X141157969Y-34592583D01*
X141145553Y-34585142D01*
X141133927Y-34576519D01*
X141123202Y-34566798D01*
X141113481Y-34556073D01*
X141104858Y-34544447D01*
X141097417Y-34532031D01*
X141091228Y-34518946D01*
X141086351Y-34505317D01*
X141082834Y-34491276D01*
X141080710Y-34476958D01*
X141080000Y-34462500D01*
X141080000Y-34167500D01*
X141080710Y-34153042D01*
X141082834Y-34138724D01*
X141086351Y-34124683D01*
X141091228Y-34111054D01*
X141097417Y-34097969D01*
X141104858Y-34085553D01*
X141113481Y-34073927D01*
X141123202Y-34063202D01*
X141133927Y-34053481D01*
X141145553Y-34044858D01*
X141157969Y-34037417D01*
X141171054Y-34031228D01*
X141184683Y-34026351D01*
X141198724Y-34022834D01*
X141213042Y-34020710D01*
X141227500Y-34020000D01*
X141572500Y-34020000D01*
X141586958Y-34020710D01*
G37*
G36*
X141586958Y-34990710D02*
G01*
X141601276Y-34992834D01*
X141615317Y-34996351D01*
X141628946Y-35001228D01*
X141642031Y-35007417D01*
X141654447Y-35014858D01*
X141666073Y-35023481D01*
X141676798Y-35033202D01*
X141686519Y-35043927D01*
X141695142Y-35055553D01*
X141702583Y-35067969D01*
X141708772Y-35081054D01*
X141713649Y-35094683D01*
X141717166Y-35108724D01*
X141719290Y-35123042D01*
X141720000Y-35137500D01*
X141720000Y-35432500D01*
X141719290Y-35446958D01*
X141717166Y-35461276D01*
X141713649Y-35475317D01*
X141708772Y-35488946D01*
X141702583Y-35502031D01*
X141695142Y-35514447D01*
X141686519Y-35526073D01*
X141676798Y-35536798D01*
X141666073Y-35546519D01*
X141654447Y-35555142D01*
X141642031Y-35562583D01*
X141628946Y-35568772D01*
X141615317Y-35573649D01*
X141601276Y-35577166D01*
X141586958Y-35579290D01*
X141572500Y-35580000D01*
X141227500Y-35580000D01*
X141213042Y-35579290D01*
X141198724Y-35577166D01*
X141184683Y-35573649D01*
X141171054Y-35568772D01*
X141157969Y-35562583D01*
X141145553Y-35555142D01*
X141133927Y-35546519D01*
X141123202Y-35536798D01*
X141113481Y-35526073D01*
X141104858Y-35514447D01*
X141097417Y-35502031D01*
X141091228Y-35488946D01*
X141086351Y-35475317D01*
X141082834Y-35461276D01*
X141080710Y-35446958D01*
X141080000Y-35432500D01*
X141080000Y-35137500D01*
X141080710Y-35123042D01*
X141082834Y-35108724D01*
X141086351Y-35094683D01*
X141091228Y-35081054D01*
X141097417Y-35067969D01*
X141104858Y-35055553D01*
X141113481Y-35043927D01*
X141123202Y-35033202D01*
X141133927Y-35023481D01*
X141145553Y-35014858D01*
X141157969Y-35007417D01*
X141171054Y-35001228D01*
X141184683Y-34996351D01*
X141198724Y-34992834D01*
X141213042Y-34990710D01*
X141227500Y-34990000D01*
X141572500Y-34990000D01*
X141586958Y-34990710D01*
G37*
G36*
X140386958Y-34020710D02*
G01*
X140401276Y-34022834D01*
X140415317Y-34026351D01*
X140428946Y-34031228D01*
X140442031Y-34037417D01*
X140454447Y-34044858D01*
X140466073Y-34053481D01*
X140476798Y-34063202D01*
X140486519Y-34073927D01*
X140495142Y-34085553D01*
X140502583Y-34097969D01*
X140508772Y-34111054D01*
X140513649Y-34124683D01*
X140517166Y-34138724D01*
X140519290Y-34153042D01*
X140520000Y-34167500D01*
X140520000Y-34462500D01*
X140519290Y-34476958D01*
X140517166Y-34491276D01*
X140513649Y-34505317D01*
X140508772Y-34518946D01*
X140502583Y-34532031D01*
X140495142Y-34544447D01*
X140486519Y-34556073D01*
X140476798Y-34566798D01*
X140466073Y-34576519D01*
X140454447Y-34585142D01*
X140442031Y-34592583D01*
X140428946Y-34598772D01*
X140415317Y-34603649D01*
X140401276Y-34607166D01*
X140386958Y-34609290D01*
X140372500Y-34610000D01*
X140027500Y-34610000D01*
X140013042Y-34609290D01*
X139998724Y-34607166D01*
X139984683Y-34603649D01*
X139971054Y-34598772D01*
X139957969Y-34592583D01*
X139945553Y-34585142D01*
X139933927Y-34576519D01*
X139923202Y-34566798D01*
X139913481Y-34556073D01*
X139904858Y-34544447D01*
X139897417Y-34532031D01*
X139891228Y-34518946D01*
X139886351Y-34505317D01*
X139882834Y-34491276D01*
X139880710Y-34476958D01*
X139880000Y-34462500D01*
X139880000Y-34167500D01*
X139880710Y-34153042D01*
X139882834Y-34138724D01*
X139886351Y-34124683D01*
X139891228Y-34111054D01*
X139897417Y-34097969D01*
X139904858Y-34085553D01*
X139913481Y-34073927D01*
X139923202Y-34063202D01*
X139933927Y-34053481D01*
X139945553Y-34044858D01*
X139957969Y-34037417D01*
X139971054Y-34031228D01*
X139984683Y-34026351D01*
X139998724Y-34022834D01*
X140013042Y-34020710D01*
X140027500Y-34020000D01*
X140372500Y-34020000D01*
X140386958Y-34020710D01*
G37*
G36*
X140386958Y-34990710D02*
G01*
X140401276Y-34992834D01*
X140415317Y-34996351D01*
X140428946Y-35001228D01*
X140442031Y-35007417D01*
X140454447Y-35014858D01*
X140466073Y-35023481D01*
X140476798Y-35033202D01*
X140486519Y-35043927D01*
X140495142Y-35055553D01*
X140502583Y-35067969D01*
X140508772Y-35081054D01*
X140513649Y-35094683D01*
X140517166Y-35108724D01*
X140519290Y-35123042D01*
X140520000Y-35137500D01*
X140520000Y-35432500D01*
X140519290Y-35446958D01*
X140517166Y-35461276D01*
X140513649Y-35475317D01*
X140508772Y-35488946D01*
X140502583Y-35502031D01*
X140495142Y-35514447D01*
X140486519Y-35526073D01*
X140476798Y-35536798D01*
X140466073Y-35546519D01*
X140454447Y-35555142D01*
X140442031Y-35562583D01*
X140428946Y-35568772D01*
X140415317Y-35573649D01*
X140401276Y-35577166D01*
X140386958Y-35579290D01*
X140372500Y-35580000D01*
X140027500Y-35580000D01*
X140013042Y-35579290D01*
X139998724Y-35577166D01*
X139984683Y-35573649D01*
X139971054Y-35568772D01*
X139957969Y-35562583D01*
X139945553Y-35555142D01*
X139933927Y-35546519D01*
X139923202Y-35536798D01*
X139913481Y-35526073D01*
X139904858Y-35514447D01*
X139897417Y-35502031D01*
X139891228Y-35488946D01*
X139886351Y-35475317D01*
X139882834Y-35461276D01*
X139880710Y-35446958D01*
X139880000Y-35432500D01*
X139880000Y-35137500D01*
X139880710Y-35123042D01*
X139882834Y-35108724D01*
X139886351Y-35094683D01*
X139891228Y-35081054D01*
X139897417Y-35067969D01*
X139904858Y-35055553D01*
X139913481Y-35043927D01*
X139923202Y-35033202D01*
X139933927Y-35023481D01*
X139945553Y-35014858D01*
X139957969Y-35007417D01*
X139971054Y-35001228D01*
X139984683Y-34996351D01*
X139998724Y-34992834D01*
X140013042Y-34990710D01*
X140027500Y-34990000D01*
X140372500Y-34990000D01*
X140386958Y-34990710D01*
G37*
G36*
X149066958Y-63560710D02*
G01*
X149081276Y-63562834D01*
X149095317Y-63566351D01*
X149108946Y-63571228D01*
X149122031Y-63577417D01*
X149134447Y-63584858D01*
X149146073Y-63593481D01*
X149156798Y-63603202D01*
X149166519Y-63613927D01*
X149175142Y-63625553D01*
X149182583Y-63637969D01*
X149188772Y-63651054D01*
X149193649Y-63664683D01*
X149197166Y-63678724D01*
X149199290Y-63693042D01*
X149200000Y-63707500D01*
X149200000Y-64002500D01*
X149199290Y-64016958D01*
X149197166Y-64031276D01*
X149193649Y-64045317D01*
X149188772Y-64058946D01*
X149182583Y-64072031D01*
X149175142Y-64084447D01*
X149166519Y-64096073D01*
X149156798Y-64106798D01*
X149146073Y-64116519D01*
X149134447Y-64125142D01*
X149122031Y-64132583D01*
X149108946Y-64138772D01*
X149095317Y-64143649D01*
X149081276Y-64147166D01*
X149066958Y-64149290D01*
X149052500Y-64150000D01*
X148707500Y-64150000D01*
X148693042Y-64149290D01*
X148678724Y-64147166D01*
X148664683Y-64143649D01*
X148651054Y-64138772D01*
X148637969Y-64132583D01*
X148625553Y-64125142D01*
X148613927Y-64116519D01*
X148603202Y-64106798D01*
X148593481Y-64096073D01*
X148584858Y-64084447D01*
X148577417Y-64072031D01*
X148571228Y-64058946D01*
X148566351Y-64045317D01*
X148562834Y-64031276D01*
X148560710Y-64016958D01*
X148560000Y-64002500D01*
X148560000Y-63707500D01*
X148560710Y-63693042D01*
X148562834Y-63678724D01*
X148566351Y-63664683D01*
X148571228Y-63651054D01*
X148577417Y-63637969D01*
X148584858Y-63625553D01*
X148593481Y-63613927D01*
X148603202Y-63603202D01*
X148613927Y-63593481D01*
X148625553Y-63584858D01*
X148637969Y-63577417D01*
X148651054Y-63571228D01*
X148664683Y-63566351D01*
X148678724Y-63562834D01*
X148693042Y-63560710D01*
X148707500Y-63560000D01*
X149052500Y-63560000D01*
X149066958Y-63560710D01*
G37*
G36*
X149066958Y-62590710D02*
G01*
X149081276Y-62592834D01*
X149095317Y-62596351D01*
X149108946Y-62601228D01*
X149122031Y-62607417D01*
X149134447Y-62614858D01*
X149146073Y-62623481D01*
X149156798Y-62633202D01*
X149166519Y-62643927D01*
X149175142Y-62655553D01*
X149182583Y-62667969D01*
X149188772Y-62681054D01*
X149193649Y-62694683D01*
X149197166Y-62708724D01*
X149199290Y-62723042D01*
X149200000Y-62737500D01*
X149200000Y-63032500D01*
X149199290Y-63046958D01*
X149197166Y-63061276D01*
X149193649Y-63075317D01*
X149188772Y-63088946D01*
X149182583Y-63102031D01*
X149175142Y-63114447D01*
X149166519Y-63126073D01*
X149156798Y-63136798D01*
X149146073Y-63146519D01*
X149134447Y-63155142D01*
X149122031Y-63162583D01*
X149108946Y-63168772D01*
X149095317Y-63173649D01*
X149081276Y-63177166D01*
X149066958Y-63179290D01*
X149052500Y-63180000D01*
X148707500Y-63180000D01*
X148693042Y-63179290D01*
X148678724Y-63177166D01*
X148664683Y-63173649D01*
X148651054Y-63168772D01*
X148637969Y-63162583D01*
X148625553Y-63155142D01*
X148613927Y-63146519D01*
X148603202Y-63136798D01*
X148593481Y-63126073D01*
X148584858Y-63114447D01*
X148577417Y-63102031D01*
X148571228Y-63088946D01*
X148566351Y-63075317D01*
X148562834Y-63061276D01*
X148560710Y-63046958D01*
X148560000Y-63032500D01*
X148560000Y-62737500D01*
X148560710Y-62723042D01*
X148562834Y-62708724D01*
X148566351Y-62694683D01*
X148571228Y-62681054D01*
X148577417Y-62667969D01*
X148584858Y-62655553D01*
X148593481Y-62643927D01*
X148603202Y-62633202D01*
X148613927Y-62623481D01*
X148625553Y-62614858D01*
X148637969Y-62607417D01*
X148651054Y-62601228D01*
X148664683Y-62596351D01*
X148678724Y-62592834D01*
X148693042Y-62590710D01*
X148707500Y-62590000D01*
X149052500Y-62590000D01*
X149066958Y-62590710D01*
G37*
G36*
X99574504Y-33301204D02*
G01*
X99598773Y-33304804D01*
X99622571Y-33310765D01*
X99645671Y-33319030D01*
X99667849Y-33329520D01*
X99688893Y-33342133D01*
X99708598Y-33356747D01*
X99726777Y-33373223D01*
X99743253Y-33391402D01*
X99757867Y-33411107D01*
X99770480Y-33432151D01*
X99780970Y-33454329D01*
X99789235Y-33477429D01*
X99795196Y-33501227D01*
X99798796Y-33525496D01*
X99800000Y-33550000D01*
X99800000Y-35650000D01*
X99798796Y-35674504D01*
X99795196Y-35698773D01*
X99789235Y-35722571D01*
X99780970Y-35745671D01*
X99770480Y-35767849D01*
X99757867Y-35788893D01*
X99743253Y-35808598D01*
X99726777Y-35826777D01*
X99708598Y-35843253D01*
X99688893Y-35857867D01*
X99667849Y-35870480D01*
X99645671Y-35880970D01*
X99622571Y-35889235D01*
X99598773Y-35895196D01*
X99574504Y-35898796D01*
X99550000Y-35900000D01*
X98450000Y-35900000D01*
X98425496Y-35898796D01*
X98401227Y-35895196D01*
X98377429Y-35889235D01*
X98354329Y-35880970D01*
X98332151Y-35870480D01*
X98311107Y-35857867D01*
X98291402Y-35843253D01*
X98273223Y-35826777D01*
X98256747Y-35808598D01*
X98242133Y-35788893D01*
X98229520Y-35767849D01*
X98219030Y-35745671D01*
X98210765Y-35722571D01*
X98204804Y-35698773D01*
X98201204Y-35674504D01*
X98200000Y-35650000D01*
X98200000Y-33550000D01*
X98201204Y-33525496D01*
X98204804Y-33501227D01*
X98210765Y-33477429D01*
X98219030Y-33454329D01*
X98229520Y-33432151D01*
X98242133Y-33411107D01*
X98256747Y-33391402D01*
X98273223Y-33373223D01*
X98291402Y-33356747D01*
X98311107Y-33342133D01*
X98332151Y-33329520D01*
X98354329Y-33319030D01*
X98377429Y-33310765D01*
X98401227Y-33304804D01*
X98425496Y-33301204D01*
X98450000Y-33300000D01*
X99550000Y-33300000D01*
X99574504Y-33301204D01*
G37*
G36*
X99574504Y-36901204D02*
G01*
X99598773Y-36904804D01*
X99622571Y-36910765D01*
X99645671Y-36919030D01*
X99667849Y-36929520D01*
X99688893Y-36942133D01*
X99708598Y-36956747D01*
X99726777Y-36973223D01*
X99743253Y-36991402D01*
X99757867Y-37011107D01*
X99770480Y-37032151D01*
X99780970Y-37054329D01*
X99789235Y-37077429D01*
X99795196Y-37101227D01*
X99798796Y-37125496D01*
X99800000Y-37150000D01*
X99800000Y-39250000D01*
X99798796Y-39274504D01*
X99795196Y-39298773D01*
X99789235Y-39322571D01*
X99780970Y-39345671D01*
X99770480Y-39367849D01*
X99757867Y-39388893D01*
X99743253Y-39408598D01*
X99726777Y-39426777D01*
X99708598Y-39443253D01*
X99688893Y-39457867D01*
X99667849Y-39470480D01*
X99645671Y-39480970D01*
X99622571Y-39489235D01*
X99598773Y-39495196D01*
X99574504Y-39498796D01*
X99550000Y-39500000D01*
X98450000Y-39500000D01*
X98425496Y-39498796D01*
X98401227Y-39495196D01*
X98377429Y-39489235D01*
X98354329Y-39480970D01*
X98332151Y-39470480D01*
X98311107Y-39457867D01*
X98291402Y-39443253D01*
X98273223Y-39426777D01*
X98256747Y-39408598D01*
X98242133Y-39388893D01*
X98229520Y-39367849D01*
X98219030Y-39345671D01*
X98210765Y-39322571D01*
X98204804Y-39298773D01*
X98201204Y-39274504D01*
X98200000Y-39250000D01*
X98200000Y-37150000D01*
X98201204Y-37125496D01*
X98204804Y-37101227D01*
X98210765Y-37077429D01*
X98219030Y-37054329D01*
X98229520Y-37032151D01*
X98242133Y-37011107D01*
X98256747Y-36991402D01*
X98273223Y-36973223D01*
X98291402Y-36956747D01*
X98311107Y-36942133D01*
X98332151Y-36929520D01*
X98354329Y-36919030D01*
X98377429Y-36910765D01*
X98401227Y-36904804D01*
X98425496Y-36901204D01*
X98450000Y-36900000D01*
X99550000Y-36900000D01*
X99574504Y-36901204D01*
G37*
G36*
X151557691Y-67346053D02*
G01*
X151578926Y-67349203D01*
X151599750Y-67354419D01*
X151619962Y-67361651D01*
X151639368Y-67370830D01*
X151657781Y-67381866D01*
X151675024Y-67394654D01*
X151690930Y-67409070D01*
X151705346Y-67424976D01*
X151718134Y-67442219D01*
X151729170Y-67460632D01*
X151738349Y-67480038D01*
X151745581Y-67500250D01*
X151750797Y-67521074D01*
X151753947Y-67542309D01*
X151755000Y-67563750D01*
X151755000Y-68001250D01*
X151753947Y-68022691D01*
X151750797Y-68043926D01*
X151745581Y-68064750D01*
X151738349Y-68084962D01*
X151729170Y-68104368D01*
X151718134Y-68122781D01*
X151705346Y-68140024D01*
X151690930Y-68155930D01*
X151675024Y-68170346D01*
X151657781Y-68183134D01*
X151639368Y-68194170D01*
X151619962Y-68203349D01*
X151599750Y-68210581D01*
X151578926Y-68215797D01*
X151557691Y-68218947D01*
X151536250Y-68220000D01*
X151023750Y-68220000D01*
X151002309Y-68218947D01*
X150981074Y-68215797D01*
X150960250Y-68210581D01*
X150940038Y-68203349D01*
X150920632Y-68194170D01*
X150902219Y-68183134D01*
X150884976Y-68170346D01*
X150869070Y-68155930D01*
X150854654Y-68140024D01*
X150841866Y-68122781D01*
X150830830Y-68104368D01*
X150821651Y-68084962D01*
X150814419Y-68064750D01*
X150809203Y-68043926D01*
X150806053Y-68022691D01*
X150805000Y-68001250D01*
X150805000Y-67563750D01*
X150806053Y-67542309D01*
X150809203Y-67521074D01*
X150814419Y-67500250D01*
X150821651Y-67480038D01*
X150830830Y-67460632D01*
X150841866Y-67442219D01*
X150854654Y-67424976D01*
X150869070Y-67409070D01*
X150884976Y-67394654D01*
X150902219Y-67381866D01*
X150920632Y-67370830D01*
X150940038Y-67361651D01*
X150960250Y-67354419D01*
X150981074Y-67349203D01*
X151002309Y-67346053D01*
X151023750Y-67345000D01*
X151536250Y-67345000D01*
X151557691Y-67346053D01*
G37*
G36*
X151557691Y-68921053D02*
G01*
X151578926Y-68924203D01*
X151599750Y-68929419D01*
X151619962Y-68936651D01*
X151639368Y-68945830D01*
X151657781Y-68956866D01*
X151675024Y-68969654D01*
X151690930Y-68984070D01*
X151705346Y-68999976D01*
X151718134Y-69017219D01*
X151729170Y-69035632D01*
X151738349Y-69055038D01*
X151745581Y-69075250D01*
X151750797Y-69096074D01*
X151753947Y-69117309D01*
X151755000Y-69138750D01*
X151755000Y-69576250D01*
X151753947Y-69597691D01*
X151750797Y-69618926D01*
X151745581Y-69639750D01*
X151738349Y-69659962D01*
X151729170Y-69679368D01*
X151718134Y-69697781D01*
X151705346Y-69715024D01*
X151690930Y-69730930D01*
X151675024Y-69745346D01*
X151657781Y-69758134D01*
X151639368Y-69769170D01*
X151619962Y-69778349D01*
X151599750Y-69785581D01*
X151578926Y-69790797D01*
X151557691Y-69793947D01*
X151536250Y-69795000D01*
X151023750Y-69795000D01*
X151002309Y-69793947D01*
X150981074Y-69790797D01*
X150960250Y-69785581D01*
X150940038Y-69778349D01*
X150920632Y-69769170D01*
X150902219Y-69758134D01*
X150884976Y-69745346D01*
X150869070Y-69730930D01*
X150854654Y-69715024D01*
X150841866Y-69697781D01*
X150830830Y-69679368D01*
X150821651Y-69659962D01*
X150814419Y-69639750D01*
X150809203Y-69618926D01*
X150806053Y-69597691D01*
X150805000Y-69576250D01*
X150805000Y-69138750D01*
X150806053Y-69117309D01*
X150809203Y-69096074D01*
X150814419Y-69075250D01*
X150821651Y-69055038D01*
X150830830Y-69035632D01*
X150841866Y-69017219D01*
X150854654Y-68999976D01*
X150869070Y-68984070D01*
X150884976Y-68969654D01*
X150902219Y-68956866D01*
X150920632Y-68945830D01*
X150940038Y-68936651D01*
X150960250Y-68929419D01*
X150981074Y-68924203D01*
X151002309Y-68921053D01*
X151023750Y-68920000D01*
X151536250Y-68920000D01*
X151557691Y-68921053D01*
G37*
G36*
X153157691Y-68921053D02*
G01*
X153178926Y-68924203D01*
X153199750Y-68929419D01*
X153219962Y-68936651D01*
X153239368Y-68945830D01*
X153257781Y-68956866D01*
X153275024Y-68969654D01*
X153290930Y-68984070D01*
X153305346Y-68999976D01*
X153318134Y-69017219D01*
X153329170Y-69035632D01*
X153338349Y-69055038D01*
X153345581Y-69075250D01*
X153350797Y-69096074D01*
X153353947Y-69117309D01*
X153355000Y-69138750D01*
X153355000Y-69576250D01*
X153353947Y-69597691D01*
X153350797Y-69618926D01*
X153345581Y-69639750D01*
X153338349Y-69659962D01*
X153329170Y-69679368D01*
X153318134Y-69697781D01*
X153305346Y-69715024D01*
X153290930Y-69730930D01*
X153275024Y-69745346D01*
X153257781Y-69758134D01*
X153239368Y-69769170D01*
X153219962Y-69778349D01*
X153199750Y-69785581D01*
X153178926Y-69790797D01*
X153157691Y-69793947D01*
X153136250Y-69795000D01*
X152623750Y-69795000D01*
X152602309Y-69793947D01*
X152581074Y-69790797D01*
X152560250Y-69785581D01*
X152540038Y-69778349D01*
X152520632Y-69769170D01*
X152502219Y-69758134D01*
X152484976Y-69745346D01*
X152469070Y-69730930D01*
X152454654Y-69715024D01*
X152441866Y-69697781D01*
X152430830Y-69679368D01*
X152421651Y-69659962D01*
X152414419Y-69639750D01*
X152409203Y-69618926D01*
X152406053Y-69597691D01*
X152405000Y-69576250D01*
X152405000Y-69138750D01*
X152406053Y-69117309D01*
X152409203Y-69096074D01*
X152414419Y-69075250D01*
X152421651Y-69055038D01*
X152430830Y-69035632D01*
X152441866Y-69017219D01*
X152454654Y-68999976D01*
X152469070Y-68984070D01*
X152484976Y-68969654D01*
X152502219Y-68956866D01*
X152520632Y-68945830D01*
X152540038Y-68936651D01*
X152560250Y-68929419D01*
X152581074Y-68924203D01*
X152602309Y-68921053D01*
X152623750Y-68920000D01*
X153136250Y-68920000D01*
X153157691Y-68921053D01*
G37*
G36*
X153157691Y-67346053D02*
G01*
X153178926Y-67349203D01*
X153199750Y-67354419D01*
X153219962Y-67361651D01*
X153239368Y-67370830D01*
X153257781Y-67381866D01*
X153275024Y-67394654D01*
X153290930Y-67409070D01*
X153305346Y-67424976D01*
X153318134Y-67442219D01*
X153329170Y-67460632D01*
X153338349Y-67480038D01*
X153345581Y-67500250D01*
X153350797Y-67521074D01*
X153353947Y-67542309D01*
X153355000Y-67563750D01*
X153355000Y-68001250D01*
X153353947Y-68022691D01*
X153350797Y-68043926D01*
X153345581Y-68064750D01*
X153338349Y-68084962D01*
X153329170Y-68104368D01*
X153318134Y-68122781D01*
X153305346Y-68140024D01*
X153290930Y-68155930D01*
X153275024Y-68170346D01*
X153257781Y-68183134D01*
X153239368Y-68194170D01*
X153219962Y-68203349D01*
X153199750Y-68210581D01*
X153178926Y-68215797D01*
X153157691Y-68218947D01*
X153136250Y-68220000D01*
X152623750Y-68220000D01*
X152602309Y-68218947D01*
X152581074Y-68215797D01*
X152560250Y-68210581D01*
X152540038Y-68203349D01*
X152520632Y-68194170D01*
X152502219Y-68183134D01*
X152484976Y-68170346D01*
X152469070Y-68155930D01*
X152454654Y-68140024D01*
X152441866Y-68122781D01*
X152430830Y-68104368D01*
X152421651Y-68084962D01*
X152414419Y-68064750D01*
X152409203Y-68043926D01*
X152406053Y-68022691D01*
X152405000Y-68001250D01*
X152405000Y-67563750D01*
X152406053Y-67542309D01*
X152409203Y-67521074D01*
X152414419Y-67500250D01*
X152421651Y-67480038D01*
X152430830Y-67460632D01*
X152441866Y-67442219D01*
X152454654Y-67424976D01*
X152469070Y-67409070D01*
X152484976Y-67394654D01*
X152502219Y-67381866D01*
X152520632Y-67370830D01*
X152540038Y-67361651D01*
X152560250Y-67354419D01*
X152581074Y-67349203D01*
X152602309Y-67346053D01*
X152623750Y-67345000D01*
X153136250Y-67345000D01*
X153157691Y-67346053D01*
G37*
G36*
X147332691Y-64696053D02*
G01*
X147353926Y-64699203D01*
X147374750Y-64704419D01*
X147394962Y-64711651D01*
X147414368Y-64720830D01*
X147432781Y-64731866D01*
X147450024Y-64744654D01*
X147465930Y-64759070D01*
X147480346Y-64774976D01*
X147493134Y-64792219D01*
X147504170Y-64810632D01*
X147513349Y-64830038D01*
X147520581Y-64850250D01*
X147525797Y-64871074D01*
X147528947Y-64892309D01*
X147530000Y-64913750D01*
X147530000Y-65426250D01*
X147528947Y-65447691D01*
X147525797Y-65468926D01*
X147520581Y-65489750D01*
X147513349Y-65509962D01*
X147504170Y-65529368D01*
X147493134Y-65547781D01*
X147480346Y-65565024D01*
X147465930Y-65580930D01*
X147450024Y-65595346D01*
X147432781Y-65608134D01*
X147414368Y-65619170D01*
X147394962Y-65628349D01*
X147374750Y-65635581D01*
X147353926Y-65640797D01*
X147332691Y-65643947D01*
X147311250Y-65645000D01*
X146873750Y-65645000D01*
X146852309Y-65643947D01*
X146831074Y-65640797D01*
X146810250Y-65635581D01*
X146790038Y-65628349D01*
X146770632Y-65619170D01*
X146752219Y-65608134D01*
X146734976Y-65595346D01*
X146719070Y-65580930D01*
X146704654Y-65565024D01*
X146691866Y-65547781D01*
X146680830Y-65529368D01*
X146671651Y-65509962D01*
X146664419Y-65489750D01*
X146659203Y-65468926D01*
X146656053Y-65447691D01*
X146655000Y-65426250D01*
X146655000Y-64913750D01*
X146656053Y-64892309D01*
X146659203Y-64871074D01*
X146664419Y-64850250D01*
X146671651Y-64830038D01*
X146680830Y-64810632D01*
X146691866Y-64792219D01*
X146704654Y-64774976D01*
X146719070Y-64759070D01*
X146734976Y-64744654D01*
X146752219Y-64731866D01*
X146770632Y-64720830D01*
X146790038Y-64711651D01*
X146810250Y-64704419D01*
X146831074Y-64699203D01*
X146852309Y-64696053D01*
X146873750Y-64695000D01*
X147311250Y-64695000D01*
X147332691Y-64696053D01*
G37*
G36*
X148907691Y-64696053D02*
G01*
X148928926Y-64699203D01*
X148949750Y-64704419D01*
X148969962Y-64711651D01*
X148989368Y-64720830D01*
X149007781Y-64731866D01*
X149025024Y-64744654D01*
X149040930Y-64759070D01*
X149055346Y-64774976D01*
X149068134Y-64792219D01*
X149079170Y-64810632D01*
X149088349Y-64830038D01*
X149095581Y-64850250D01*
X149100797Y-64871074D01*
X149103947Y-64892309D01*
X149105000Y-64913750D01*
X149105000Y-65426250D01*
X149103947Y-65447691D01*
X149100797Y-65468926D01*
X149095581Y-65489750D01*
X149088349Y-65509962D01*
X149079170Y-65529368D01*
X149068134Y-65547781D01*
X149055346Y-65565024D01*
X149040930Y-65580930D01*
X149025024Y-65595346D01*
X149007781Y-65608134D01*
X148989368Y-65619170D01*
X148969962Y-65628349D01*
X148949750Y-65635581D01*
X148928926Y-65640797D01*
X148907691Y-65643947D01*
X148886250Y-65645000D01*
X148448750Y-65645000D01*
X148427309Y-65643947D01*
X148406074Y-65640797D01*
X148385250Y-65635581D01*
X148365038Y-65628349D01*
X148345632Y-65619170D01*
X148327219Y-65608134D01*
X148309976Y-65595346D01*
X148294070Y-65580930D01*
X148279654Y-65565024D01*
X148266866Y-65547781D01*
X148255830Y-65529368D01*
X148246651Y-65509962D01*
X148239419Y-65489750D01*
X148234203Y-65468926D01*
X148231053Y-65447691D01*
X148230000Y-65426250D01*
X148230000Y-64913750D01*
X148231053Y-64892309D01*
X148234203Y-64871074D01*
X148239419Y-64850250D01*
X148246651Y-64830038D01*
X148255830Y-64810632D01*
X148266866Y-64792219D01*
X148279654Y-64774976D01*
X148294070Y-64759070D01*
X148309976Y-64744654D01*
X148327219Y-64731866D01*
X148345632Y-64720830D01*
X148365038Y-64711651D01*
X148385250Y-64704419D01*
X148406074Y-64699203D01*
X148427309Y-64696053D01*
X148448750Y-64695000D01*
X148886250Y-64695000D01*
X148907691Y-64696053D01*
G37*
G36*
X115099504Y-77326204D02*
G01*
X115123773Y-77329804D01*
X115147571Y-77335765D01*
X115170671Y-77344030D01*
X115192849Y-77354520D01*
X115213893Y-77367133D01*
X115233598Y-77381747D01*
X115251777Y-77398223D01*
X115268253Y-77416402D01*
X115282867Y-77436107D01*
X115295480Y-77457151D01*
X115305970Y-77479329D01*
X115314235Y-77502429D01*
X115320196Y-77526227D01*
X115323796Y-77550496D01*
X115325000Y-77575000D01*
X115325000Y-78825000D01*
X115323796Y-78849504D01*
X115320196Y-78873773D01*
X115314235Y-78897571D01*
X115305970Y-78920671D01*
X115295480Y-78942849D01*
X115282867Y-78963893D01*
X115268253Y-78983598D01*
X115251777Y-79001777D01*
X115233598Y-79018253D01*
X115213893Y-79032867D01*
X115192849Y-79045480D01*
X115170671Y-79055970D01*
X115147571Y-79064235D01*
X115123773Y-79070196D01*
X115099504Y-79073796D01*
X115075000Y-79075000D01*
X114325000Y-79075000D01*
X114300496Y-79073796D01*
X114276227Y-79070196D01*
X114252429Y-79064235D01*
X114229329Y-79055970D01*
X114207151Y-79045480D01*
X114186107Y-79032867D01*
X114166402Y-79018253D01*
X114148223Y-79001777D01*
X114131747Y-78983598D01*
X114117133Y-78963893D01*
X114104520Y-78942849D01*
X114094030Y-78920671D01*
X114085765Y-78897571D01*
X114079804Y-78873773D01*
X114076204Y-78849504D01*
X114075000Y-78825000D01*
X114075000Y-77575000D01*
X114076204Y-77550496D01*
X114079804Y-77526227D01*
X114085765Y-77502429D01*
X114094030Y-77479329D01*
X114104520Y-77457151D01*
X114117133Y-77436107D01*
X114131747Y-77416402D01*
X114148223Y-77398223D01*
X114166402Y-77381747D01*
X114186107Y-77367133D01*
X114207151Y-77354520D01*
X114229329Y-77344030D01*
X114252429Y-77335765D01*
X114276227Y-77329804D01*
X114300496Y-77326204D01*
X114325000Y-77325000D01*
X115075000Y-77325000D01*
X115099504Y-77326204D01*
G37*
G36*
X112299504Y-77326204D02*
G01*
X112323773Y-77329804D01*
X112347571Y-77335765D01*
X112370671Y-77344030D01*
X112392849Y-77354520D01*
X112413893Y-77367133D01*
X112433598Y-77381747D01*
X112451777Y-77398223D01*
X112468253Y-77416402D01*
X112482867Y-77436107D01*
X112495480Y-77457151D01*
X112505970Y-77479329D01*
X112514235Y-77502429D01*
X112520196Y-77526227D01*
X112523796Y-77550496D01*
X112525000Y-77575000D01*
X112525000Y-78825000D01*
X112523796Y-78849504D01*
X112520196Y-78873773D01*
X112514235Y-78897571D01*
X112505970Y-78920671D01*
X112495480Y-78942849D01*
X112482867Y-78963893D01*
X112468253Y-78983598D01*
X112451777Y-79001777D01*
X112433598Y-79018253D01*
X112413893Y-79032867D01*
X112392849Y-79045480D01*
X112370671Y-79055970D01*
X112347571Y-79064235D01*
X112323773Y-79070196D01*
X112299504Y-79073796D01*
X112275000Y-79075000D01*
X111525000Y-79075000D01*
X111500496Y-79073796D01*
X111476227Y-79070196D01*
X111452429Y-79064235D01*
X111429329Y-79055970D01*
X111407151Y-79045480D01*
X111386107Y-79032867D01*
X111366402Y-79018253D01*
X111348223Y-79001777D01*
X111331747Y-78983598D01*
X111317133Y-78963893D01*
X111304520Y-78942849D01*
X111294030Y-78920671D01*
X111285765Y-78897571D01*
X111279804Y-78873773D01*
X111276204Y-78849504D01*
X111275000Y-78825000D01*
X111275000Y-77575000D01*
X111276204Y-77550496D01*
X111279804Y-77526227D01*
X111285765Y-77502429D01*
X111294030Y-77479329D01*
X111304520Y-77457151D01*
X111317133Y-77436107D01*
X111331747Y-77416402D01*
X111348223Y-77398223D01*
X111366402Y-77381747D01*
X111386107Y-77367133D01*
X111407151Y-77354520D01*
X111429329Y-77344030D01*
X111452429Y-77335765D01*
X111476227Y-77329804D01*
X111500496Y-77326204D01*
X111525000Y-77325000D01*
X112275000Y-77325000D01*
X112299504Y-77326204D01*
G37*
G36*
X126486958Y-67420710D02*
G01*
X126501276Y-67422834D01*
X126515317Y-67426351D01*
X126528946Y-67431228D01*
X126542031Y-67437417D01*
X126554447Y-67444858D01*
X126566073Y-67453481D01*
X126576798Y-67463202D01*
X126586519Y-67473927D01*
X126595142Y-67485553D01*
X126602583Y-67497969D01*
X126608772Y-67511054D01*
X126613649Y-67524683D01*
X126617166Y-67538724D01*
X126619290Y-67553042D01*
X126620000Y-67567500D01*
X126620000Y-67862500D01*
X126619290Y-67876958D01*
X126617166Y-67891276D01*
X126613649Y-67905317D01*
X126608772Y-67918946D01*
X126602583Y-67932031D01*
X126595142Y-67944447D01*
X126586519Y-67956073D01*
X126576798Y-67966798D01*
X126566073Y-67976519D01*
X126554447Y-67985142D01*
X126542031Y-67992583D01*
X126528946Y-67998772D01*
X126515317Y-68003649D01*
X126501276Y-68007166D01*
X126486958Y-68009290D01*
X126472500Y-68010000D01*
X126127500Y-68010000D01*
X126113042Y-68009290D01*
X126098724Y-68007166D01*
X126084683Y-68003649D01*
X126071054Y-67998772D01*
X126057969Y-67992583D01*
X126045553Y-67985142D01*
X126033927Y-67976519D01*
X126023202Y-67966798D01*
X126013481Y-67956073D01*
X126004858Y-67944447D01*
X125997417Y-67932031D01*
X125991228Y-67918946D01*
X125986351Y-67905317D01*
X125982834Y-67891276D01*
X125980710Y-67876958D01*
X125980000Y-67862500D01*
X125980000Y-67567500D01*
X125980710Y-67553042D01*
X125982834Y-67538724D01*
X125986351Y-67524683D01*
X125991228Y-67511054D01*
X125997417Y-67497969D01*
X126004858Y-67485553D01*
X126013481Y-67473927D01*
X126023202Y-67463202D01*
X126033927Y-67453481D01*
X126045553Y-67444858D01*
X126057969Y-67437417D01*
X126071054Y-67431228D01*
X126084683Y-67426351D01*
X126098724Y-67422834D01*
X126113042Y-67420710D01*
X126127500Y-67420000D01*
X126472500Y-67420000D01*
X126486958Y-67420710D01*
G37*
G36*
X126486958Y-68390710D02*
G01*
X126501276Y-68392834D01*
X126515317Y-68396351D01*
X126528946Y-68401228D01*
X126542031Y-68407417D01*
X126554447Y-68414858D01*
X126566073Y-68423481D01*
X126576798Y-68433202D01*
X126586519Y-68443927D01*
X126595142Y-68455553D01*
X126602583Y-68467969D01*
X126608772Y-68481054D01*
X126613649Y-68494683D01*
X126617166Y-68508724D01*
X126619290Y-68523042D01*
X126620000Y-68537500D01*
X126620000Y-68832500D01*
X126619290Y-68846958D01*
X126617166Y-68861276D01*
X126613649Y-68875317D01*
X126608772Y-68888946D01*
X126602583Y-68902031D01*
X126595142Y-68914447D01*
X126586519Y-68926073D01*
X126576798Y-68936798D01*
X126566073Y-68946519D01*
X126554447Y-68955142D01*
X126542031Y-68962583D01*
X126528946Y-68968772D01*
X126515317Y-68973649D01*
X126501276Y-68977166D01*
X126486958Y-68979290D01*
X126472500Y-68980000D01*
X126127500Y-68980000D01*
X126113042Y-68979290D01*
X126098724Y-68977166D01*
X126084683Y-68973649D01*
X126071054Y-68968772D01*
X126057969Y-68962583D01*
X126045553Y-68955142D01*
X126033927Y-68946519D01*
X126023202Y-68936798D01*
X126013481Y-68926073D01*
X126004858Y-68914447D01*
X125997417Y-68902031D01*
X125991228Y-68888946D01*
X125986351Y-68875317D01*
X125982834Y-68861276D01*
X125980710Y-68846958D01*
X125980000Y-68832500D01*
X125980000Y-68537500D01*
X125980710Y-68523042D01*
X125982834Y-68508724D01*
X125986351Y-68494683D01*
X125991228Y-68481054D01*
X125997417Y-68467969D01*
X126004858Y-68455553D01*
X126013481Y-68443927D01*
X126023202Y-68433202D01*
X126033927Y-68423481D01*
X126045553Y-68414858D01*
X126057969Y-68407417D01*
X126071054Y-68401228D01*
X126084683Y-68396351D01*
X126098724Y-68392834D01*
X126113042Y-68390710D01*
X126127500Y-68390000D01*
X126472500Y-68390000D01*
X126486958Y-68390710D01*
G37*
G36*
X147446958Y-33280710D02*
G01*
X147461276Y-33282834D01*
X147475317Y-33286351D01*
X147488946Y-33291228D01*
X147502031Y-33297417D01*
X147514447Y-33304858D01*
X147526073Y-33313481D01*
X147536798Y-33323202D01*
X147546519Y-33333927D01*
X147555142Y-33345553D01*
X147562583Y-33357969D01*
X147568772Y-33371054D01*
X147573649Y-33384683D01*
X147577166Y-33398724D01*
X147579290Y-33413042D01*
X147580000Y-33427500D01*
X147580000Y-33772500D01*
X147579290Y-33786958D01*
X147577166Y-33801276D01*
X147573649Y-33815317D01*
X147568772Y-33828946D01*
X147562583Y-33842031D01*
X147555142Y-33854447D01*
X147546519Y-33866073D01*
X147536798Y-33876798D01*
X147526073Y-33886519D01*
X147514447Y-33895142D01*
X147502031Y-33902583D01*
X147488946Y-33908772D01*
X147475317Y-33913649D01*
X147461276Y-33917166D01*
X147446958Y-33919290D01*
X147432500Y-33920000D01*
X147137500Y-33920000D01*
X147123042Y-33919290D01*
X147108724Y-33917166D01*
X147094683Y-33913649D01*
X147081054Y-33908772D01*
X147067969Y-33902583D01*
X147055553Y-33895142D01*
X147043927Y-33886519D01*
X147033202Y-33876798D01*
X147023481Y-33866073D01*
X147014858Y-33854447D01*
X147007417Y-33842031D01*
X147001228Y-33828946D01*
X146996351Y-33815317D01*
X146992834Y-33801276D01*
X146990710Y-33786958D01*
X146990000Y-33772500D01*
X146990000Y-33427500D01*
X146990710Y-33413042D01*
X146992834Y-33398724D01*
X146996351Y-33384683D01*
X147001228Y-33371054D01*
X147007417Y-33357969D01*
X147014858Y-33345553D01*
X147023481Y-33333927D01*
X147033202Y-33323202D01*
X147043927Y-33313481D01*
X147055553Y-33304858D01*
X147067969Y-33297417D01*
X147081054Y-33291228D01*
X147094683Y-33286351D01*
X147108724Y-33282834D01*
X147123042Y-33280710D01*
X147137500Y-33280000D01*
X147432500Y-33280000D01*
X147446958Y-33280710D01*
G37*
G36*
X146476958Y-33280710D02*
G01*
X146491276Y-33282834D01*
X146505317Y-33286351D01*
X146518946Y-33291228D01*
X146532031Y-33297417D01*
X146544447Y-33304858D01*
X146556073Y-33313481D01*
X146566798Y-33323202D01*
X146576519Y-33333927D01*
X146585142Y-33345553D01*
X146592583Y-33357969D01*
X146598772Y-33371054D01*
X146603649Y-33384683D01*
X146607166Y-33398724D01*
X146609290Y-33413042D01*
X146610000Y-33427500D01*
X146610000Y-33772500D01*
X146609290Y-33786958D01*
X146607166Y-33801276D01*
X146603649Y-33815317D01*
X146598772Y-33828946D01*
X146592583Y-33842031D01*
X146585142Y-33854447D01*
X146576519Y-33866073D01*
X146566798Y-33876798D01*
X146556073Y-33886519D01*
X146544447Y-33895142D01*
X146532031Y-33902583D01*
X146518946Y-33908772D01*
X146505317Y-33913649D01*
X146491276Y-33917166D01*
X146476958Y-33919290D01*
X146462500Y-33920000D01*
X146167500Y-33920000D01*
X146153042Y-33919290D01*
X146138724Y-33917166D01*
X146124683Y-33913649D01*
X146111054Y-33908772D01*
X146097969Y-33902583D01*
X146085553Y-33895142D01*
X146073927Y-33886519D01*
X146063202Y-33876798D01*
X146053481Y-33866073D01*
X146044858Y-33854447D01*
X146037417Y-33842031D01*
X146031228Y-33828946D01*
X146026351Y-33815317D01*
X146022834Y-33801276D01*
X146020710Y-33786958D01*
X146020000Y-33772500D01*
X146020000Y-33427500D01*
X146020710Y-33413042D01*
X146022834Y-33398724D01*
X146026351Y-33384683D01*
X146031228Y-33371054D01*
X146037417Y-33357969D01*
X146044858Y-33345553D01*
X146053481Y-33333927D01*
X146063202Y-33323202D01*
X146073927Y-33313481D01*
X146085553Y-33304858D01*
X146097969Y-33297417D01*
X146111054Y-33291228D01*
X146124683Y-33286351D01*
X146138724Y-33282834D01*
X146153042Y-33280710D01*
X146167500Y-33280000D01*
X146462500Y-33280000D01*
X146476958Y-33280710D01*
G37*
D16*
X86825000Y-95300000D03*
X86825000Y-95950000D03*
X86825000Y-96600000D03*
X86825000Y-97250000D03*
X86825000Y-97900000D03*
D17*
X84150000Y-95600000D03*
X84150000Y-97600000D03*
D18*
X84150000Y-93700000D03*
X84150000Y-99500000D03*
D13*
G36*
X140077691Y-55551053D02*
G01*
X140098926Y-55554203D01*
X140119750Y-55559419D01*
X140139962Y-55566651D01*
X140159368Y-55575830D01*
X140177781Y-55586866D01*
X140195024Y-55599654D01*
X140210930Y-55614070D01*
X140225346Y-55629976D01*
X140238134Y-55647219D01*
X140249170Y-55665632D01*
X140258349Y-55685038D01*
X140265581Y-55705250D01*
X140270797Y-55726074D01*
X140273947Y-55747309D01*
X140275000Y-55768750D01*
X140275000Y-56206250D01*
X140273947Y-56227691D01*
X140270797Y-56248926D01*
X140265581Y-56269750D01*
X140258349Y-56289962D01*
X140249170Y-56309368D01*
X140238134Y-56327781D01*
X140225346Y-56345024D01*
X140210930Y-56360930D01*
X140195024Y-56375346D01*
X140177781Y-56388134D01*
X140159368Y-56399170D01*
X140139962Y-56408349D01*
X140119750Y-56415581D01*
X140098926Y-56420797D01*
X140077691Y-56423947D01*
X140056250Y-56425000D01*
X139543750Y-56425000D01*
X139522309Y-56423947D01*
X139501074Y-56420797D01*
X139480250Y-56415581D01*
X139460038Y-56408349D01*
X139440632Y-56399170D01*
X139422219Y-56388134D01*
X139404976Y-56375346D01*
X139389070Y-56360930D01*
X139374654Y-56345024D01*
X139361866Y-56327781D01*
X139350830Y-56309368D01*
X139341651Y-56289962D01*
X139334419Y-56269750D01*
X139329203Y-56248926D01*
X139326053Y-56227691D01*
X139325000Y-56206250D01*
X139325000Y-55768750D01*
X139326053Y-55747309D01*
X139329203Y-55726074D01*
X139334419Y-55705250D01*
X139341651Y-55685038D01*
X139350830Y-55665632D01*
X139361866Y-55647219D01*
X139374654Y-55629976D01*
X139389070Y-55614070D01*
X139404976Y-55599654D01*
X139422219Y-55586866D01*
X139440632Y-55575830D01*
X139460038Y-55566651D01*
X139480250Y-55559419D01*
X139501074Y-55554203D01*
X139522309Y-55551053D01*
X139543750Y-55550000D01*
X140056250Y-55550000D01*
X140077691Y-55551053D01*
G37*
G36*
X140077691Y-53976053D02*
G01*
X140098926Y-53979203D01*
X140119750Y-53984419D01*
X140139962Y-53991651D01*
X140159368Y-54000830D01*
X140177781Y-54011866D01*
X140195024Y-54024654D01*
X140210930Y-54039070D01*
X140225346Y-54054976D01*
X140238134Y-54072219D01*
X140249170Y-54090632D01*
X140258349Y-54110038D01*
X140265581Y-54130250D01*
X140270797Y-54151074D01*
X140273947Y-54172309D01*
X140275000Y-54193750D01*
X140275000Y-54631250D01*
X140273947Y-54652691D01*
X140270797Y-54673926D01*
X140265581Y-54694750D01*
X140258349Y-54714962D01*
X140249170Y-54734368D01*
X140238134Y-54752781D01*
X140225346Y-54770024D01*
X140210930Y-54785930D01*
X140195024Y-54800346D01*
X140177781Y-54813134D01*
X140159368Y-54824170D01*
X140139962Y-54833349D01*
X140119750Y-54840581D01*
X140098926Y-54845797D01*
X140077691Y-54848947D01*
X140056250Y-54850000D01*
X139543750Y-54850000D01*
X139522309Y-54848947D01*
X139501074Y-54845797D01*
X139480250Y-54840581D01*
X139460038Y-54833349D01*
X139440632Y-54824170D01*
X139422219Y-54813134D01*
X139404976Y-54800346D01*
X139389070Y-54785930D01*
X139374654Y-54770024D01*
X139361866Y-54752781D01*
X139350830Y-54734368D01*
X139341651Y-54714962D01*
X139334419Y-54694750D01*
X139329203Y-54673926D01*
X139326053Y-54652691D01*
X139325000Y-54631250D01*
X139325000Y-54193750D01*
X139326053Y-54172309D01*
X139329203Y-54151074D01*
X139334419Y-54130250D01*
X139341651Y-54110038D01*
X139350830Y-54090632D01*
X139361866Y-54072219D01*
X139374654Y-54054976D01*
X139389070Y-54039070D01*
X139404976Y-54024654D01*
X139422219Y-54011866D01*
X139440632Y-54000830D01*
X139460038Y-53991651D01*
X139480250Y-53984419D01*
X139501074Y-53979203D01*
X139522309Y-53976053D01*
X139543750Y-53975000D01*
X140056250Y-53975000D01*
X140077691Y-53976053D01*
G37*
G36*
X141677691Y-55551053D02*
G01*
X141698926Y-55554203D01*
X141719750Y-55559419D01*
X141739962Y-55566651D01*
X141759368Y-55575830D01*
X141777781Y-55586866D01*
X141795024Y-55599654D01*
X141810930Y-55614070D01*
X141825346Y-55629976D01*
X141838134Y-55647219D01*
X141849170Y-55665632D01*
X141858349Y-55685038D01*
X141865581Y-55705250D01*
X141870797Y-55726074D01*
X141873947Y-55747309D01*
X141875000Y-55768750D01*
X141875000Y-56206250D01*
X141873947Y-56227691D01*
X141870797Y-56248926D01*
X141865581Y-56269750D01*
X141858349Y-56289962D01*
X141849170Y-56309368D01*
X141838134Y-56327781D01*
X141825346Y-56345024D01*
X141810930Y-56360930D01*
X141795024Y-56375346D01*
X141777781Y-56388134D01*
X141759368Y-56399170D01*
X141739962Y-56408349D01*
X141719750Y-56415581D01*
X141698926Y-56420797D01*
X141677691Y-56423947D01*
X141656250Y-56425000D01*
X141143750Y-56425000D01*
X141122309Y-56423947D01*
X141101074Y-56420797D01*
X141080250Y-56415581D01*
X141060038Y-56408349D01*
X141040632Y-56399170D01*
X141022219Y-56388134D01*
X141004976Y-56375346D01*
X140989070Y-56360930D01*
X140974654Y-56345024D01*
X140961866Y-56327781D01*
X140950830Y-56309368D01*
X140941651Y-56289962D01*
X140934419Y-56269750D01*
X140929203Y-56248926D01*
X140926053Y-56227691D01*
X140925000Y-56206250D01*
X140925000Y-55768750D01*
X140926053Y-55747309D01*
X140929203Y-55726074D01*
X140934419Y-55705250D01*
X140941651Y-55685038D01*
X140950830Y-55665632D01*
X140961866Y-55647219D01*
X140974654Y-55629976D01*
X140989070Y-55614070D01*
X141004976Y-55599654D01*
X141022219Y-55586866D01*
X141040632Y-55575830D01*
X141060038Y-55566651D01*
X141080250Y-55559419D01*
X141101074Y-55554203D01*
X141122309Y-55551053D01*
X141143750Y-55550000D01*
X141656250Y-55550000D01*
X141677691Y-55551053D01*
G37*
G36*
X141677691Y-53976053D02*
G01*
X141698926Y-53979203D01*
X141719750Y-53984419D01*
X141739962Y-53991651D01*
X141759368Y-54000830D01*
X141777781Y-54011866D01*
X141795024Y-54024654D01*
X141810930Y-54039070D01*
X141825346Y-54054976D01*
X141838134Y-54072219D01*
X141849170Y-54090632D01*
X141858349Y-54110038D01*
X141865581Y-54130250D01*
X141870797Y-54151074D01*
X141873947Y-54172309D01*
X141875000Y-54193750D01*
X141875000Y-54631250D01*
X141873947Y-54652691D01*
X141870797Y-54673926D01*
X141865581Y-54694750D01*
X141858349Y-54714962D01*
X141849170Y-54734368D01*
X141838134Y-54752781D01*
X141825346Y-54770024D01*
X141810930Y-54785930D01*
X141795024Y-54800346D01*
X141777781Y-54813134D01*
X141759368Y-54824170D01*
X141739962Y-54833349D01*
X141719750Y-54840581D01*
X141698926Y-54845797D01*
X141677691Y-54848947D01*
X141656250Y-54850000D01*
X141143750Y-54850000D01*
X141122309Y-54848947D01*
X141101074Y-54845797D01*
X141080250Y-54840581D01*
X141060038Y-54833349D01*
X141040632Y-54824170D01*
X141022219Y-54813134D01*
X141004976Y-54800346D01*
X140989070Y-54785930D01*
X140974654Y-54770024D01*
X140961866Y-54752781D01*
X140950830Y-54734368D01*
X140941651Y-54714962D01*
X140934419Y-54694750D01*
X140929203Y-54673926D01*
X140926053Y-54652691D01*
X140925000Y-54631250D01*
X140925000Y-54193750D01*
X140926053Y-54172309D01*
X140929203Y-54151074D01*
X140934419Y-54130250D01*
X140941651Y-54110038D01*
X140950830Y-54090632D01*
X140961866Y-54072219D01*
X140974654Y-54054976D01*
X140989070Y-54039070D01*
X141004976Y-54024654D01*
X141022219Y-54011866D01*
X141040632Y-54000830D01*
X141060038Y-53991651D01*
X141080250Y-53984419D01*
X141101074Y-53979203D01*
X141122309Y-53976053D01*
X141143750Y-53975000D01*
X141656250Y-53975000D01*
X141677691Y-53976053D01*
G37*
G36*
X144077691Y-55551053D02*
G01*
X144098926Y-55554203D01*
X144119750Y-55559419D01*
X144139962Y-55566651D01*
X144159368Y-55575830D01*
X144177781Y-55586866D01*
X144195024Y-55599654D01*
X144210930Y-55614070D01*
X144225346Y-55629976D01*
X144238134Y-55647219D01*
X144249170Y-55665632D01*
X144258349Y-55685038D01*
X144265581Y-55705250D01*
X144270797Y-55726074D01*
X144273947Y-55747309D01*
X144275000Y-55768750D01*
X144275000Y-56206250D01*
X144273947Y-56227691D01*
X144270797Y-56248926D01*
X144265581Y-56269750D01*
X144258349Y-56289962D01*
X144249170Y-56309368D01*
X144238134Y-56327781D01*
X144225346Y-56345024D01*
X144210930Y-56360930D01*
X144195024Y-56375346D01*
X144177781Y-56388134D01*
X144159368Y-56399170D01*
X144139962Y-56408349D01*
X144119750Y-56415581D01*
X144098926Y-56420797D01*
X144077691Y-56423947D01*
X144056250Y-56425000D01*
X143543750Y-56425000D01*
X143522309Y-56423947D01*
X143501074Y-56420797D01*
X143480250Y-56415581D01*
X143460038Y-56408349D01*
X143440632Y-56399170D01*
X143422219Y-56388134D01*
X143404976Y-56375346D01*
X143389070Y-56360930D01*
X143374654Y-56345024D01*
X143361866Y-56327781D01*
X143350830Y-56309368D01*
X143341651Y-56289962D01*
X143334419Y-56269750D01*
X143329203Y-56248926D01*
X143326053Y-56227691D01*
X143325000Y-56206250D01*
X143325000Y-55768750D01*
X143326053Y-55747309D01*
X143329203Y-55726074D01*
X143334419Y-55705250D01*
X143341651Y-55685038D01*
X143350830Y-55665632D01*
X143361866Y-55647219D01*
X143374654Y-55629976D01*
X143389070Y-55614070D01*
X143404976Y-55599654D01*
X143422219Y-55586866D01*
X143440632Y-55575830D01*
X143460038Y-55566651D01*
X143480250Y-55559419D01*
X143501074Y-55554203D01*
X143522309Y-55551053D01*
X143543750Y-55550000D01*
X144056250Y-55550000D01*
X144077691Y-55551053D01*
G37*
G36*
X144077691Y-53976053D02*
G01*
X144098926Y-53979203D01*
X144119750Y-53984419D01*
X144139962Y-53991651D01*
X144159368Y-54000830D01*
X144177781Y-54011866D01*
X144195024Y-54024654D01*
X144210930Y-54039070D01*
X144225346Y-54054976D01*
X144238134Y-54072219D01*
X144249170Y-54090632D01*
X144258349Y-54110038D01*
X144265581Y-54130250D01*
X144270797Y-54151074D01*
X144273947Y-54172309D01*
X144275000Y-54193750D01*
X144275000Y-54631250D01*
X144273947Y-54652691D01*
X144270797Y-54673926D01*
X144265581Y-54694750D01*
X144258349Y-54714962D01*
X144249170Y-54734368D01*
X144238134Y-54752781D01*
X144225346Y-54770024D01*
X144210930Y-54785930D01*
X144195024Y-54800346D01*
X144177781Y-54813134D01*
X144159368Y-54824170D01*
X144139962Y-54833349D01*
X144119750Y-54840581D01*
X144098926Y-54845797D01*
X144077691Y-54848947D01*
X144056250Y-54850000D01*
X143543750Y-54850000D01*
X143522309Y-54848947D01*
X143501074Y-54845797D01*
X143480250Y-54840581D01*
X143460038Y-54833349D01*
X143440632Y-54824170D01*
X143422219Y-54813134D01*
X143404976Y-54800346D01*
X143389070Y-54785930D01*
X143374654Y-54770024D01*
X143361866Y-54752781D01*
X143350830Y-54734368D01*
X143341651Y-54714962D01*
X143334419Y-54694750D01*
X143329203Y-54673926D01*
X143326053Y-54652691D01*
X143325000Y-54631250D01*
X143325000Y-54193750D01*
X143326053Y-54172309D01*
X143329203Y-54151074D01*
X143334419Y-54130250D01*
X143341651Y-54110038D01*
X143350830Y-54090632D01*
X143361866Y-54072219D01*
X143374654Y-54054976D01*
X143389070Y-54039070D01*
X143404976Y-54024654D01*
X143422219Y-54011866D01*
X143440632Y-54000830D01*
X143460038Y-53991651D01*
X143480250Y-53984419D01*
X143501074Y-53979203D01*
X143522309Y-53976053D01*
X143543750Y-53975000D01*
X144056250Y-53975000D01*
X144077691Y-53976053D01*
G37*
G36*
X145677691Y-55551053D02*
G01*
X145698926Y-55554203D01*
X145719750Y-55559419D01*
X145739962Y-55566651D01*
X145759368Y-55575830D01*
X145777781Y-55586866D01*
X145795024Y-55599654D01*
X145810930Y-55614070D01*
X145825346Y-55629976D01*
X145838134Y-55647219D01*
X145849170Y-55665632D01*
X145858349Y-55685038D01*
X145865581Y-55705250D01*
X145870797Y-55726074D01*
X145873947Y-55747309D01*
X145875000Y-55768750D01*
X145875000Y-56206250D01*
X145873947Y-56227691D01*
X145870797Y-56248926D01*
X145865581Y-56269750D01*
X145858349Y-56289962D01*
X145849170Y-56309368D01*
X145838134Y-56327781D01*
X145825346Y-56345024D01*
X145810930Y-56360930D01*
X145795024Y-56375346D01*
X145777781Y-56388134D01*
X145759368Y-56399170D01*
X145739962Y-56408349D01*
X145719750Y-56415581D01*
X145698926Y-56420797D01*
X145677691Y-56423947D01*
X145656250Y-56425000D01*
X145143750Y-56425000D01*
X145122309Y-56423947D01*
X145101074Y-56420797D01*
X145080250Y-56415581D01*
X145060038Y-56408349D01*
X145040632Y-56399170D01*
X145022219Y-56388134D01*
X145004976Y-56375346D01*
X144989070Y-56360930D01*
X144974654Y-56345024D01*
X144961866Y-56327781D01*
X144950830Y-56309368D01*
X144941651Y-56289962D01*
X144934419Y-56269750D01*
X144929203Y-56248926D01*
X144926053Y-56227691D01*
X144925000Y-56206250D01*
X144925000Y-55768750D01*
X144926053Y-55747309D01*
X144929203Y-55726074D01*
X144934419Y-55705250D01*
X144941651Y-55685038D01*
X144950830Y-55665632D01*
X144961866Y-55647219D01*
X144974654Y-55629976D01*
X144989070Y-55614070D01*
X145004976Y-55599654D01*
X145022219Y-55586866D01*
X145040632Y-55575830D01*
X145060038Y-55566651D01*
X145080250Y-55559419D01*
X145101074Y-55554203D01*
X145122309Y-55551053D01*
X145143750Y-55550000D01*
X145656250Y-55550000D01*
X145677691Y-55551053D01*
G37*
G36*
X145677691Y-53976053D02*
G01*
X145698926Y-53979203D01*
X145719750Y-53984419D01*
X145739962Y-53991651D01*
X145759368Y-54000830D01*
X145777781Y-54011866D01*
X145795024Y-54024654D01*
X145810930Y-54039070D01*
X145825346Y-54054976D01*
X145838134Y-54072219D01*
X145849170Y-54090632D01*
X145858349Y-54110038D01*
X145865581Y-54130250D01*
X145870797Y-54151074D01*
X145873947Y-54172309D01*
X145875000Y-54193750D01*
X145875000Y-54631250D01*
X145873947Y-54652691D01*
X145870797Y-54673926D01*
X145865581Y-54694750D01*
X145858349Y-54714962D01*
X145849170Y-54734368D01*
X145838134Y-54752781D01*
X145825346Y-54770024D01*
X145810930Y-54785930D01*
X145795024Y-54800346D01*
X145777781Y-54813134D01*
X145759368Y-54824170D01*
X145739962Y-54833349D01*
X145719750Y-54840581D01*
X145698926Y-54845797D01*
X145677691Y-54848947D01*
X145656250Y-54850000D01*
X145143750Y-54850000D01*
X145122309Y-54848947D01*
X145101074Y-54845797D01*
X145080250Y-54840581D01*
X145060038Y-54833349D01*
X145040632Y-54824170D01*
X145022219Y-54813134D01*
X145004976Y-54800346D01*
X144989070Y-54785930D01*
X144974654Y-54770024D01*
X144961866Y-54752781D01*
X144950830Y-54734368D01*
X144941651Y-54714962D01*
X144934419Y-54694750D01*
X144929203Y-54673926D01*
X144926053Y-54652691D01*
X144925000Y-54631250D01*
X144925000Y-54193750D01*
X144926053Y-54172309D01*
X144929203Y-54151074D01*
X144934419Y-54130250D01*
X144941651Y-54110038D01*
X144950830Y-54090632D01*
X144961866Y-54072219D01*
X144974654Y-54054976D01*
X144989070Y-54039070D01*
X145004976Y-54024654D01*
X145022219Y-54011866D01*
X145040632Y-54000830D01*
X145060038Y-53991651D01*
X145080250Y-53984419D01*
X145101074Y-53979203D01*
X145122309Y-53976053D01*
X145143750Y-53975000D01*
X145656250Y-53975000D01*
X145677691Y-53976053D01*
G37*
G36*
X128676958Y-64680710D02*
G01*
X128691276Y-64682834D01*
X128705317Y-64686351D01*
X128718946Y-64691228D01*
X128732031Y-64697417D01*
X128744447Y-64704858D01*
X128756073Y-64713481D01*
X128766798Y-64723202D01*
X128776519Y-64733927D01*
X128785142Y-64745553D01*
X128792583Y-64757969D01*
X128798772Y-64771054D01*
X128803649Y-64784683D01*
X128807166Y-64798724D01*
X128809290Y-64813042D01*
X128810000Y-64827500D01*
X128810000Y-65172500D01*
X128809290Y-65186958D01*
X128807166Y-65201276D01*
X128803649Y-65215317D01*
X128798772Y-65228946D01*
X128792583Y-65242031D01*
X128785142Y-65254447D01*
X128776519Y-65266073D01*
X128766798Y-65276798D01*
X128756073Y-65286519D01*
X128744447Y-65295142D01*
X128732031Y-65302583D01*
X128718946Y-65308772D01*
X128705317Y-65313649D01*
X128691276Y-65317166D01*
X128676958Y-65319290D01*
X128662500Y-65320000D01*
X128367500Y-65320000D01*
X128353042Y-65319290D01*
X128338724Y-65317166D01*
X128324683Y-65313649D01*
X128311054Y-65308772D01*
X128297969Y-65302583D01*
X128285553Y-65295142D01*
X128273927Y-65286519D01*
X128263202Y-65276798D01*
X128253481Y-65266073D01*
X128244858Y-65254447D01*
X128237417Y-65242031D01*
X128231228Y-65228946D01*
X128226351Y-65215317D01*
X128222834Y-65201276D01*
X128220710Y-65186958D01*
X128220000Y-65172500D01*
X128220000Y-64827500D01*
X128220710Y-64813042D01*
X128222834Y-64798724D01*
X128226351Y-64784683D01*
X128231228Y-64771054D01*
X128237417Y-64757969D01*
X128244858Y-64745553D01*
X128253481Y-64733927D01*
X128263202Y-64723202D01*
X128273927Y-64713481D01*
X128285553Y-64704858D01*
X128297969Y-64697417D01*
X128311054Y-64691228D01*
X128324683Y-64686351D01*
X128338724Y-64682834D01*
X128353042Y-64680710D01*
X128367500Y-64680000D01*
X128662500Y-64680000D01*
X128676958Y-64680710D01*
G37*
G36*
X129646958Y-64680710D02*
G01*
X129661276Y-64682834D01*
X129675317Y-64686351D01*
X129688946Y-64691228D01*
X129702031Y-64697417D01*
X129714447Y-64704858D01*
X129726073Y-64713481D01*
X129736798Y-64723202D01*
X129746519Y-64733927D01*
X129755142Y-64745553D01*
X129762583Y-64757969D01*
X129768772Y-64771054D01*
X129773649Y-64784683D01*
X129777166Y-64798724D01*
X129779290Y-64813042D01*
X129780000Y-64827500D01*
X129780000Y-65172500D01*
X129779290Y-65186958D01*
X129777166Y-65201276D01*
X129773649Y-65215317D01*
X129768772Y-65228946D01*
X129762583Y-65242031D01*
X129755142Y-65254447D01*
X129746519Y-65266073D01*
X129736798Y-65276798D01*
X129726073Y-65286519D01*
X129714447Y-65295142D01*
X129702031Y-65302583D01*
X129688946Y-65308772D01*
X129675317Y-65313649D01*
X129661276Y-65317166D01*
X129646958Y-65319290D01*
X129632500Y-65320000D01*
X129337500Y-65320000D01*
X129323042Y-65319290D01*
X129308724Y-65317166D01*
X129294683Y-65313649D01*
X129281054Y-65308772D01*
X129267969Y-65302583D01*
X129255553Y-65295142D01*
X129243927Y-65286519D01*
X129233202Y-65276798D01*
X129223481Y-65266073D01*
X129214858Y-65254447D01*
X129207417Y-65242031D01*
X129201228Y-65228946D01*
X129196351Y-65215317D01*
X129192834Y-65201276D01*
X129190710Y-65186958D01*
X129190000Y-65172500D01*
X129190000Y-64827500D01*
X129190710Y-64813042D01*
X129192834Y-64798724D01*
X129196351Y-64784683D01*
X129201228Y-64771054D01*
X129207417Y-64757969D01*
X129214858Y-64745553D01*
X129223481Y-64733927D01*
X129233202Y-64723202D01*
X129243927Y-64713481D01*
X129255553Y-64704858D01*
X129267969Y-64697417D01*
X129281054Y-64691228D01*
X129294683Y-64686351D01*
X129308724Y-64682834D01*
X129323042Y-64680710D01*
X129337500Y-64680000D01*
X129632500Y-64680000D01*
X129646958Y-64680710D01*
G37*
G36*
X93926958Y-107480710D02*
G01*
X93941276Y-107482834D01*
X93955317Y-107486351D01*
X93968946Y-107491228D01*
X93982031Y-107497417D01*
X93994447Y-107504858D01*
X94006073Y-107513481D01*
X94016798Y-107523202D01*
X94026519Y-107533927D01*
X94035142Y-107545553D01*
X94042583Y-107557969D01*
X94048772Y-107571054D01*
X94053649Y-107584683D01*
X94057166Y-107598724D01*
X94059290Y-107613042D01*
X94060000Y-107627500D01*
X94060000Y-107972500D01*
X94059290Y-107986958D01*
X94057166Y-108001276D01*
X94053649Y-108015317D01*
X94048772Y-108028946D01*
X94042583Y-108042031D01*
X94035142Y-108054447D01*
X94026519Y-108066073D01*
X94016798Y-108076798D01*
X94006073Y-108086519D01*
X93994447Y-108095142D01*
X93982031Y-108102583D01*
X93968946Y-108108772D01*
X93955317Y-108113649D01*
X93941276Y-108117166D01*
X93926958Y-108119290D01*
X93912500Y-108120000D01*
X93617500Y-108120000D01*
X93603042Y-108119290D01*
X93588724Y-108117166D01*
X93574683Y-108113649D01*
X93561054Y-108108772D01*
X93547969Y-108102583D01*
X93535553Y-108095142D01*
X93523927Y-108086519D01*
X93513202Y-108076798D01*
X93503481Y-108066073D01*
X93494858Y-108054447D01*
X93487417Y-108042031D01*
X93481228Y-108028946D01*
X93476351Y-108015317D01*
X93472834Y-108001276D01*
X93470710Y-107986958D01*
X93470000Y-107972500D01*
X93470000Y-107627500D01*
X93470710Y-107613042D01*
X93472834Y-107598724D01*
X93476351Y-107584683D01*
X93481228Y-107571054D01*
X93487417Y-107557969D01*
X93494858Y-107545553D01*
X93503481Y-107533927D01*
X93513202Y-107523202D01*
X93523927Y-107513481D01*
X93535553Y-107504858D01*
X93547969Y-107497417D01*
X93561054Y-107491228D01*
X93574683Y-107486351D01*
X93588724Y-107482834D01*
X93603042Y-107480710D01*
X93617500Y-107480000D01*
X93912500Y-107480000D01*
X93926958Y-107480710D01*
G37*
G36*
X94896958Y-107480710D02*
G01*
X94911276Y-107482834D01*
X94925317Y-107486351D01*
X94938946Y-107491228D01*
X94952031Y-107497417D01*
X94964447Y-107504858D01*
X94976073Y-107513481D01*
X94986798Y-107523202D01*
X94996519Y-107533927D01*
X95005142Y-107545553D01*
X95012583Y-107557969D01*
X95018772Y-107571054D01*
X95023649Y-107584683D01*
X95027166Y-107598724D01*
X95029290Y-107613042D01*
X95030000Y-107627500D01*
X95030000Y-107972500D01*
X95029290Y-107986958D01*
X95027166Y-108001276D01*
X95023649Y-108015317D01*
X95018772Y-108028946D01*
X95012583Y-108042031D01*
X95005142Y-108054447D01*
X94996519Y-108066073D01*
X94986798Y-108076798D01*
X94976073Y-108086519D01*
X94964447Y-108095142D01*
X94952031Y-108102583D01*
X94938946Y-108108772D01*
X94925317Y-108113649D01*
X94911276Y-108117166D01*
X94896958Y-108119290D01*
X94882500Y-108120000D01*
X94587500Y-108120000D01*
X94573042Y-108119290D01*
X94558724Y-108117166D01*
X94544683Y-108113649D01*
X94531054Y-108108772D01*
X94517969Y-108102583D01*
X94505553Y-108095142D01*
X94493927Y-108086519D01*
X94483202Y-108076798D01*
X94473481Y-108066073D01*
X94464858Y-108054447D01*
X94457417Y-108042031D01*
X94451228Y-108028946D01*
X94446351Y-108015317D01*
X94442834Y-108001276D01*
X94440710Y-107986958D01*
X94440000Y-107972500D01*
X94440000Y-107627500D01*
X94440710Y-107613042D01*
X94442834Y-107598724D01*
X94446351Y-107584683D01*
X94451228Y-107571054D01*
X94457417Y-107557969D01*
X94464858Y-107545553D01*
X94473481Y-107533927D01*
X94483202Y-107523202D01*
X94493927Y-107513481D01*
X94505553Y-107504858D01*
X94517969Y-107497417D01*
X94531054Y-107491228D01*
X94544683Y-107486351D01*
X94558724Y-107482834D01*
X94573042Y-107480710D01*
X94587500Y-107480000D01*
X94882500Y-107480000D01*
X94896958Y-107480710D01*
G37*
G36*
X91127691Y-105576053D02*
G01*
X91148926Y-105579203D01*
X91169750Y-105584419D01*
X91189962Y-105591651D01*
X91209368Y-105600830D01*
X91227781Y-105611866D01*
X91245024Y-105624654D01*
X91260930Y-105639070D01*
X91275346Y-105654976D01*
X91288134Y-105672219D01*
X91299170Y-105690632D01*
X91308349Y-105710038D01*
X91315581Y-105730250D01*
X91320797Y-105751074D01*
X91323947Y-105772309D01*
X91325000Y-105793750D01*
X91325000Y-106231250D01*
X91323947Y-106252691D01*
X91320797Y-106273926D01*
X91315581Y-106294750D01*
X91308349Y-106314962D01*
X91299170Y-106334368D01*
X91288134Y-106352781D01*
X91275346Y-106370024D01*
X91260930Y-106385930D01*
X91245024Y-106400346D01*
X91227781Y-106413134D01*
X91209368Y-106424170D01*
X91189962Y-106433349D01*
X91169750Y-106440581D01*
X91148926Y-106445797D01*
X91127691Y-106448947D01*
X91106250Y-106450000D01*
X90593750Y-106450000D01*
X90572309Y-106448947D01*
X90551074Y-106445797D01*
X90530250Y-106440581D01*
X90510038Y-106433349D01*
X90490632Y-106424170D01*
X90472219Y-106413134D01*
X90454976Y-106400346D01*
X90439070Y-106385930D01*
X90424654Y-106370024D01*
X90411866Y-106352781D01*
X90400830Y-106334368D01*
X90391651Y-106314962D01*
X90384419Y-106294750D01*
X90379203Y-106273926D01*
X90376053Y-106252691D01*
X90375000Y-106231250D01*
X90375000Y-105793750D01*
X90376053Y-105772309D01*
X90379203Y-105751074D01*
X90384419Y-105730250D01*
X90391651Y-105710038D01*
X90400830Y-105690632D01*
X90411866Y-105672219D01*
X90424654Y-105654976D01*
X90439070Y-105639070D01*
X90454976Y-105624654D01*
X90472219Y-105611866D01*
X90490632Y-105600830D01*
X90510038Y-105591651D01*
X90530250Y-105584419D01*
X90551074Y-105579203D01*
X90572309Y-105576053D01*
X90593750Y-105575000D01*
X91106250Y-105575000D01*
X91127691Y-105576053D01*
G37*
G36*
X91127691Y-107151053D02*
G01*
X91148926Y-107154203D01*
X91169750Y-107159419D01*
X91189962Y-107166651D01*
X91209368Y-107175830D01*
X91227781Y-107186866D01*
X91245024Y-107199654D01*
X91260930Y-107214070D01*
X91275346Y-107229976D01*
X91288134Y-107247219D01*
X91299170Y-107265632D01*
X91308349Y-107285038D01*
X91315581Y-107305250D01*
X91320797Y-107326074D01*
X91323947Y-107347309D01*
X91325000Y-107368750D01*
X91325000Y-107806250D01*
X91323947Y-107827691D01*
X91320797Y-107848926D01*
X91315581Y-107869750D01*
X91308349Y-107889962D01*
X91299170Y-107909368D01*
X91288134Y-107927781D01*
X91275346Y-107945024D01*
X91260930Y-107960930D01*
X91245024Y-107975346D01*
X91227781Y-107988134D01*
X91209368Y-107999170D01*
X91189962Y-108008349D01*
X91169750Y-108015581D01*
X91148926Y-108020797D01*
X91127691Y-108023947D01*
X91106250Y-108025000D01*
X90593750Y-108025000D01*
X90572309Y-108023947D01*
X90551074Y-108020797D01*
X90530250Y-108015581D01*
X90510038Y-108008349D01*
X90490632Y-107999170D01*
X90472219Y-107988134D01*
X90454976Y-107975346D01*
X90439070Y-107960930D01*
X90424654Y-107945024D01*
X90411866Y-107927781D01*
X90400830Y-107909368D01*
X90391651Y-107889962D01*
X90384419Y-107869750D01*
X90379203Y-107848926D01*
X90376053Y-107827691D01*
X90375000Y-107806250D01*
X90375000Y-107368750D01*
X90376053Y-107347309D01*
X90379203Y-107326074D01*
X90384419Y-107305250D01*
X90391651Y-107285038D01*
X90400830Y-107265632D01*
X90411866Y-107247219D01*
X90424654Y-107229976D01*
X90439070Y-107214070D01*
X90454976Y-107199654D01*
X90472219Y-107186866D01*
X90490632Y-107175830D01*
X90510038Y-107166651D01*
X90530250Y-107159419D01*
X90551074Y-107154203D01*
X90572309Y-107151053D01*
X90593750Y-107150000D01*
X91106250Y-107150000D01*
X91127691Y-107151053D01*
G37*
G36*
X93896958Y-113880710D02*
G01*
X93911276Y-113882834D01*
X93925317Y-113886351D01*
X93938946Y-113891228D01*
X93952031Y-113897417D01*
X93964447Y-113904858D01*
X93976073Y-113913481D01*
X93986798Y-113923202D01*
X93996519Y-113933927D01*
X94005142Y-113945553D01*
X94012583Y-113957969D01*
X94018772Y-113971054D01*
X94023649Y-113984683D01*
X94027166Y-113998724D01*
X94029290Y-114013042D01*
X94030000Y-114027500D01*
X94030000Y-114372500D01*
X94029290Y-114386958D01*
X94027166Y-114401276D01*
X94023649Y-114415317D01*
X94018772Y-114428946D01*
X94012583Y-114442031D01*
X94005142Y-114454447D01*
X93996519Y-114466073D01*
X93986798Y-114476798D01*
X93976073Y-114486519D01*
X93964447Y-114495142D01*
X93952031Y-114502583D01*
X93938946Y-114508772D01*
X93925317Y-114513649D01*
X93911276Y-114517166D01*
X93896958Y-114519290D01*
X93882500Y-114520000D01*
X93587500Y-114520000D01*
X93573042Y-114519290D01*
X93558724Y-114517166D01*
X93544683Y-114513649D01*
X93531054Y-114508772D01*
X93517969Y-114502583D01*
X93505553Y-114495142D01*
X93493927Y-114486519D01*
X93483202Y-114476798D01*
X93473481Y-114466073D01*
X93464858Y-114454447D01*
X93457417Y-114442031D01*
X93451228Y-114428946D01*
X93446351Y-114415317D01*
X93442834Y-114401276D01*
X93440710Y-114386958D01*
X93440000Y-114372500D01*
X93440000Y-114027500D01*
X93440710Y-114013042D01*
X93442834Y-113998724D01*
X93446351Y-113984683D01*
X93451228Y-113971054D01*
X93457417Y-113957969D01*
X93464858Y-113945553D01*
X93473481Y-113933927D01*
X93483202Y-113923202D01*
X93493927Y-113913481D01*
X93505553Y-113904858D01*
X93517969Y-113897417D01*
X93531054Y-113891228D01*
X93544683Y-113886351D01*
X93558724Y-113882834D01*
X93573042Y-113880710D01*
X93587500Y-113880000D01*
X93882500Y-113880000D01*
X93896958Y-113880710D01*
G37*
G36*
X92926958Y-113880710D02*
G01*
X92941276Y-113882834D01*
X92955317Y-113886351D01*
X92968946Y-113891228D01*
X92982031Y-113897417D01*
X92994447Y-113904858D01*
X93006073Y-113913481D01*
X93016798Y-113923202D01*
X93026519Y-113933927D01*
X93035142Y-113945553D01*
X93042583Y-113957969D01*
X93048772Y-113971054D01*
X93053649Y-113984683D01*
X93057166Y-113998724D01*
X93059290Y-114013042D01*
X93060000Y-114027500D01*
X93060000Y-114372500D01*
X93059290Y-114386958D01*
X93057166Y-114401276D01*
X93053649Y-114415317D01*
X93048772Y-114428946D01*
X93042583Y-114442031D01*
X93035142Y-114454447D01*
X93026519Y-114466073D01*
X93016798Y-114476798D01*
X93006073Y-114486519D01*
X92994447Y-114495142D01*
X92982031Y-114502583D01*
X92968946Y-114508772D01*
X92955317Y-114513649D01*
X92941276Y-114517166D01*
X92926958Y-114519290D01*
X92912500Y-114520000D01*
X92617500Y-114520000D01*
X92603042Y-114519290D01*
X92588724Y-114517166D01*
X92574683Y-114513649D01*
X92561054Y-114508772D01*
X92547969Y-114502583D01*
X92535553Y-114495142D01*
X92523927Y-114486519D01*
X92513202Y-114476798D01*
X92503481Y-114466073D01*
X92494858Y-114454447D01*
X92487417Y-114442031D01*
X92481228Y-114428946D01*
X92476351Y-114415317D01*
X92472834Y-114401276D01*
X92470710Y-114386958D01*
X92470000Y-114372500D01*
X92470000Y-114027500D01*
X92470710Y-114013042D01*
X92472834Y-113998724D01*
X92476351Y-113984683D01*
X92481228Y-113971054D01*
X92487417Y-113957969D01*
X92494858Y-113945553D01*
X92503481Y-113933927D01*
X92513202Y-113923202D01*
X92523927Y-113913481D01*
X92535553Y-113904858D01*
X92547969Y-113897417D01*
X92561054Y-113891228D01*
X92574683Y-113886351D01*
X92588724Y-113882834D01*
X92603042Y-113880710D01*
X92617500Y-113880000D01*
X92912500Y-113880000D01*
X92926958Y-113880710D01*
G37*
G36*
X137277691Y-33576053D02*
G01*
X137298926Y-33579203D01*
X137319750Y-33584419D01*
X137339962Y-33591651D01*
X137359368Y-33600830D01*
X137377781Y-33611866D01*
X137395024Y-33624654D01*
X137410930Y-33639070D01*
X137425346Y-33654976D01*
X137438134Y-33672219D01*
X137449170Y-33690632D01*
X137458349Y-33710038D01*
X137465581Y-33730250D01*
X137470797Y-33751074D01*
X137473947Y-33772309D01*
X137475000Y-33793750D01*
X137475000Y-34231250D01*
X137473947Y-34252691D01*
X137470797Y-34273926D01*
X137465581Y-34294750D01*
X137458349Y-34314962D01*
X137449170Y-34334368D01*
X137438134Y-34352781D01*
X137425346Y-34370024D01*
X137410930Y-34385930D01*
X137395024Y-34400346D01*
X137377781Y-34413134D01*
X137359368Y-34424170D01*
X137339962Y-34433349D01*
X137319750Y-34440581D01*
X137298926Y-34445797D01*
X137277691Y-34448947D01*
X137256250Y-34450000D01*
X136743750Y-34450000D01*
X136722309Y-34448947D01*
X136701074Y-34445797D01*
X136680250Y-34440581D01*
X136660038Y-34433349D01*
X136640632Y-34424170D01*
X136622219Y-34413134D01*
X136604976Y-34400346D01*
X136589070Y-34385930D01*
X136574654Y-34370024D01*
X136561866Y-34352781D01*
X136550830Y-34334368D01*
X136541651Y-34314962D01*
X136534419Y-34294750D01*
X136529203Y-34273926D01*
X136526053Y-34252691D01*
X136525000Y-34231250D01*
X136525000Y-33793750D01*
X136526053Y-33772309D01*
X136529203Y-33751074D01*
X136534419Y-33730250D01*
X136541651Y-33710038D01*
X136550830Y-33690632D01*
X136561866Y-33672219D01*
X136574654Y-33654976D01*
X136589070Y-33639070D01*
X136604976Y-33624654D01*
X136622219Y-33611866D01*
X136640632Y-33600830D01*
X136660038Y-33591651D01*
X136680250Y-33584419D01*
X136701074Y-33579203D01*
X136722309Y-33576053D01*
X136743750Y-33575000D01*
X137256250Y-33575000D01*
X137277691Y-33576053D01*
G37*
G36*
X137277691Y-35151053D02*
G01*
X137298926Y-35154203D01*
X137319750Y-35159419D01*
X137339962Y-35166651D01*
X137359368Y-35175830D01*
X137377781Y-35186866D01*
X137395024Y-35199654D01*
X137410930Y-35214070D01*
X137425346Y-35229976D01*
X137438134Y-35247219D01*
X137449170Y-35265632D01*
X137458349Y-35285038D01*
X137465581Y-35305250D01*
X137470797Y-35326074D01*
X137473947Y-35347309D01*
X137475000Y-35368750D01*
X137475000Y-35806250D01*
X137473947Y-35827691D01*
X137470797Y-35848926D01*
X137465581Y-35869750D01*
X137458349Y-35889962D01*
X137449170Y-35909368D01*
X137438134Y-35927781D01*
X137425346Y-35945024D01*
X137410930Y-35960930D01*
X137395024Y-35975346D01*
X137377781Y-35988134D01*
X137359368Y-35999170D01*
X137339962Y-36008349D01*
X137319750Y-36015581D01*
X137298926Y-36020797D01*
X137277691Y-36023947D01*
X137256250Y-36025000D01*
X136743750Y-36025000D01*
X136722309Y-36023947D01*
X136701074Y-36020797D01*
X136680250Y-36015581D01*
X136660038Y-36008349D01*
X136640632Y-35999170D01*
X136622219Y-35988134D01*
X136604976Y-35975346D01*
X136589070Y-35960930D01*
X136574654Y-35945024D01*
X136561866Y-35927781D01*
X136550830Y-35909368D01*
X136541651Y-35889962D01*
X136534419Y-35869750D01*
X136529203Y-35848926D01*
X136526053Y-35827691D01*
X136525000Y-35806250D01*
X136525000Y-35368750D01*
X136526053Y-35347309D01*
X136529203Y-35326074D01*
X136534419Y-35305250D01*
X136541651Y-35285038D01*
X136550830Y-35265632D01*
X136561866Y-35247219D01*
X136574654Y-35229976D01*
X136589070Y-35214070D01*
X136604976Y-35199654D01*
X136622219Y-35186866D01*
X136640632Y-35175830D01*
X136660038Y-35166651D01*
X136680250Y-35159419D01*
X136701074Y-35154203D01*
X136722309Y-35151053D01*
X136743750Y-35150000D01*
X137256250Y-35150000D01*
X137277691Y-35151053D01*
G37*
G36*
X139077691Y-33576053D02*
G01*
X139098926Y-33579203D01*
X139119750Y-33584419D01*
X139139962Y-33591651D01*
X139159368Y-33600830D01*
X139177781Y-33611866D01*
X139195024Y-33624654D01*
X139210930Y-33639070D01*
X139225346Y-33654976D01*
X139238134Y-33672219D01*
X139249170Y-33690632D01*
X139258349Y-33710038D01*
X139265581Y-33730250D01*
X139270797Y-33751074D01*
X139273947Y-33772309D01*
X139275000Y-33793750D01*
X139275000Y-34231250D01*
X139273947Y-34252691D01*
X139270797Y-34273926D01*
X139265581Y-34294750D01*
X139258349Y-34314962D01*
X139249170Y-34334368D01*
X139238134Y-34352781D01*
X139225346Y-34370024D01*
X139210930Y-34385930D01*
X139195024Y-34400346D01*
X139177781Y-34413134D01*
X139159368Y-34424170D01*
X139139962Y-34433349D01*
X139119750Y-34440581D01*
X139098926Y-34445797D01*
X139077691Y-34448947D01*
X139056250Y-34450000D01*
X138543750Y-34450000D01*
X138522309Y-34448947D01*
X138501074Y-34445797D01*
X138480250Y-34440581D01*
X138460038Y-34433349D01*
X138440632Y-34424170D01*
X138422219Y-34413134D01*
X138404976Y-34400346D01*
X138389070Y-34385930D01*
X138374654Y-34370024D01*
X138361866Y-34352781D01*
X138350830Y-34334368D01*
X138341651Y-34314962D01*
X138334419Y-34294750D01*
X138329203Y-34273926D01*
X138326053Y-34252691D01*
X138325000Y-34231250D01*
X138325000Y-33793750D01*
X138326053Y-33772309D01*
X138329203Y-33751074D01*
X138334419Y-33730250D01*
X138341651Y-33710038D01*
X138350830Y-33690632D01*
X138361866Y-33672219D01*
X138374654Y-33654976D01*
X138389070Y-33639070D01*
X138404976Y-33624654D01*
X138422219Y-33611866D01*
X138440632Y-33600830D01*
X138460038Y-33591651D01*
X138480250Y-33584419D01*
X138501074Y-33579203D01*
X138522309Y-33576053D01*
X138543750Y-33575000D01*
X139056250Y-33575000D01*
X139077691Y-33576053D01*
G37*
G36*
X139077691Y-35151053D02*
G01*
X139098926Y-35154203D01*
X139119750Y-35159419D01*
X139139962Y-35166651D01*
X139159368Y-35175830D01*
X139177781Y-35186866D01*
X139195024Y-35199654D01*
X139210930Y-35214070D01*
X139225346Y-35229976D01*
X139238134Y-35247219D01*
X139249170Y-35265632D01*
X139258349Y-35285038D01*
X139265581Y-35305250D01*
X139270797Y-35326074D01*
X139273947Y-35347309D01*
X139275000Y-35368750D01*
X139275000Y-35806250D01*
X139273947Y-35827691D01*
X139270797Y-35848926D01*
X139265581Y-35869750D01*
X139258349Y-35889962D01*
X139249170Y-35909368D01*
X139238134Y-35927781D01*
X139225346Y-35945024D01*
X139210930Y-35960930D01*
X139195024Y-35975346D01*
X139177781Y-35988134D01*
X139159368Y-35999170D01*
X139139962Y-36008349D01*
X139119750Y-36015581D01*
X139098926Y-36020797D01*
X139077691Y-36023947D01*
X139056250Y-36025000D01*
X138543750Y-36025000D01*
X138522309Y-36023947D01*
X138501074Y-36020797D01*
X138480250Y-36015581D01*
X138460038Y-36008349D01*
X138440632Y-35999170D01*
X138422219Y-35988134D01*
X138404976Y-35975346D01*
X138389070Y-35960930D01*
X138374654Y-35945024D01*
X138361866Y-35927781D01*
X138350830Y-35909368D01*
X138341651Y-35889962D01*
X138334419Y-35869750D01*
X138329203Y-35848926D01*
X138326053Y-35827691D01*
X138325000Y-35806250D01*
X138325000Y-35368750D01*
X138326053Y-35347309D01*
X138329203Y-35326074D01*
X138334419Y-35305250D01*
X138341651Y-35285038D01*
X138350830Y-35265632D01*
X138361866Y-35247219D01*
X138374654Y-35229976D01*
X138389070Y-35214070D01*
X138404976Y-35199654D01*
X138422219Y-35186866D01*
X138440632Y-35175830D01*
X138460038Y-35166651D01*
X138480250Y-35159419D01*
X138501074Y-35154203D01*
X138522309Y-35151053D01*
X138543750Y-35150000D01*
X139056250Y-35150000D01*
X139077691Y-35151053D01*
G37*
G36*
X129580142Y-66026174D02*
G01*
X129603803Y-66029684D01*
X129627007Y-66035496D01*
X129649529Y-66043554D01*
X129671153Y-66053782D01*
X129691670Y-66066079D01*
X129710883Y-66080329D01*
X129728607Y-66096393D01*
X129744671Y-66114117D01*
X129758921Y-66133330D01*
X129771218Y-66153847D01*
X129781446Y-66175471D01*
X129789504Y-66197993D01*
X129795316Y-66221197D01*
X129798826Y-66244858D01*
X129800000Y-66268750D01*
X129800000Y-66756250D01*
X129798826Y-66780142D01*
X129795316Y-66803803D01*
X129789504Y-66827007D01*
X129781446Y-66849529D01*
X129771218Y-66871153D01*
X129758921Y-66891670D01*
X129744671Y-66910883D01*
X129728607Y-66928607D01*
X129710883Y-66944671D01*
X129691670Y-66958921D01*
X129671153Y-66971218D01*
X129649529Y-66981446D01*
X129627007Y-66989504D01*
X129603803Y-66995316D01*
X129580142Y-66998826D01*
X129556250Y-67000000D01*
X128643750Y-67000000D01*
X128619858Y-66998826D01*
X128596197Y-66995316D01*
X128572993Y-66989504D01*
X128550471Y-66981446D01*
X128528847Y-66971218D01*
X128508330Y-66958921D01*
X128489117Y-66944671D01*
X128471393Y-66928607D01*
X128455329Y-66910883D01*
X128441079Y-66891670D01*
X128428782Y-66871153D01*
X128418554Y-66849529D01*
X128410496Y-66827007D01*
X128404684Y-66803803D01*
X128401174Y-66780142D01*
X128400000Y-66756250D01*
X128400000Y-66268750D01*
X128401174Y-66244858D01*
X128404684Y-66221197D01*
X128410496Y-66197993D01*
X128418554Y-66175471D01*
X128428782Y-66153847D01*
X128441079Y-66133330D01*
X128455329Y-66114117D01*
X128471393Y-66096393D01*
X128489117Y-66080329D01*
X128508330Y-66066079D01*
X128528847Y-66053782D01*
X128550471Y-66043554D01*
X128572993Y-66035496D01*
X128596197Y-66029684D01*
X128619858Y-66026174D01*
X128643750Y-66025000D01*
X129556250Y-66025000D01*
X129580142Y-66026174D01*
G37*
G36*
X129580142Y-67901174D02*
G01*
X129603803Y-67904684D01*
X129627007Y-67910496D01*
X129649529Y-67918554D01*
X129671153Y-67928782D01*
X129691670Y-67941079D01*
X129710883Y-67955329D01*
X129728607Y-67971393D01*
X129744671Y-67989117D01*
X129758921Y-68008330D01*
X129771218Y-68028847D01*
X129781446Y-68050471D01*
X129789504Y-68072993D01*
X129795316Y-68096197D01*
X129798826Y-68119858D01*
X129800000Y-68143750D01*
X129800000Y-68631250D01*
X129798826Y-68655142D01*
X129795316Y-68678803D01*
X129789504Y-68702007D01*
X129781446Y-68724529D01*
X129771218Y-68746153D01*
X129758921Y-68766670D01*
X129744671Y-68785883D01*
X129728607Y-68803607D01*
X129710883Y-68819671D01*
X129691670Y-68833921D01*
X129671153Y-68846218D01*
X129649529Y-68856446D01*
X129627007Y-68864504D01*
X129603803Y-68870316D01*
X129580142Y-68873826D01*
X129556250Y-68875000D01*
X128643750Y-68875000D01*
X128619858Y-68873826D01*
X128596197Y-68870316D01*
X128572993Y-68864504D01*
X128550471Y-68856446D01*
X128528847Y-68846218D01*
X128508330Y-68833921D01*
X128489117Y-68819671D01*
X128471393Y-68803607D01*
X128455329Y-68785883D01*
X128441079Y-68766670D01*
X128428782Y-68746153D01*
X128418554Y-68724529D01*
X128410496Y-68702007D01*
X128404684Y-68678803D01*
X128401174Y-68655142D01*
X128400000Y-68631250D01*
X128400000Y-68143750D01*
X128401174Y-68119858D01*
X128404684Y-68096197D01*
X128410496Y-68072993D01*
X128418554Y-68050471D01*
X128428782Y-68028847D01*
X128441079Y-68008330D01*
X128455329Y-67989117D01*
X128471393Y-67971393D01*
X128489117Y-67955329D01*
X128508330Y-67941079D01*
X128528847Y-67928782D01*
X128550471Y-67918554D01*
X128572993Y-67910496D01*
X128596197Y-67904684D01*
X128619858Y-67901174D01*
X128643750Y-67900000D01*
X129556250Y-67900000D01*
X129580142Y-67901174D01*
G37*
G36*
X127686958Y-67420710D02*
G01*
X127701276Y-67422834D01*
X127715317Y-67426351D01*
X127728946Y-67431228D01*
X127742031Y-67437417D01*
X127754447Y-67444858D01*
X127766073Y-67453481D01*
X127776798Y-67463202D01*
X127786519Y-67473927D01*
X127795142Y-67485553D01*
X127802583Y-67497969D01*
X127808772Y-67511054D01*
X127813649Y-67524683D01*
X127817166Y-67538724D01*
X127819290Y-67553042D01*
X127820000Y-67567500D01*
X127820000Y-67862500D01*
X127819290Y-67876958D01*
X127817166Y-67891276D01*
X127813649Y-67905317D01*
X127808772Y-67918946D01*
X127802583Y-67932031D01*
X127795142Y-67944447D01*
X127786519Y-67956073D01*
X127776798Y-67966798D01*
X127766073Y-67976519D01*
X127754447Y-67985142D01*
X127742031Y-67992583D01*
X127728946Y-67998772D01*
X127715317Y-68003649D01*
X127701276Y-68007166D01*
X127686958Y-68009290D01*
X127672500Y-68010000D01*
X127327500Y-68010000D01*
X127313042Y-68009290D01*
X127298724Y-68007166D01*
X127284683Y-68003649D01*
X127271054Y-67998772D01*
X127257969Y-67992583D01*
X127245553Y-67985142D01*
X127233927Y-67976519D01*
X127223202Y-67966798D01*
X127213481Y-67956073D01*
X127204858Y-67944447D01*
X127197417Y-67932031D01*
X127191228Y-67918946D01*
X127186351Y-67905317D01*
X127182834Y-67891276D01*
X127180710Y-67876958D01*
X127180000Y-67862500D01*
X127180000Y-67567500D01*
X127180710Y-67553042D01*
X127182834Y-67538724D01*
X127186351Y-67524683D01*
X127191228Y-67511054D01*
X127197417Y-67497969D01*
X127204858Y-67485553D01*
X127213481Y-67473927D01*
X127223202Y-67463202D01*
X127233927Y-67453481D01*
X127245553Y-67444858D01*
X127257969Y-67437417D01*
X127271054Y-67431228D01*
X127284683Y-67426351D01*
X127298724Y-67422834D01*
X127313042Y-67420710D01*
X127327500Y-67420000D01*
X127672500Y-67420000D01*
X127686958Y-67420710D01*
G37*
G36*
X127686958Y-68390710D02*
G01*
X127701276Y-68392834D01*
X127715317Y-68396351D01*
X127728946Y-68401228D01*
X127742031Y-68407417D01*
X127754447Y-68414858D01*
X127766073Y-68423481D01*
X127776798Y-68433202D01*
X127786519Y-68443927D01*
X127795142Y-68455553D01*
X127802583Y-68467969D01*
X127808772Y-68481054D01*
X127813649Y-68494683D01*
X127817166Y-68508724D01*
X127819290Y-68523042D01*
X127820000Y-68537500D01*
X127820000Y-68832500D01*
X127819290Y-68846958D01*
X127817166Y-68861276D01*
X127813649Y-68875317D01*
X127808772Y-68888946D01*
X127802583Y-68902031D01*
X127795142Y-68914447D01*
X127786519Y-68926073D01*
X127776798Y-68936798D01*
X127766073Y-68946519D01*
X127754447Y-68955142D01*
X127742031Y-68962583D01*
X127728946Y-68968772D01*
X127715317Y-68973649D01*
X127701276Y-68977166D01*
X127686958Y-68979290D01*
X127672500Y-68980000D01*
X127327500Y-68980000D01*
X127313042Y-68979290D01*
X127298724Y-68977166D01*
X127284683Y-68973649D01*
X127271054Y-68968772D01*
X127257969Y-68962583D01*
X127245553Y-68955142D01*
X127233927Y-68946519D01*
X127223202Y-68936798D01*
X127213481Y-68926073D01*
X127204858Y-68914447D01*
X127197417Y-68902031D01*
X127191228Y-68888946D01*
X127186351Y-68875317D01*
X127182834Y-68861276D01*
X127180710Y-68846958D01*
X127180000Y-68832500D01*
X127180000Y-68537500D01*
X127180710Y-68523042D01*
X127182834Y-68508724D01*
X127186351Y-68494683D01*
X127191228Y-68481054D01*
X127197417Y-68467969D01*
X127204858Y-68455553D01*
X127213481Y-68443927D01*
X127223202Y-68433202D01*
X127233927Y-68423481D01*
X127245553Y-68414858D01*
X127257969Y-68407417D01*
X127271054Y-68401228D01*
X127284683Y-68396351D01*
X127298724Y-68392834D01*
X127313042Y-68390710D01*
X127327500Y-68390000D01*
X127672500Y-68390000D01*
X127686958Y-68390710D01*
G37*
G36*
X97424504Y-116301204D02*
G01*
X97448773Y-116304804D01*
X97472571Y-116310765D01*
X97495671Y-116319030D01*
X97517849Y-116329520D01*
X97538893Y-116342133D01*
X97558598Y-116356747D01*
X97576777Y-116373223D01*
X97593253Y-116391402D01*
X97607867Y-116411107D01*
X97620480Y-116432151D01*
X97630970Y-116454329D01*
X97639235Y-116477429D01*
X97645196Y-116501227D01*
X97648796Y-116525496D01*
X97650000Y-116550000D01*
X97650000Y-118650000D01*
X97648796Y-118674504D01*
X97645196Y-118698773D01*
X97639235Y-118722571D01*
X97630970Y-118745671D01*
X97620480Y-118767849D01*
X97607867Y-118788893D01*
X97593253Y-118808598D01*
X97576777Y-118826777D01*
X97558598Y-118843253D01*
X97538893Y-118857867D01*
X97517849Y-118870480D01*
X97495671Y-118880970D01*
X97472571Y-118889235D01*
X97448773Y-118895196D01*
X97424504Y-118898796D01*
X97400000Y-118900000D01*
X96300000Y-118900000D01*
X96275496Y-118898796D01*
X96251227Y-118895196D01*
X96227429Y-118889235D01*
X96204329Y-118880970D01*
X96182151Y-118870480D01*
X96161107Y-118857867D01*
X96141402Y-118843253D01*
X96123223Y-118826777D01*
X96106747Y-118808598D01*
X96092133Y-118788893D01*
X96079520Y-118767849D01*
X96069030Y-118745671D01*
X96060765Y-118722571D01*
X96054804Y-118698773D01*
X96051204Y-118674504D01*
X96050000Y-118650000D01*
X96050000Y-116550000D01*
X96051204Y-116525496D01*
X96054804Y-116501227D01*
X96060765Y-116477429D01*
X96069030Y-116454329D01*
X96079520Y-116432151D01*
X96092133Y-116411107D01*
X96106747Y-116391402D01*
X96123223Y-116373223D01*
X96141402Y-116356747D01*
X96161107Y-116342133D01*
X96182151Y-116329520D01*
X96204329Y-116319030D01*
X96227429Y-116310765D01*
X96251227Y-116304804D01*
X96275496Y-116301204D01*
X96300000Y-116300000D01*
X97400000Y-116300000D01*
X97424504Y-116301204D01*
G37*
G36*
X97424504Y-112701204D02*
G01*
X97448773Y-112704804D01*
X97472571Y-112710765D01*
X97495671Y-112719030D01*
X97517849Y-112729520D01*
X97538893Y-112742133D01*
X97558598Y-112756747D01*
X97576777Y-112773223D01*
X97593253Y-112791402D01*
X97607867Y-112811107D01*
X97620480Y-112832151D01*
X97630970Y-112854329D01*
X97639235Y-112877429D01*
X97645196Y-112901227D01*
X97648796Y-112925496D01*
X97650000Y-112950000D01*
X97650000Y-115050000D01*
X97648796Y-115074504D01*
X97645196Y-115098773D01*
X97639235Y-115122571D01*
X97630970Y-115145671D01*
X97620480Y-115167849D01*
X97607867Y-115188893D01*
X97593253Y-115208598D01*
X97576777Y-115226777D01*
X97558598Y-115243253D01*
X97538893Y-115257867D01*
X97517849Y-115270480D01*
X97495671Y-115280970D01*
X97472571Y-115289235D01*
X97448773Y-115295196D01*
X97424504Y-115298796D01*
X97400000Y-115300000D01*
X96300000Y-115300000D01*
X96275496Y-115298796D01*
X96251227Y-115295196D01*
X96227429Y-115289235D01*
X96204329Y-115280970D01*
X96182151Y-115270480D01*
X96161107Y-115257867D01*
X96141402Y-115243253D01*
X96123223Y-115226777D01*
X96106747Y-115208598D01*
X96092133Y-115188893D01*
X96079520Y-115167849D01*
X96069030Y-115145671D01*
X96060765Y-115122571D01*
X96054804Y-115098773D01*
X96051204Y-115074504D01*
X96050000Y-115050000D01*
X96050000Y-112950000D01*
X96051204Y-112925496D01*
X96054804Y-112901227D01*
X96060765Y-112877429D01*
X96069030Y-112854329D01*
X96079520Y-112832151D01*
X96092133Y-112811107D01*
X96106747Y-112791402D01*
X96123223Y-112773223D01*
X96141402Y-112756747D01*
X96161107Y-112742133D01*
X96182151Y-112729520D01*
X96204329Y-112719030D01*
X96227429Y-112710765D01*
X96251227Y-112704804D01*
X96275496Y-112701204D01*
X96300000Y-112700000D01*
X97400000Y-112700000D01*
X97424504Y-112701204D01*
G37*
G36*
X93841958Y-112680710D02*
G01*
X93856276Y-112682834D01*
X93870317Y-112686351D01*
X93883946Y-112691228D01*
X93897031Y-112697417D01*
X93909447Y-112704858D01*
X93921073Y-112713481D01*
X93931798Y-112723202D01*
X93941519Y-112733927D01*
X93950142Y-112745553D01*
X93957583Y-112757969D01*
X93963772Y-112771054D01*
X93968649Y-112784683D01*
X93972166Y-112798724D01*
X93974290Y-112813042D01*
X93975000Y-112827500D01*
X93975000Y-113172500D01*
X93974290Y-113186958D01*
X93972166Y-113201276D01*
X93968649Y-113215317D01*
X93963772Y-113228946D01*
X93957583Y-113242031D01*
X93950142Y-113254447D01*
X93941519Y-113266073D01*
X93931798Y-113276798D01*
X93921073Y-113286519D01*
X93909447Y-113295142D01*
X93897031Y-113302583D01*
X93883946Y-113308772D01*
X93870317Y-113313649D01*
X93856276Y-113317166D01*
X93841958Y-113319290D01*
X93827500Y-113320000D01*
X93532500Y-113320000D01*
X93518042Y-113319290D01*
X93503724Y-113317166D01*
X93489683Y-113313649D01*
X93476054Y-113308772D01*
X93462969Y-113302583D01*
X93450553Y-113295142D01*
X93438927Y-113286519D01*
X93428202Y-113276798D01*
X93418481Y-113266073D01*
X93409858Y-113254447D01*
X93402417Y-113242031D01*
X93396228Y-113228946D01*
X93391351Y-113215317D01*
X93387834Y-113201276D01*
X93385710Y-113186958D01*
X93385000Y-113172500D01*
X93385000Y-112827500D01*
X93385710Y-112813042D01*
X93387834Y-112798724D01*
X93391351Y-112784683D01*
X93396228Y-112771054D01*
X93402417Y-112757969D01*
X93409858Y-112745553D01*
X93418481Y-112733927D01*
X93428202Y-112723202D01*
X93438927Y-112713481D01*
X93450553Y-112704858D01*
X93462969Y-112697417D01*
X93476054Y-112691228D01*
X93489683Y-112686351D01*
X93503724Y-112682834D01*
X93518042Y-112680710D01*
X93532500Y-112680000D01*
X93827500Y-112680000D01*
X93841958Y-112680710D01*
G37*
G36*
X94811958Y-112680710D02*
G01*
X94826276Y-112682834D01*
X94840317Y-112686351D01*
X94853946Y-112691228D01*
X94867031Y-112697417D01*
X94879447Y-112704858D01*
X94891073Y-112713481D01*
X94901798Y-112723202D01*
X94911519Y-112733927D01*
X94920142Y-112745553D01*
X94927583Y-112757969D01*
X94933772Y-112771054D01*
X94938649Y-112784683D01*
X94942166Y-112798724D01*
X94944290Y-112813042D01*
X94945000Y-112827500D01*
X94945000Y-113172500D01*
X94944290Y-113186958D01*
X94942166Y-113201276D01*
X94938649Y-113215317D01*
X94933772Y-113228946D01*
X94927583Y-113242031D01*
X94920142Y-113254447D01*
X94911519Y-113266073D01*
X94901798Y-113276798D01*
X94891073Y-113286519D01*
X94879447Y-113295142D01*
X94867031Y-113302583D01*
X94853946Y-113308772D01*
X94840317Y-113313649D01*
X94826276Y-113317166D01*
X94811958Y-113319290D01*
X94797500Y-113320000D01*
X94502500Y-113320000D01*
X94488042Y-113319290D01*
X94473724Y-113317166D01*
X94459683Y-113313649D01*
X94446054Y-113308772D01*
X94432969Y-113302583D01*
X94420553Y-113295142D01*
X94408927Y-113286519D01*
X94398202Y-113276798D01*
X94388481Y-113266073D01*
X94379858Y-113254447D01*
X94372417Y-113242031D01*
X94366228Y-113228946D01*
X94361351Y-113215317D01*
X94357834Y-113201276D01*
X94355710Y-113186958D01*
X94355000Y-113172500D01*
X94355000Y-112827500D01*
X94355710Y-112813042D01*
X94357834Y-112798724D01*
X94361351Y-112784683D01*
X94366228Y-112771054D01*
X94372417Y-112757969D01*
X94379858Y-112745553D01*
X94388481Y-112733927D01*
X94398202Y-112723202D01*
X94408927Y-112713481D01*
X94420553Y-112704858D01*
X94432969Y-112697417D01*
X94446054Y-112691228D01*
X94459683Y-112686351D01*
X94473724Y-112682834D01*
X94488042Y-112680710D01*
X94502500Y-112680000D01*
X94797500Y-112680000D01*
X94811958Y-112680710D01*
G37*
D19*
X96850000Y-111450000D03*
X96850000Y-108150000D03*
D13*
G36*
X147936958Y-63540710D02*
G01*
X147951276Y-63542834D01*
X147965317Y-63546351D01*
X147978946Y-63551228D01*
X147992031Y-63557417D01*
X148004447Y-63564858D01*
X148016073Y-63573481D01*
X148026798Y-63583202D01*
X148036519Y-63593927D01*
X148045142Y-63605553D01*
X148052583Y-63617969D01*
X148058772Y-63631054D01*
X148063649Y-63644683D01*
X148067166Y-63658724D01*
X148069290Y-63673042D01*
X148070000Y-63687500D01*
X148070000Y-63982500D01*
X148069290Y-63996958D01*
X148067166Y-64011276D01*
X148063649Y-64025317D01*
X148058772Y-64038946D01*
X148052583Y-64052031D01*
X148045142Y-64064447D01*
X148036519Y-64076073D01*
X148026798Y-64086798D01*
X148016073Y-64096519D01*
X148004447Y-64105142D01*
X147992031Y-64112583D01*
X147978946Y-64118772D01*
X147965317Y-64123649D01*
X147951276Y-64127166D01*
X147936958Y-64129290D01*
X147922500Y-64130000D01*
X147577500Y-64130000D01*
X147563042Y-64129290D01*
X147548724Y-64127166D01*
X147534683Y-64123649D01*
X147521054Y-64118772D01*
X147507969Y-64112583D01*
X147495553Y-64105142D01*
X147483927Y-64096519D01*
X147473202Y-64086798D01*
X147463481Y-64076073D01*
X147454858Y-64064447D01*
X147447417Y-64052031D01*
X147441228Y-64038946D01*
X147436351Y-64025317D01*
X147432834Y-64011276D01*
X147430710Y-63996958D01*
X147430000Y-63982500D01*
X147430000Y-63687500D01*
X147430710Y-63673042D01*
X147432834Y-63658724D01*
X147436351Y-63644683D01*
X147441228Y-63631054D01*
X147447417Y-63617969D01*
X147454858Y-63605553D01*
X147463481Y-63593927D01*
X147473202Y-63583202D01*
X147483927Y-63573481D01*
X147495553Y-63564858D01*
X147507969Y-63557417D01*
X147521054Y-63551228D01*
X147534683Y-63546351D01*
X147548724Y-63542834D01*
X147563042Y-63540710D01*
X147577500Y-63540000D01*
X147922500Y-63540000D01*
X147936958Y-63540710D01*
G37*
G36*
X147936958Y-62570710D02*
G01*
X147951276Y-62572834D01*
X147965317Y-62576351D01*
X147978946Y-62581228D01*
X147992031Y-62587417D01*
X148004447Y-62594858D01*
X148016073Y-62603481D01*
X148026798Y-62613202D01*
X148036519Y-62623927D01*
X148045142Y-62635553D01*
X148052583Y-62647969D01*
X148058772Y-62661054D01*
X148063649Y-62674683D01*
X148067166Y-62688724D01*
X148069290Y-62703042D01*
X148070000Y-62717500D01*
X148070000Y-63012500D01*
X148069290Y-63026958D01*
X148067166Y-63041276D01*
X148063649Y-63055317D01*
X148058772Y-63068946D01*
X148052583Y-63082031D01*
X148045142Y-63094447D01*
X148036519Y-63106073D01*
X148026798Y-63116798D01*
X148016073Y-63126519D01*
X148004447Y-63135142D01*
X147992031Y-63142583D01*
X147978946Y-63148772D01*
X147965317Y-63153649D01*
X147951276Y-63157166D01*
X147936958Y-63159290D01*
X147922500Y-63160000D01*
X147577500Y-63160000D01*
X147563042Y-63159290D01*
X147548724Y-63157166D01*
X147534683Y-63153649D01*
X147521054Y-63148772D01*
X147507969Y-63142583D01*
X147495553Y-63135142D01*
X147483927Y-63126519D01*
X147473202Y-63116798D01*
X147463481Y-63106073D01*
X147454858Y-63094447D01*
X147447417Y-63082031D01*
X147441228Y-63068946D01*
X147436351Y-63055317D01*
X147432834Y-63041276D01*
X147430710Y-63026958D01*
X147430000Y-63012500D01*
X147430000Y-62717500D01*
X147430710Y-62703042D01*
X147432834Y-62688724D01*
X147436351Y-62674683D01*
X147441228Y-62661054D01*
X147447417Y-62647969D01*
X147454858Y-62635553D01*
X147463481Y-62623927D01*
X147473202Y-62613202D01*
X147483927Y-62603481D01*
X147495553Y-62594858D01*
X147507969Y-62587417D01*
X147521054Y-62581228D01*
X147534683Y-62576351D01*
X147548724Y-62572834D01*
X147563042Y-62570710D01*
X147577500Y-62570000D01*
X147922500Y-62570000D01*
X147936958Y-62570710D01*
G37*
G36*
X136791958Y-36680710D02*
G01*
X136806276Y-36682834D01*
X136820317Y-36686351D01*
X136833946Y-36691228D01*
X136847031Y-36697417D01*
X136859447Y-36704858D01*
X136871073Y-36713481D01*
X136881798Y-36723202D01*
X136891519Y-36733927D01*
X136900142Y-36745553D01*
X136907583Y-36757969D01*
X136913772Y-36771054D01*
X136918649Y-36784683D01*
X136922166Y-36798724D01*
X136924290Y-36813042D01*
X136925000Y-36827500D01*
X136925000Y-37172500D01*
X136924290Y-37186958D01*
X136922166Y-37201276D01*
X136918649Y-37215317D01*
X136913772Y-37228946D01*
X136907583Y-37242031D01*
X136900142Y-37254447D01*
X136891519Y-37266073D01*
X136881798Y-37276798D01*
X136871073Y-37286519D01*
X136859447Y-37295142D01*
X136847031Y-37302583D01*
X136833946Y-37308772D01*
X136820317Y-37313649D01*
X136806276Y-37317166D01*
X136791958Y-37319290D01*
X136777500Y-37320000D01*
X136482500Y-37320000D01*
X136468042Y-37319290D01*
X136453724Y-37317166D01*
X136439683Y-37313649D01*
X136426054Y-37308772D01*
X136412969Y-37302583D01*
X136400553Y-37295142D01*
X136388927Y-37286519D01*
X136378202Y-37276798D01*
X136368481Y-37266073D01*
X136359858Y-37254447D01*
X136352417Y-37242031D01*
X136346228Y-37228946D01*
X136341351Y-37215317D01*
X136337834Y-37201276D01*
X136335710Y-37186958D01*
X136335000Y-37172500D01*
X136335000Y-36827500D01*
X136335710Y-36813042D01*
X136337834Y-36798724D01*
X136341351Y-36784683D01*
X136346228Y-36771054D01*
X136352417Y-36757969D01*
X136359858Y-36745553D01*
X136368481Y-36733927D01*
X136378202Y-36723202D01*
X136388927Y-36713481D01*
X136400553Y-36704858D01*
X136412969Y-36697417D01*
X136426054Y-36691228D01*
X136439683Y-36686351D01*
X136453724Y-36682834D01*
X136468042Y-36680710D01*
X136482500Y-36680000D01*
X136777500Y-36680000D01*
X136791958Y-36680710D01*
G37*
G36*
X137761958Y-36680710D02*
G01*
X137776276Y-36682834D01*
X137790317Y-36686351D01*
X137803946Y-36691228D01*
X137817031Y-36697417D01*
X137829447Y-36704858D01*
X137841073Y-36713481D01*
X137851798Y-36723202D01*
X137861519Y-36733927D01*
X137870142Y-36745553D01*
X137877583Y-36757969D01*
X137883772Y-36771054D01*
X137888649Y-36784683D01*
X137892166Y-36798724D01*
X137894290Y-36813042D01*
X137895000Y-36827500D01*
X137895000Y-37172500D01*
X137894290Y-37186958D01*
X137892166Y-37201276D01*
X137888649Y-37215317D01*
X137883772Y-37228946D01*
X137877583Y-37242031D01*
X137870142Y-37254447D01*
X137861519Y-37266073D01*
X137851798Y-37276798D01*
X137841073Y-37286519D01*
X137829447Y-37295142D01*
X137817031Y-37302583D01*
X137803946Y-37308772D01*
X137790317Y-37313649D01*
X137776276Y-37317166D01*
X137761958Y-37319290D01*
X137747500Y-37320000D01*
X137452500Y-37320000D01*
X137438042Y-37319290D01*
X137423724Y-37317166D01*
X137409683Y-37313649D01*
X137396054Y-37308772D01*
X137382969Y-37302583D01*
X137370553Y-37295142D01*
X137358927Y-37286519D01*
X137348202Y-37276798D01*
X137338481Y-37266073D01*
X137329858Y-37254447D01*
X137322417Y-37242031D01*
X137316228Y-37228946D01*
X137311351Y-37215317D01*
X137307834Y-37201276D01*
X137305710Y-37186958D01*
X137305000Y-37172500D01*
X137305000Y-36827500D01*
X137305710Y-36813042D01*
X137307834Y-36798724D01*
X137311351Y-36784683D01*
X137316228Y-36771054D01*
X137322417Y-36757969D01*
X137329858Y-36745553D01*
X137338481Y-36733927D01*
X137348202Y-36723202D01*
X137358927Y-36713481D01*
X137370553Y-36704858D01*
X137382969Y-36697417D01*
X137396054Y-36691228D01*
X137409683Y-36686351D01*
X137423724Y-36682834D01*
X137438042Y-36680710D01*
X137452500Y-36680000D01*
X137747500Y-36680000D01*
X137761958Y-36680710D01*
G37*
G36*
X92727691Y-107151053D02*
G01*
X92748926Y-107154203D01*
X92769750Y-107159419D01*
X92789962Y-107166651D01*
X92809368Y-107175830D01*
X92827781Y-107186866D01*
X92845024Y-107199654D01*
X92860930Y-107214070D01*
X92875346Y-107229976D01*
X92888134Y-107247219D01*
X92899170Y-107265632D01*
X92908349Y-107285038D01*
X92915581Y-107305250D01*
X92920797Y-107326074D01*
X92923947Y-107347309D01*
X92925000Y-107368750D01*
X92925000Y-107806250D01*
X92923947Y-107827691D01*
X92920797Y-107848926D01*
X92915581Y-107869750D01*
X92908349Y-107889962D01*
X92899170Y-107909368D01*
X92888134Y-107927781D01*
X92875346Y-107945024D01*
X92860930Y-107960930D01*
X92845024Y-107975346D01*
X92827781Y-107988134D01*
X92809368Y-107999170D01*
X92789962Y-108008349D01*
X92769750Y-108015581D01*
X92748926Y-108020797D01*
X92727691Y-108023947D01*
X92706250Y-108025000D01*
X92193750Y-108025000D01*
X92172309Y-108023947D01*
X92151074Y-108020797D01*
X92130250Y-108015581D01*
X92110038Y-108008349D01*
X92090632Y-107999170D01*
X92072219Y-107988134D01*
X92054976Y-107975346D01*
X92039070Y-107960930D01*
X92024654Y-107945024D01*
X92011866Y-107927781D01*
X92000830Y-107909368D01*
X91991651Y-107889962D01*
X91984419Y-107869750D01*
X91979203Y-107848926D01*
X91976053Y-107827691D01*
X91975000Y-107806250D01*
X91975000Y-107368750D01*
X91976053Y-107347309D01*
X91979203Y-107326074D01*
X91984419Y-107305250D01*
X91991651Y-107285038D01*
X92000830Y-107265632D01*
X92011866Y-107247219D01*
X92024654Y-107229976D01*
X92039070Y-107214070D01*
X92054976Y-107199654D01*
X92072219Y-107186866D01*
X92090632Y-107175830D01*
X92110038Y-107166651D01*
X92130250Y-107159419D01*
X92151074Y-107154203D01*
X92172309Y-107151053D01*
X92193750Y-107150000D01*
X92706250Y-107150000D01*
X92727691Y-107151053D01*
G37*
G36*
X92727691Y-105576053D02*
G01*
X92748926Y-105579203D01*
X92769750Y-105584419D01*
X92789962Y-105591651D01*
X92809368Y-105600830D01*
X92827781Y-105611866D01*
X92845024Y-105624654D01*
X92860930Y-105639070D01*
X92875346Y-105654976D01*
X92888134Y-105672219D01*
X92899170Y-105690632D01*
X92908349Y-105710038D01*
X92915581Y-105730250D01*
X92920797Y-105751074D01*
X92923947Y-105772309D01*
X92925000Y-105793750D01*
X92925000Y-106231250D01*
X92923947Y-106252691D01*
X92920797Y-106273926D01*
X92915581Y-106294750D01*
X92908349Y-106314962D01*
X92899170Y-106334368D01*
X92888134Y-106352781D01*
X92875346Y-106370024D01*
X92860930Y-106385930D01*
X92845024Y-106400346D01*
X92827781Y-106413134D01*
X92809368Y-106424170D01*
X92789962Y-106433349D01*
X92769750Y-106440581D01*
X92748926Y-106445797D01*
X92727691Y-106448947D01*
X92706250Y-106450000D01*
X92193750Y-106450000D01*
X92172309Y-106448947D01*
X92151074Y-106445797D01*
X92130250Y-106440581D01*
X92110038Y-106433349D01*
X92090632Y-106424170D01*
X92072219Y-106413134D01*
X92054976Y-106400346D01*
X92039070Y-106385930D01*
X92024654Y-106370024D01*
X92011866Y-106352781D01*
X92000830Y-106334368D01*
X91991651Y-106314962D01*
X91984419Y-106294750D01*
X91979203Y-106273926D01*
X91976053Y-106252691D01*
X91975000Y-106231250D01*
X91975000Y-105793750D01*
X91976053Y-105772309D01*
X91979203Y-105751074D01*
X91984419Y-105730250D01*
X91991651Y-105710038D01*
X92000830Y-105690632D01*
X92011866Y-105672219D01*
X92024654Y-105654976D01*
X92039070Y-105639070D01*
X92054976Y-105624654D01*
X92072219Y-105611866D01*
X92090632Y-105600830D01*
X92110038Y-105591651D01*
X92130250Y-105584419D01*
X92151074Y-105579203D01*
X92172309Y-105576053D01*
X92193750Y-105575000D01*
X92706250Y-105575000D01*
X92727691Y-105576053D01*
G37*
G36*
X132177691Y-61476053D02*
G01*
X132198926Y-61479203D01*
X132219750Y-61484419D01*
X132239962Y-61491651D01*
X132259368Y-61500830D01*
X132277781Y-61511866D01*
X132295024Y-61524654D01*
X132310930Y-61539070D01*
X132325346Y-61554976D01*
X132338134Y-61572219D01*
X132349170Y-61590632D01*
X132358349Y-61610038D01*
X132365581Y-61630250D01*
X132370797Y-61651074D01*
X132373947Y-61672309D01*
X132375000Y-61693750D01*
X132375000Y-62131250D01*
X132373947Y-62152691D01*
X132370797Y-62173926D01*
X132365581Y-62194750D01*
X132358349Y-62214962D01*
X132349170Y-62234368D01*
X132338134Y-62252781D01*
X132325346Y-62270024D01*
X132310930Y-62285930D01*
X132295024Y-62300346D01*
X132277781Y-62313134D01*
X132259368Y-62324170D01*
X132239962Y-62333349D01*
X132219750Y-62340581D01*
X132198926Y-62345797D01*
X132177691Y-62348947D01*
X132156250Y-62350000D01*
X131643750Y-62350000D01*
X131622309Y-62348947D01*
X131601074Y-62345797D01*
X131580250Y-62340581D01*
X131560038Y-62333349D01*
X131540632Y-62324170D01*
X131522219Y-62313134D01*
X131504976Y-62300346D01*
X131489070Y-62285930D01*
X131474654Y-62270024D01*
X131461866Y-62252781D01*
X131450830Y-62234368D01*
X131441651Y-62214962D01*
X131434419Y-62194750D01*
X131429203Y-62173926D01*
X131426053Y-62152691D01*
X131425000Y-62131250D01*
X131425000Y-61693750D01*
X131426053Y-61672309D01*
X131429203Y-61651074D01*
X131434419Y-61630250D01*
X131441651Y-61610038D01*
X131450830Y-61590632D01*
X131461866Y-61572219D01*
X131474654Y-61554976D01*
X131489070Y-61539070D01*
X131504976Y-61524654D01*
X131522219Y-61511866D01*
X131540632Y-61500830D01*
X131560038Y-61491651D01*
X131580250Y-61484419D01*
X131601074Y-61479203D01*
X131622309Y-61476053D01*
X131643750Y-61475000D01*
X132156250Y-61475000D01*
X132177691Y-61476053D01*
G37*
G36*
X132177691Y-63051053D02*
G01*
X132198926Y-63054203D01*
X132219750Y-63059419D01*
X132239962Y-63066651D01*
X132259368Y-63075830D01*
X132277781Y-63086866D01*
X132295024Y-63099654D01*
X132310930Y-63114070D01*
X132325346Y-63129976D01*
X132338134Y-63147219D01*
X132349170Y-63165632D01*
X132358349Y-63185038D01*
X132365581Y-63205250D01*
X132370797Y-63226074D01*
X132373947Y-63247309D01*
X132375000Y-63268750D01*
X132375000Y-63706250D01*
X132373947Y-63727691D01*
X132370797Y-63748926D01*
X132365581Y-63769750D01*
X132358349Y-63789962D01*
X132349170Y-63809368D01*
X132338134Y-63827781D01*
X132325346Y-63845024D01*
X132310930Y-63860930D01*
X132295024Y-63875346D01*
X132277781Y-63888134D01*
X132259368Y-63899170D01*
X132239962Y-63908349D01*
X132219750Y-63915581D01*
X132198926Y-63920797D01*
X132177691Y-63923947D01*
X132156250Y-63925000D01*
X131643750Y-63925000D01*
X131622309Y-63923947D01*
X131601074Y-63920797D01*
X131580250Y-63915581D01*
X131560038Y-63908349D01*
X131540632Y-63899170D01*
X131522219Y-63888134D01*
X131504976Y-63875346D01*
X131489070Y-63860930D01*
X131474654Y-63845024D01*
X131461866Y-63827781D01*
X131450830Y-63809368D01*
X131441651Y-63789962D01*
X131434419Y-63769750D01*
X131429203Y-63748926D01*
X131426053Y-63727691D01*
X131425000Y-63706250D01*
X131425000Y-63268750D01*
X131426053Y-63247309D01*
X131429203Y-63226074D01*
X131434419Y-63205250D01*
X131441651Y-63185038D01*
X131450830Y-63165632D01*
X131461866Y-63147219D01*
X131474654Y-63129976D01*
X131489070Y-63114070D01*
X131504976Y-63099654D01*
X131522219Y-63086866D01*
X131540632Y-63075830D01*
X131560038Y-63066651D01*
X131580250Y-63059419D01*
X131601074Y-63054203D01*
X131622309Y-63051053D01*
X131643750Y-63050000D01*
X132156250Y-63050000D01*
X132177691Y-63051053D01*
G37*
G36*
X129627691Y-59826053D02*
G01*
X129648926Y-59829203D01*
X129669750Y-59834419D01*
X129689962Y-59841651D01*
X129709368Y-59850830D01*
X129727781Y-59861866D01*
X129745024Y-59874654D01*
X129760930Y-59889070D01*
X129775346Y-59904976D01*
X129788134Y-59922219D01*
X129799170Y-59940632D01*
X129808349Y-59960038D01*
X129815581Y-59980250D01*
X129820797Y-60001074D01*
X129823947Y-60022309D01*
X129825000Y-60043750D01*
X129825000Y-60556250D01*
X129823947Y-60577691D01*
X129820797Y-60598926D01*
X129815581Y-60619750D01*
X129808349Y-60639962D01*
X129799170Y-60659368D01*
X129788134Y-60677781D01*
X129775346Y-60695024D01*
X129760930Y-60710930D01*
X129745024Y-60725346D01*
X129727781Y-60738134D01*
X129709368Y-60749170D01*
X129689962Y-60758349D01*
X129669750Y-60765581D01*
X129648926Y-60770797D01*
X129627691Y-60773947D01*
X129606250Y-60775000D01*
X129168750Y-60775000D01*
X129147309Y-60773947D01*
X129126074Y-60770797D01*
X129105250Y-60765581D01*
X129085038Y-60758349D01*
X129065632Y-60749170D01*
X129047219Y-60738134D01*
X129029976Y-60725346D01*
X129014070Y-60710930D01*
X128999654Y-60695024D01*
X128986866Y-60677781D01*
X128975830Y-60659368D01*
X128966651Y-60639962D01*
X128959419Y-60619750D01*
X128954203Y-60598926D01*
X128951053Y-60577691D01*
X128950000Y-60556250D01*
X128950000Y-60043750D01*
X128951053Y-60022309D01*
X128954203Y-60001074D01*
X128959419Y-59980250D01*
X128966651Y-59960038D01*
X128975830Y-59940632D01*
X128986866Y-59922219D01*
X128999654Y-59904976D01*
X129014070Y-59889070D01*
X129029976Y-59874654D01*
X129047219Y-59861866D01*
X129065632Y-59850830D01*
X129085038Y-59841651D01*
X129105250Y-59834419D01*
X129126074Y-59829203D01*
X129147309Y-59826053D01*
X129168750Y-59825000D01*
X129606250Y-59825000D01*
X129627691Y-59826053D01*
G37*
G36*
X128052691Y-59826053D02*
G01*
X128073926Y-59829203D01*
X128094750Y-59834419D01*
X128114962Y-59841651D01*
X128134368Y-59850830D01*
X128152781Y-59861866D01*
X128170024Y-59874654D01*
X128185930Y-59889070D01*
X128200346Y-59904976D01*
X128213134Y-59922219D01*
X128224170Y-59940632D01*
X128233349Y-59960038D01*
X128240581Y-59980250D01*
X128245797Y-60001074D01*
X128248947Y-60022309D01*
X128250000Y-60043750D01*
X128250000Y-60556250D01*
X128248947Y-60577691D01*
X128245797Y-60598926D01*
X128240581Y-60619750D01*
X128233349Y-60639962D01*
X128224170Y-60659368D01*
X128213134Y-60677781D01*
X128200346Y-60695024D01*
X128185930Y-60710930D01*
X128170024Y-60725346D01*
X128152781Y-60738134D01*
X128134368Y-60749170D01*
X128114962Y-60758349D01*
X128094750Y-60765581D01*
X128073926Y-60770797D01*
X128052691Y-60773947D01*
X128031250Y-60775000D01*
X127593750Y-60775000D01*
X127572309Y-60773947D01*
X127551074Y-60770797D01*
X127530250Y-60765581D01*
X127510038Y-60758349D01*
X127490632Y-60749170D01*
X127472219Y-60738134D01*
X127454976Y-60725346D01*
X127439070Y-60710930D01*
X127424654Y-60695024D01*
X127411866Y-60677781D01*
X127400830Y-60659368D01*
X127391651Y-60639962D01*
X127384419Y-60619750D01*
X127379203Y-60598926D01*
X127376053Y-60577691D01*
X127375000Y-60556250D01*
X127375000Y-60043750D01*
X127376053Y-60022309D01*
X127379203Y-60001074D01*
X127384419Y-59980250D01*
X127391651Y-59960038D01*
X127400830Y-59940632D01*
X127411866Y-59922219D01*
X127424654Y-59904976D01*
X127439070Y-59889070D01*
X127454976Y-59874654D01*
X127472219Y-59861866D01*
X127490632Y-59850830D01*
X127510038Y-59841651D01*
X127530250Y-59834419D01*
X127551074Y-59829203D01*
X127572309Y-59826053D01*
X127593750Y-59825000D01*
X128031250Y-59825000D01*
X128052691Y-59826053D01*
G37*
D20*
X130250000Y-63750000D03*
X128950000Y-63750000D03*
X129600000Y-61850000D03*
X129600000Y-63750000D03*
X128950000Y-61850000D03*
X130250000Y-61850000D03*
D21*
X94600000Y-109300000D03*
X93650000Y-109300000D03*
X92700000Y-109300000D03*
X92700000Y-111500000D03*
X94600000Y-111500000D03*
D13*
G36*
X99680142Y-110851174D02*
G01*
X99703803Y-110854684D01*
X99727007Y-110860496D01*
X99749529Y-110868554D01*
X99771153Y-110878782D01*
X99791670Y-110891079D01*
X99810883Y-110905329D01*
X99828607Y-110921393D01*
X99844671Y-110939117D01*
X99858921Y-110958330D01*
X99871218Y-110978847D01*
X99881446Y-111000471D01*
X99889504Y-111022993D01*
X99895316Y-111046197D01*
X99898826Y-111069858D01*
X99900000Y-111093750D01*
X99900000Y-111581250D01*
X99898826Y-111605142D01*
X99895316Y-111628803D01*
X99889504Y-111652007D01*
X99881446Y-111674529D01*
X99871218Y-111696153D01*
X99858921Y-111716670D01*
X99844671Y-111735883D01*
X99828607Y-111753607D01*
X99810883Y-111769671D01*
X99791670Y-111783921D01*
X99771153Y-111796218D01*
X99749529Y-111806446D01*
X99727007Y-111814504D01*
X99703803Y-111820316D01*
X99680142Y-111823826D01*
X99656250Y-111825000D01*
X98743750Y-111825000D01*
X98719858Y-111823826D01*
X98696197Y-111820316D01*
X98672993Y-111814504D01*
X98650471Y-111806446D01*
X98628847Y-111796218D01*
X98608330Y-111783921D01*
X98589117Y-111769671D01*
X98571393Y-111753607D01*
X98555329Y-111735883D01*
X98541079Y-111716670D01*
X98528782Y-111696153D01*
X98518554Y-111674529D01*
X98510496Y-111652007D01*
X98504684Y-111628803D01*
X98501174Y-111605142D01*
X98500000Y-111581250D01*
X98500000Y-111093750D01*
X98501174Y-111069858D01*
X98504684Y-111046197D01*
X98510496Y-111022993D01*
X98518554Y-111000471D01*
X98528782Y-110978847D01*
X98541079Y-110958330D01*
X98555329Y-110939117D01*
X98571393Y-110921393D01*
X98589117Y-110905329D01*
X98608330Y-110891079D01*
X98628847Y-110878782D01*
X98650471Y-110868554D01*
X98672993Y-110860496D01*
X98696197Y-110854684D01*
X98719858Y-110851174D01*
X98743750Y-110850000D01*
X99656250Y-110850000D01*
X99680142Y-110851174D01*
G37*
G36*
X99680142Y-108976174D02*
G01*
X99703803Y-108979684D01*
X99727007Y-108985496D01*
X99749529Y-108993554D01*
X99771153Y-109003782D01*
X99791670Y-109016079D01*
X99810883Y-109030329D01*
X99828607Y-109046393D01*
X99844671Y-109064117D01*
X99858921Y-109083330D01*
X99871218Y-109103847D01*
X99881446Y-109125471D01*
X99889504Y-109147993D01*
X99895316Y-109171197D01*
X99898826Y-109194858D01*
X99900000Y-109218750D01*
X99900000Y-109706250D01*
X99898826Y-109730142D01*
X99895316Y-109753803D01*
X99889504Y-109777007D01*
X99881446Y-109799529D01*
X99871218Y-109821153D01*
X99858921Y-109841670D01*
X99844671Y-109860883D01*
X99828607Y-109878607D01*
X99810883Y-109894671D01*
X99791670Y-109908921D01*
X99771153Y-109921218D01*
X99749529Y-109931446D01*
X99727007Y-109939504D01*
X99703803Y-109945316D01*
X99680142Y-109948826D01*
X99656250Y-109950000D01*
X98743750Y-109950000D01*
X98719858Y-109948826D01*
X98696197Y-109945316D01*
X98672993Y-109939504D01*
X98650471Y-109931446D01*
X98628847Y-109921218D01*
X98608330Y-109908921D01*
X98589117Y-109894671D01*
X98571393Y-109878607D01*
X98555329Y-109860883D01*
X98541079Y-109841670D01*
X98528782Y-109821153D01*
X98518554Y-109799529D01*
X98510496Y-109777007D01*
X98504684Y-109753803D01*
X98501174Y-109730142D01*
X98500000Y-109706250D01*
X98500000Y-109218750D01*
X98501174Y-109194858D01*
X98504684Y-109171197D01*
X98510496Y-109147993D01*
X98518554Y-109125471D01*
X98528782Y-109103847D01*
X98541079Y-109083330D01*
X98555329Y-109064117D01*
X98571393Y-109046393D01*
X98589117Y-109030329D01*
X98608330Y-109016079D01*
X98628847Y-109003782D01*
X98650471Y-108993554D01*
X98672993Y-108985496D01*
X98696197Y-108979684D01*
X98719858Y-108976174D01*
X98743750Y-108975000D01*
X99656250Y-108975000D01*
X99680142Y-108976174D01*
G37*
D22*
X113300000Y-117530000D03*
X113300000Y-38870000D03*
M02*
